<mxfile host="app.diagrams.net" agent="Mozilla/5.0 (Windows NT 10.0; Win64; x64) AppleWebKit/537.36 (KHTML, like Gecko) Chrome/131.0.0.0 Safari/537.36" version="24.8.4">
  <diagram name="Page-1" id="_25ZkQYePN7N0DDKEcBW">
    <mxGraphModel dx="2093" dy="940" grid="1" gridSize="10" guides="1" tooltips="1" connect="1" arrows="1" fold="1" page="1" pageScale="1" pageWidth="827" pageHeight="1169" math="0" shadow="0">
      <root>
        <mxCell id="0" />
        <mxCell id="1" parent="0" />
        <mxCell id="nDjcoqbKYRmUomGfSdk0-9" style="edgeStyle=orthogonalEdgeStyle;rounded=0;orthogonalLoop=1;jettySize=auto;html=1;entryX=0.5;entryY=0;entryDx=0;entryDy=0;startArrow=classic;startFill=1;" edge="1" parent="1" source="nDjcoqbKYRmUomGfSdk0-1" target="nDjcoqbKYRmUomGfSdk0-5">
          <mxGeometry relative="1" as="geometry" />
        </mxCell>
        <mxCell id="nDjcoqbKYRmUomGfSdk0-24" style="edgeStyle=orthogonalEdgeStyle;rounded=0;orthogonalLoop=1;jettySize=auto;html=1;entryX=0.5;entryY=0;entryDx=0;entryDy=0;" edge="1" parent="1" source="nDjcoqbKYRmUomGfSdk0-1" target="nDjcoqbKYRmUomGfSdk0-22">
          <mxGeometry relative="1" as="geometry" />
        </mxCell>
        <mxCell id="nDjcoqbKYRmUomGfSdk0-1" value="Web UI" style="ellipse;whiteSpace=wrap;html=1;" vertex="1" parent="1">
          <mxGeometry x="320" y="50" width="120" height="80" as="geometry" />
        </mxCell>
        <mxCell id="nDjcoqbKYRmUomGfSdk0-14" style="edgeStyle=orthogonalEdgeStyle;rounded=0;orthogonalLoop=1;jettySize=auto;html=1;exitX=0.5;exitY=1;exitDx=0;exitDy=0;entryX=0.5;entryY=0;entryDx=0;entryDy=0;" edge="1" parent="1" source="nDjcoqbKYRmUomGfSdk0-5" target="nDjcoqbKYRmUomGfSdk0-13">
          <mxGeometry relative="1" as="geometry" />
        </mxCell>
        <mxCell id="nDjcoqbKYRmUomGfSdk0-5" value="" style="rounded=1;whiteSpace=wrap;html=1;fillColor=#000033;" vertex="1" parent="1">
          <mxGeometry x="275" y="210" width="210" height="160" as="geometry" />
        </mxCell>
        <mxCell id="nDjcoqbKYRmUomGfSdk0-3" value="" style="shape=image;verticalLabelPosition=bottom;labelBackgroundColor=default;verticalAlign=top;aspect=fixed;imageAspect=0;image=data:image/png,iVBORw0KGgoAAAANSUhEUgAABLAAAASwCAYAAADrIbPPAAAABGdBTUEAALGPC/xhBQAAACBjSFJNAAB6JgAAgIQAAPoAAACA6AAAdTAAAOpgAAA6mAAAF3CculE8AAAABmJLR0QA/wD/AP+gvaeTAAAACXBIWXMAAC4jAAAuIwF4pT92AACAAElEQVR42uzdd5xcdb3/8deZuj3Jpndq6D10ka6AoHRBBAtivyIoeq33YuFn716vqChcsYBUC1wQRQFFlCZBOiGkt0022TY7M+f8/phNLsluktnN7p6Z3dfz8dgH5Mwpn++cZHfOe78liKIISZIkSZIkqVIl4i5AkiRJkiRJ2hoDLEmSJEmSJFU0AyxJkiRJkiRVNAMsSZIkSZIkVTQDLEmSJEmSJFU0AyxJkiRJkiRVNAMsSZIkSZIkVTQDLEmSJEmSJFU0AyxJkiRJkiRVNAMsSZIkSZIkVTQDLEmSJEmSJFU0AyxJkiRJkiRVNAMsSZIkSZIkVTQDLEmSJEmSJFU0AyxJkiRJkiRVNAMsSZIkSZIkVTQDLEmSJEmSJFU0AyxJkiRJkiRVNAMsSZIkSZIkVTQDLEmSJEmSJFU0AyxJkiRJkiRVNAMsSZIkSZIkVTQDLEmSJEmSJFU0AyxJkiRJkiRVNAMsSZIkSZIkVTQDLEmSJEmSJFU0AyxJkiRJkiRVNAMsSZIkSZIkVTQDLEmSJEmSJFU0AyxJkiRJkiRVNAMsSZIkSZIkVTQDLEmSJEmSJFU0AyxJkiRJkiRVNAMsSZIkSZIkVTQDLEmSJEmSJFU0AyxJkiRJkiRVNAMsSZIkSZIkVTQDLEmSJEmSJFU0AyxJkiRJkiRVNAMsSZIkSZIkVTQDLEmSJEmSJFU0AyxJkiRJkiRVNAMsSZIkSZIkVTQDLEmSJEmSJFU0AyxJkiRJkiRVNAMsSZIkSZIkVTQDLEmSJEmSJFU0AyxJkiRJkiRVNAMsSZIkSZIkVTQDLEmSJEmSJFU0AyxJkiRJkiRVNAMsSZIkSZIkVTQDLEmSJEmSJFU0AyxJkiRJkiRVNAMsSZIkSZIkVTQDLEmSJEmSJFU0AyxJkiRJkiRVNAMsSZIkSZIkVTQDLEmSJEmSJFW0VNwFSKoeD8ydG3cJGiGyiQTFKOKcefNY2NUVdznSQKWAY4HDgD2BZqAILAf+ATwIPBx3kZI0XKIoirsESSOYAZYkSVL/HQ+8C3gdUNfH628FFgLXA98FFsVdsCRJUjVzCKEkSVL56oHrgN8D59B3eLXBTODfgSeBD8RduCRJUjUzwJIkSSrPzsCjwIX9PK4J+Cal4EuSJEkD4BBCSZKkbZsM/BmYth3nuBDIAOfF3RhJkqRqY4AlSZK0bbeyhfBqt1SKXVNJxgYJQmB5WOTJQoFlxbCv3d9IaWL3L8fdIEmSpGpigCVJkrR176a00uAmpiQSnFNXy+7JJKkg2Lg9ANqjiPu7u7m1s4ti7/N9CbgReCnuhkmSJFUL58CSJEnasiTwmc03zkom+VBDA/ulUrRFES1huPFrVRgSAm/IZnlvff2Wflv473E3TJIkqZoYYEmSJG3ZqcDEV27IEvDWulqaEgEresKqVwqA7ihicRhycCbNGbU1fZ33TUBj3I2TJEmqFgZYkiRJW3by5huOymbYMZVkdRgSbOPgFWHIqzMZpid7feRqBI6Ku3GSJEnVwgBLkiRpy/Z75R8SwL7pFF1RtM3wCko9sWqCgP3Tmb5ePjDuxkmSJFULAyxJkqQtm/LKPzQEAc2JBB1ReQcHQIHShO99mFbeWSRJkmSAJUmStGXZV/4hFQSkgDLzq/87rl+bJUmStDkDLEmSpC1rfeUf2sOQtigiXebBEaUPW+uiPiOv1jJPI0mSNOoZYEmSJG3Zc6/8Qw54uVikIQjK6oUVUPqw9Vyh0NfLz8bdOEmSpGphgCVJkrRl92++4b5cN92UxhZuLcQKgXGJBAuKRR7L5/va5c9xN06SJKlaGGBJkiRt2Y2bb5hfLPK7ri4mJJNkttATKwLG9rz2y85O+uh/9Q/gmbgbJ0mSVC0MsCRJkrZsPnDr5ht/3ZXj5s4u6oOAiYkEtUFAktKs7A1BwJREgs4o4r/b23muUOzrvF+Ju2GSJEnVxNVvJEmStu5y4PTNN97W1cWzhQJHZtPMTKZoCKAYwbJiyHPFInfncqwJw77O9yDwy7gbJUmSVE0MsCRJkrZuPnAJ8IPNX3iqUOCpQoGmIKAxkSCMYHUU0h1tcXasLuBNcTdIkiSp2hhgSZIkbdsPgRnAf/T14rooYl2xuK1zdAEnUgrEJEmS1A/OgSVJklSe/wTeC33Nyb5NTwNH0ceqhpIkSdo2AyxJkqTyfQ84EPhtmfu3AVcBe1NaeVCSJEkD4BBCSZKk/nkCOBXYH/gVsPMW9muhFFwtjbtgSZKkamcPLEmSpIF5DPjXVl5fh+GVJEnSoDDAkiRJGrj6rbxmT3dJkqRBYoAlSZIkSZKkimaAJUmSJEmSpIpmgCVJkiRJkqSKZoAlSZIkSZKkimaAJUmSJEmSpIpmgCVJkiRJkqSKZoAlSZIkSZKkimaAJUmSJEmSpIpmgCVJkiRJkqSKZoAlSZIkSZKkimaAJUmSJEmSpIpmgCVJkiRJkqSKZoAlSZIkSZKkimaAJUmSJEmSpIpmgCVJkiRJkqSKZoAlSZIkSZKkimaAJUmSJEmSpIpmgCVJkiRJkqSKZoAlSZIkSZKkimaAJUmSJEmSpIpmgCVJkiRJkqSKZoAlSZIkSZKkimaAJUmSJEmSpIpmgCVJkiRJkqSKZoAlSZIkSZKkimaAJUmSJEmSpIpmgCVJkiRJkqSKZoAlSZIkSZKkimaAJUmSJEmSpIpmgCVJkiRJkqSKZoAlSZIkSZKkimaAJUmSJEmSpIpmgCVJkiRJkqSKZoAlSZIkSZKkimaAJUmSJEmSpIpmgCVJkiRJkqSKZoAlSZIkSZKkimaAJUmSJEmSpIpmgCVJkiRJkqSKZoAlSZIkSZKkimaAJUmSJEmSpIpmgCVJkiRJkqSKZoAlSZIkSZKkimaAJUmSJEmSpIpmgCVJkiRJkqSKZoAlSZIkSZKkimaAJUmSJEmSpIpmgCVJkiRJkqSKZoAlSZIkSZKkimaAJUmSJEmSpIpmgCVJkiRJkqSKZoAlSZIkSZKkimaAJUmSJEmSpIpmgCVJkiRJkqSKZoAlSZIkSZKkimaAJUmSJEmSpIpmgCVJkiRJkqSKZoAlSZIkSZKkimaAJUmSJEmSpIpmgCVJkiRJkqSKZoAlSZIkSZKkimaAJUmSJEmSpIpmgCVJkiRJkqSKZoAlSZIkSZKkimaAJUmSJEmSpIpmgCVJkiRJkqSKZoAlSZIkSZKkimaAJUmSJEmSpIpmgCVJkiRJkqSKZoAlSZIkSZKkimaAJUmSJEmSpIpmgCVJkiRJkqSKZoAlSZIkSZKkimaAJUmSJEmSpIpmgCVJkiRJkqSKZoAlSZIkSZKkimaAJUmSJEmSpIpmgCVJkiRJkqSKZoAlSZIkSZKkimaAJUmSJEmSpIpmgCVJkiRJkqSKZoAlSZIkSZKkimaAJUmSJEmSpIpmgCVJkiRJkqSKZoAlSZIkSZKkimaAJUmSJEmSpIpmgCVJkiRJkqSKZoAlSZIkSZKkimaAJUmSJEmSpIpmgCVJkiRJkqSKZoAlSZIkSZKkimaAJUmSJEmSpIpmgCVJkiRJkqSKZoAlSZI0cB1bea0Qd3GSJEkjRSruAiRJkqpIFpgM7AhMA+ZsZd9GYDdgMdAWd+GSJEnVzABLkiRpy8YCBwHHAXsDBwLTgaCMY8cDTwOrgceBJ4AHgPuAZXE3TJIkqZoYYEmSJG2qETgFeAPwWqB5O883nlIAdhxwKZAD7gHuAG4GlsTdYEmSpEpngCVJklSyM/AO4M3AjCG8TpZSQHYK8AVKIdaPgD/F/QZIkiRVKidxlyRJo90c4PvAv4B/Z2jDq83VAxcC9wJ3ASfG/WZIkiRVIgMsSZI0WjVT6gH1T+CdQCbmek6kFGL9ktLk75IkSephgCVJkkaj8ygFVx+lNKSvkpwLPAp8Mu5CJEmSKoUBliRJGk0agR8CP6e0mmClqgU+S2lerF3jLkaSJCluBliSJGm02Ad4ELg47kL64dWUeoqdE3chkiRJcTLAkiRJo8EbgIeBPeMuZABqgBuAj8ddiCRJUlxScRcgSZI0xC4Brh6ME+22c8Dh+wXssmPAbrMCpk2CcWOgrgaCALpy0NoGy1bCcwsjnp8f8Y9/RTz8REQYbvflPw9MBi6N9+2UJEkafgZYkiRpJHsf8J3tOcGrDgl4w3EJXndMwG47BySmBKX1CruAAlAEwqi0cwJIBKVPWDVABKyIWDg/4q4HI37zx4jb/jckGng5H6A0P9Y7435jJUmShlMQRdvxEUrSqPLA3Llxl6ARIptIUIwizpk3j4VdXXGXo5HrrcCPB3zwuQnedUGCww4NYHwArRG0AV1QLALBNk4QQZCARBaoA8YG0BXx3KMRP/5VyPf/J6Jl3YA/h30XeP/wv6WStGU+W0oaSs6BJUmSRqLjGWB49eYzEsz7fYofX5visGMS0AaFZyOKK6DYAcWQbYdXlPaJIih2QbEFii9EsAJ23Sfgqm+meObPKT76vkRZp+rD+4BPxPXmSpIkDTcDLEmSNNLsAPymvwfttXPAPT9L8T8/TbHXQQl4KaK4KKLYXZrfarsFUCxAcTlEz0RMmBrwhW+lePJPKV5/7IA+kn0OOGto30pJkqTKYIAlSZJGml9TmoGqbG89I8FDd6Y47owELI4oLokoRpTX06q/AggDKK6K4JmIPfYPuO2WFF/8WHIgZ/sFsNMQVClJklRRDLAkSdJI8h1g7/4c8F+fSfLjn6aoaywN8ysWGJrganNBaf734kJgbcRHPpPkjzekGN/Ur7OkgF8NQ7WSJEmxMsCSJEkjxdGU5oYqSzKAW65O8Z6PJ2F5RHEV8XwySkCxHaLnI455Q4L7b0uz8/R+JWgHAJ+OoXJJkqRhY4AlSZJGirInbU8EcNdPU5z+9gTRCxHFTuL9VBRAGEHxuYjdDw74060pdp3ZrzNcCewaYwskSZKGlAGWJEkaCT4K7Fjuzr/+fpLjzk8QPhcRDteQwXIkoPhSxPQ9Av73FykmjO3X0d+Ku3xJkqShYoAlSZKq3RjgP8rd+dufSHLKJUnCZyOikMoJrzboCbF2PDDBHT9K9efIk4Bj4y5fkiRpKBhgSZKkavcxoLacHc99TYL3fzpJND8iKlJ54dUGCQjnR8x9fYL/+mS/Vif8fNylS5IkDQUDLEmSVM3qgQ+Us+PEZrjuu0lYFxF2ULnhVY8oAhZGvOejSV5zRNnFHg4cGXftkiRJg80AS5IkVbOLKbP31TWfSZLdIaC4jOr4BBRAsQMowrVfSpEqfzThh+MuXZIkabBVw8c3SZKkLXlPOTsdc0jAqRcliV6KoF8j8mKWgHBJxJTDAz7xrrI/tp0GTI27dEmSpMFkgCVJkqrVIcDu5ez41SuSpTAoF3fJ/RdGwMqIj78vydimsg5JAm+Ku25JkqTBZIAlSZKq1bnl7HTC4QkOPDFBtDiqyk8+QQDhasjMCbjsLWV3Hzsr7rolSZIGUxV+jJMkSQLg5HJ2+uBFAWQgzMdd7sBFAGsi3vPGgHS6rEMOBWbEXbckSdJgMcCSJEnVaDdgz23tNGsqvPaYBKyozt5XGwVAC0zcL+DUY8pqSAI4Pu6yJUmSBkv569lIkiRVjn3K2el9FyRJ7Z6A9RHJ8XGXvJ0ioCHg398ZccvdYTlHHAJcG3fZkiRJg8EAS5Kk6pYEJgGNwBigHkj3fI1kF5azU1sH/O5XRYqrSnNJVbMogmQjrF4SkUxCsbjNQ44HTom77piFQB7oAlqBdcDanv9KkqQqEkRRFHcNkqrEA3Pnxl2CRohsIkExijhn3jwWdnXFXU61CID9gZ0pDZ/bG5gJTOj5agCycRcpVbAIWE8pyFoBLAOeBf4JLAQeBVriLlKqZj5bShpK9sCSJKlyHUppGNjxlOZ72jXugqQqFgBNPV8ze7a97hWvrwCeB+4FHur5b2vcRUuSpBIDLEmSKsvJwGt7/jsn7mKkUWRSz9cRPX9eAfwNuB34LbA07gIlSRrNDLAkSYrfPsAFwDnATnEXIwkohVmn9Xy1A78Drgdui7swSZJGIwMsSZLicwbwTuCkuAuRtFX1lALmcyjNm/Uj4BpgVdyFSZI0WiTiLkCSpFHoTcA/gJsxvJKqzRzgi5Tmy/oKMD3ugiRJGg0MsCRJGj7nUgqurgcOirsYSdtlDPAh4Gng85Qmh5ckSUPEAEuSpKF3OKUVzX6JwZU00jQAHweeBN4VdzGSJI1UBliSJA2dGuDLwF+Ao+MuRtKQmgH8N6WVCw+PuxhJkkYaJ3GXJGlovB74KrDLUJw8EwRMy2ZpTqeZnMkwIZ2mKZWiIZmkJpEgHQRxt1+KXRHoDkPai0XWF4usyedZns+zqrub5d3drC0UhuKyh1AKrT8H/AcQxv0+SJI0EhhgSZI0uFKUJni+fDBPOjmTYde6Ovatr2fXujqmZbNMz2YZk0qRCgKSQUACSPT81/hKgqjnKwTCKKIYRRSBzmKRpbkcS7u7WdDVxeNtbTzX0cEzHR2DeflPAq8B3gE8Efd7IUlStTPAkiRp8OwC/BQ4dDBOtmttLYeOGcPcxkb2bmhgRjZLKghIBAFdYUhHsUhbsVh6SI8ioPSwLmlTwWb/TQYBs2pq2KO+noBSwLWmUOCp9naeaGvjT2vX8sj69RSj7f4XdQjwEHApcHXc74MkSdXMAEuSpMHxBkqrC9Zvz0nGplIcO24cxzc3c0hjIxMyGaIoYn2xyOp83oBKGoBos/+GUUS+Z1jhBplEgsOamjhq7FjeOnUqT7W380BrK3e2tPB0e/v2XL4G+D6wP/DeuN8LSZKqlQGWJEnb73JK810N2I41NZw5aRKvaW5m17o6wihiTaHA4lzO4YDSMOgOQ1aGIRGQCgL2amjgkKYm3jJ1KveuWcMNK1bw19bW7bnEe4CdgHOA9XG3V5KkamOAJUnS9vkScMVAD55dU8Nbpk7l1PHjmZLN0loosCSXI6I03MnwShpeAVCMIlryeVYBtYkEZ0ycyKkTJvDntWv5ydKl3Ld27UBP/1rgAeBkYHHcbZUkqZoYYEmSNHA/At4+kANrEwneNX06F0yZwtRslhXd3bzU1UWi53WDKyl+CSAXhrycy5EOAo4bN47jxo3jrpYW/mvRIh5vaxvIafcB/gYcAzwfdxslSaoWBliSJA3M9cCbBnLgSePHc/nMmezT0MDy7m5e7OjYuHqgpMqToNQra2FPkHXy+PEcPXYs/7NsGV97+WU6w7C/p5wOPAgcDjwXd/skSaoGflaWJKn/fsQAwqvmVIqv77orV+++OzvU1vJ8Zyfri0USgf2tpGqwIch6qbOT9mKR982YwS377surxo4dyOnGA38BZsfdLkmSqoEBliRJ/fNtBjBs8NVjx3LzPvvwxsmTWZLLsaxncnajK6n6JIKAjjDkhc5Odq6t5do99uCjsweUQ02gFGJNirtNkiRVOgMsSYPpUOA84JC4CxlFpgFvoDQhsIbex4D39/egS2fO5Cd77snUbJbnOzooRJG9rqQqtyGAXprLsaZQ4NKZM7l+r72Ykc3291TTgLtwag9JkrbKAEvSYPkopfk8fk5pcto7gTcDjXEXNkKdCPwYeBi4FfgdpQegprgLK0cxiqhNJEhVV4jzRuCq/hyQDgK+ueuufGT2bNbk8yzP5w2upBEmEQR0hiEvdnZy1Nix/GLvvZnb1O9vxfsBt8TdFkmSKlkQRVHcNUiqEg/Mnbull14F3LeF1+YDNwM3AA/F3YYqNxs4i1IweMAW9rkRODfuQrdlcibDXS0tXPH883QUi3GXU459gcfox4i/iZkM354zh1eNGcPLXV0U+3OwpKoURhFTslnyYciHnn+eO1ev7u8pvgx8JO52SAPls6WkoWQPLEmD4TNbeW1H4EOUemXdBVwENMRdcBVJAKcCP6UUoHyVLYdXAOcAr4m76G2pTyZ5vqOjWsKrWuA2+pE/zchm+Z899+TwMWOYb3gljRqJIGBZLkcEfG+33Th3Ur+ntroCODPudkiSVIkMsCRtr0OBY8vc90TgWuCflIZi7R138RVsJ+ATlEKrXwMXAGPLPPYrcRe/LWEU0ZiqmulergN2KHfnmdks1+65J3Pq6ljQ2elE7dIokwgCWvJ5WgsFvrLrrpw/eXJ/T3E9MCPudkiSVGkMsCRtr3cN4JgdKU2G/Tilni3nAjVxN6QCpIFTKPW2egL4HLDPAM6zD3B+3I3Zlir5AfRW4Oxyd56UyXDNnnuyU20ti7q6nO9KGqUSQcC6YpHV+Txf3GUXzpw4sT+H1wC/jLsNkiRVGufAklS2PubAmgY8C9QPwumfoTRP1i+Af8Xd1mG2N6UQ70xgr0E65zwGFn4NuVQQUJtIcPFTT/GP9evjLmdrpgALgEw5O2cTCW7cZx/2q69nQS5XLQGdpCEURhFNqRTjUikufvppft/S0p/DLwe+HncbpP7w2VLSUPLztaTt8WYGJ7wC2A34FKXhhb8CTgf6vRZ5FamjFFrd1tPmTzF44RWUQrFT4m5kXxJAdxiytLs77lK25ceUGV4BfGe33TiosZGXu7r84SoJ6OmJVSiwvljk23PmsFd9v35kfgWHEkqStJGfsSUNVEApwBpsSUor7d1CaYjhfwLNcTd2EM2h9FDyBKUhIq9n6KZIuiTuxvYlovRQV5uo6B9BbwBOKnfnj+2wA6dPmMD8zk5w2KCkV0gEAavzeVJBwPd2240x5c//l6AUpEuSJAywJA3cYQz9ELXdgP8A/gHsEneDB8EpwCOUVmXcaRiudyr9mHx8uIRAJghIVm7QkwSuLnfnU8aP599mzGB+VxcRTtguqbdkELAkl2On2lq+uuuu/Tn0BOC0uOuXJKkSGGBJGqjhXOZ7R6p/HpAG4LsM3pDLcqSowOXYU0BbGNIdhnGXsiUfAyaVs+O0bJYv7LILLfk8XcWi4ZWkLUoGAQu6ujh1/HjeMW1afw79Vty1S5JUCQywJA1EEnjdMF9zt7gbvZ3qgH6vpT4IXh93wzc3MZPhjy0tvNTVFXcpfRkLfLrcnb+w886MTaVYnc+74qCkbQqBxbkcH541qz/zYe0AvDfu2iVJipsBlqSBOAjYY5iv+Wjcjd5OK4A/xXDdIxie4YplSwDdUUSFrlP0SSBdzo4XTJnCic3NvNzVVcnDISVVkABoLxZJJxJ8eocd+tNr89OM7IVNJEnaJgMsSQNxQgzX/ErcjR4EH4/hmmnguLgb/koRkKrMwGc88P5ydpySyXD5rFks7+6u1CBOUoVKBAFLczleNXYsb5k6tdzDJgMXx127JElxMsCSNBCvHubr3Qb8Pe5GD4JHKc2DNdyOjLvhm6vI+Ar+jTJ7OHxw5kwmpdOsKxQqtS2SKlgErMrneff06UzOZMo97COUhvBLkjQqGWBJ6q9JwNxhvuZn4270IPoc0DbM15xLmcPihkMAZBIV9+OnBnhPOTse2NjI6ZMmsTiXc94rSQMSAK2FAtOzWd4zY0a5h82mAhfmkCRpuFTcE4SkircvpaFWw+UPwMNxN3oQLQN+OszX3I3Sg0/sEkHAumKRO1avjruUzZ1BmSsPXjJtGpkgoDty8KCkgUsEAcu7uzljwgR2qq0t9zAnc5ckjVoGWJL666Bhvt7VcTd4CHwXhnXqpDSwT9yNhlKvg+4w5MXOzrhL2dw7y9np0KYmjmtuZnl3tz9AJW23zjCkOZ3mbeXPhXUMsHvcdUuSFAc/f0vqrwOG8VpLgNvjbvAQmEepZ9lw2jvuRkMptUsnEjQmK2oalzmUHgq36YIpU8gEAQV7X0kaBAGworub140fz4xs2YsMviXuuiVJioMBlqT+2mkYr/UboOK66gySm4f5emVPsjKUAqAYRYRxF7Kpc8rZaU5dHUePHcvKfN6J2yUNmo4wZHImwxsnTy73kLPirlmSpDgYYEnqj1mUeqsMl9/E3eAh9L9A9zBeb4e4GwwwMZ3mvrVrebajI+5SXqmsh8HTJ06kOZ0mF1ZY/CapqgVAS6HASePHU1PeAhe7AofGXbckScPNAEtSf8wExgzTtVYAf4q7wUPoBeDxYbzezkDZswQPlXQiwbpCgXzlDMHbkzKGxdYmEpwwbhxrCwV7X0kadOsKBXarq+P4cePKPcTVCCVJo44BlqT+KHt8wyB4BFgXd4OH2H3DeK2JQHPcDQ6jiEx5PQyGy2vL2enV48axS10d6wqFuOuVNAKFlL4/njxhQrmHlPW9S5KkkaSiniIkVbydh/FaD8Xd2GHw2DBeqwZoiLvBFeiEcnY6duxYklBpc3dJGiECYHU+z0GNjUxMp8s5ZD9gx7jrliRpOBlgSeqP4ZzA/eG4GzsMXhrGa2WAurgbXGEaKGMemfpkkgObmhw+KGlI5cKQ6ZkMR44dW+4hR8ddsyRJw8kAS1J/lD22YRAsj7uxw+B5SnN9DZfhvH/VYD9g/LZ2OqCxkZnZLB1O3i5pCBUBgoBDmprKPeSIuGuWJGk4GWBJ6o/h6sHTCayJu7HDYDnDG2BNibvBAaUeTRXiwHJ2mtvYSEMySbFyJp6XNAIFwNpCgX0bGkgFZfX33C/umiVJGk4GWJL6o6yJOQbBaqAl7sYOgxDIDeP1Yp3EPQAKUcSLnZ1xlvFK+5ez0x719eTsfSVpGOTCkOnZLHPqyvp90V4M38rAkiTFzgBLUn8MV9eZVqAt7sYOk+FMRmribGgAdIYhd65eHWcZr7TrtnZoSqXYtbaW9cVi3LVKGgXyYcj4dJq96uvL2b0emBN3zZIkDRcDLEn9MVxzWBfomQ5Egyr2sXsBkElUxI+eemCXbe20Y00Nzek03Q4flDQMipS+T+5UW1vuIXvGXbMkScOlIp4iJGkz9UDZn96r3HCGShWRwlTISn7Tganb2mnH2lrqk0lCAyxJwyAAOsKQHWvK7jC7Q9w1S5I0XAywJFWicUDZyzBVsQSQGsbr2avt/8woa6dslrpEwgncJQ2b7jBkek0NifImcp8Zd72SJA0XAyxJ/TFcAci4nq+RbiIwaRiv1xV3gyvItHJ2mpzJUIi7UkmjSiGKGJNMMjFd1rop0+OuV5Kk4WKAJak/8sN0nQQwPu7GDoOdgCnDeL3RsLJjucpakXFiOu0KhJKGVSGKqE+lmJTJlLN7rKvLSpI0nAywJPVH5zBea6+4GzsMdhjm6y2Ns7GFKKI+maS2MiZxLysgbUylKBhgSRpGYRRRk0jQlCxrisRxVMzUgpIkDa2KeIqQVDVWDeO1Dom7scNg72G8VgSsjrOx41IpHmtr47nO4cxBt1zOtnbIBgGNyaRDCCUNqxDIJhI0psqaIrEJKHvGd0mSqpkBlqT+eHEYr3U4w7tCXxxePYzXygMdcTa2KZXiqfZ2lnd3x1nGBttc5TKdSFCTSLgCoaRhFUYR6SAot7dqluFdDESSpNgYYEnqj+eH8Vq7AofG3eAhNBM4YBiv1w6si7PBG4YQVohtzo6cCAJSiQTGV5KGUwQkg4B0easQpjHAkiSNEgZYkvpjuOdQOjvuBg+hk4H6Ybze88CKuBtdQbb58y9g5HcBlFSZAkohehnS+K1KkjRKGGBJ6o+XGN6V7M6njKFeVer8Yb7ek5SmVolNADRUTg+ssjpW2ftKUlz8/iNJ0qYMsCT1xxLgmWG83hTgTXE3egjsCxwzzNcczuGffQqBZztinYZLkiRJUpUywJLUX/8a5uv9e9wNHgLvi+Gaj8XZ4ADIRxH/2zKcHfgkSZIkjRQGWJL668Fhvt4uwLvjbvQgmgpcOMzXbAcejbvhAZS7qpYkSZIkbcInCUn99RDDPzXHZxneCc+H0n8w/PN6PURp+GdsNqyqlSxvUmJJkiRJ2oQBlqT+ehJ4YpivOQH4XtwNHwR7Ae+K4br3x93wAChEEYXIaYklSZIk9Z8BlqT+KgJ/jOG6FwKnxt347fSdmK77h7gbPiGT4a+trfxj3bq4S5EkSZJUhQywJA3Eb2O67k+ByXE3foDewvCvPAgwn+Gft6yXFNARhvbAkiRJkjQgBliSBuJPwEsxXHcMcFvcjR+AycQ3BPK3QFfcb0AIjE+n4y5DkiRJUpUywJI0EN3AzTFd+1DgurjfgH4IgFsZ/onbN7g17jdgw5twT0tL3GVIkiRJqlIGWJIG6mcxXvtC4GtxvwFlugk4LKZrP0upt1xFeGT9+rhLkCRJklSlDLAkDdTDwH0xXv8y4CtxvwnbcCNwRozX/ylQiPtNCKOITCLBxEwm7lIkSZIkVSkDLEnb47sxX/9DwPfjfhP6MBa4Ezg7xho6gZ/E/UYAjEunebytzRUIJUmSJA2YAZak7XEz8GLMNbwT+A3QHPeb0eNASsP2XhtzHb8AFsb9ZgDUJBKs6O5mdT4fdymSJEmSqpQBlqTtkQe+HHcRwOuA+4G9Y67j3T117Bv3GwJ8M+4CACIgHQT8ae3auEuRJEmSVMUMsCRtrx8BL8RdBLAH8GfgnBiuvRdwO/A94ltt8JVuBB6PuwgorT6YCAJe7uqKuxRJkiRJVcwAS9L2ygOfjLuIHuOAGyit/HfoMFxvJvAl4DHgtLgb/wr/GXcBG4xNpfjn+vX83fmvJEmSJG2HVNwFSBoRfgFcDhwcdyE9zuz5+i1wPaUJ1dcM4vn3Ay4ELqY0YXsl+QHwr7iL2CCdSLAqn6e9WIy7FA2BBJAMApJBQCIINv5WLKA0fDSitAplCBSiiGIUxV2ytkMiCEgFAcme/w8o3WvY9H4XKd3v0PstSZIGkQGWpMHybuDhuIvYzOt6vhYDfwR+BzwCPNPP8yQpzWv16p7znRh3w7agHfhI3EVsEAGNySS/XzOY2aHiEFEKq7KJBDU9X7WJBPkoYn2xSGexSGcYkg9DigBRRKIn2NpwzNhUirpkknwY0hGG5MKQrjCkEEUbQxBVhg33e8O9rkkmqUkkyIUhbYUCnWFIrlgshZI9xySAVM/9rk0kGJ9Obzym8xX3u+j9liRJA2SAJWmwPAJ8C/hA3IX0YTrw5p6vAqWg7eWeryeApT3bofTslgGmAvsAs4FdqYyJ2bflCmBt3EVskAC6w5Al3d1xl6IB2BBiNCSTNKZSpIKAld3dvNDZyQudnbzY2cmy7m6W5nKszudZXyzSUSySjyIiSmFGJpGgKZlkTCrFlEyGSZkMs2tqmFNXx8xslqnZLNlEgrZikfWFAt2GG7GJKPWma0wmaUwmAVje3c1THR0839HB/K4ulvfc7zWFAusKBbrCkHxPL6t0EFCTSNCYTDI2nWZqz/3esbaWXWtrmVFTw5RMhiSwvlhkfU8A5v2WJEnlMsCSNJiuAM6gNDdUpUpRmh9rOObIGk4PUZpEvmI0JpO80NnJvS0tcZeifgiBukSCcek0CeDFzk7uWbOGv7a2Mq+9nWc7Ovo1FHDlFrZPzmTYt6GBAxobOaixkb3r62lMpWgtFGgtFIjAcGMYREB9MklzKkUxinimo4NH29p4qLWVf7a381JnJ/0ZCLgMoLOz1/aZNTXs19DA3KYmDmxoYI/6ejJBwJpCgfU9Q4y935IkaWsMsCQNpm7gTcB9cRcyyhSBi+Iu4pVCYHwmw80rVxLGXYzKEgJNySTj0mlWdXfz21WruHP1av62bh2r8/lBv97y7m7ubmnh7p6A85CmJo4dN45jx41j97o6uqOIVd3dFDHYGGwbwsGxqRSNqRSLu7r4RUsLd69ezV9aW+kMB/9f7cKuLhZ2dfGbVatIBwFHjBnDCc3NvHrsWHaoqaE9DGnJ5w0uJUnSFhlgSRps9wNfBD4adyGjyIfp/7xeQyodBHRHEXfZ+6ribQiumtNpXurq4ufLl3PrypU809ExrHU8tG4dD61bx/cWLeI148dzxsSJHNrURAis7O4mxGBje23oSTUulaI+meSp9nZuX7WK365ezcKurmGrIx9F/GntWv60di1TMhlOmTCBN0yYwD4NDXSF4cbA1PstSZJeyQBL0lD4d+Ao4Ii4CxkFfgt8I+4iNlefTPJCRwd/bW2NuxRtQRhF1CSTTM1keLmri2uXLuXny5ezbABzlk2cOJExY8ZQX19POp0mCAKKxSKdnZ2sX7+e1atX09nHsLK+rCsW+dWKFfxqxQpOGj+ei6ZM4bAxY+goFmkpFDaudKj+CaOIhlSKCek0T7W38/Ply7lpxYqNw/fKlUwmmThxIk1NTdTV1ZFOpwEoFAp0dHSwbt06Vq1aRb7MXnvLuru5ZskSfrZsGWdMnMibJk9mn4YG1vbMs5UIjLEkSVKJAZakoXI2pYndp8RdyAj2MnBh3EVsLgQmptPcunJlv+bO0fDYcE+mZrN0RxE/WrKEHyxZwuJcrqzj99tvP3bffXcOP/xwdtttN6ZOncrUqVMZO3YsmUxm02tFEevWrWPlypUsXryYhQsX8tBDD/HYY4/x6KOP0tbWttVr3bl6NXeuXs15kyfzjmnTmFNXx7Jcjq4oMsgq04bJ+GfW1NBSKPC1l1/mJ0uXsrZQKOv4Qw45hD333JPDDjuMnXfemWnTpjF58mTGjBlDKrXpx8hisUhraysrVqxg8eLFzJ8/n7/97W88+eST/P3vf6ewlWt2hSE/X76c21at4qIpU3jL1KnMqqlhSXe3KxdKkiQAgqgfE7FKGt0emDu3v4ccBfw57rpHqAg4BPhH3IVsLgB2rq3lrHnzeGDt2rjL2ZJr2ca8YWNSKW7bd1/GpFK097OXSqUKgdpEgimZDA+tW8fXFi4s6x4dffTRvP71r+eoo47i4IMPHpRa5s+fz8MPP8ztt9/OXXfdxfLly7e6/7h0mg/OmMF5U6YQRhEru7vtnbMNYRTR1NPr6q6WFr708ss83d6+1WOy2SwnnHACb3jDGzjssMPYZ599BqWWp556ioceemjj/d5WeDm7poYrZs3itAkTaC0WWZPPkxxF93vH2louf+45frmNfxeU5p6cDqyKu2YJSr+4kKShYoAlqWwDCLAA3gZcE3ftI9CFwE/jLmJzITAzm+XB1lbOf/LJuMvZmlEXYIVRxPh0mmwiwQ+XLuUrCxZQ2MpngJkzZ/LmN7+ZCy64gL322mtIa1u1ahW3334711xzDQ888MBW9z2xuZmP77ADO9XWsqiry7mx+hBReoicms2SC0O+tnAh1yxZstVj9thjDy666CLOOeccdt555yGtb8GCBdx8881ce+21PP7441vd97zJk/nI7NmMTSZZ3DO8dTTcbwMsVSufLSUNJQMsSWUbYIAFpUnGvxx3/SPIJ4Cr4i5iS3apq+PcJ57gz5Xb+wpGWYAVAtMzGVbn83zixRc3rvzXl5122olLL72Ut771rTQ1NQ17rXfeeSdf/epX+f3vf7/FfSZlMvy/nXfmpOZmFuVy5BxSuNGGIYOzamp4ur2dj77wAo+sX7/F/ffff38uu+wyLrjgApLJ5LDXe8MNN/C1r32Nv/3tb1vcZ/f6er64887MbWxkQVfXqFiZ0gBL1cpnS0lDyc97kobDV4DPxV3ECPENKjS8CoHp2Sz3trRUeng1akQ9XzvW1PBURwfnP/nkFsOr+vp6vvCFL/Dkk0/ygQ98IJbwCuCkk07i7rvv5vbbb9/icMUV3d1c/NRTfG/xYmbU1NCQSBD60EQEpIKAHWtr+X1LC+fMm7fF8GrmzJlcffXVPProo1x00UWxhFcA5557Lg8++CDXXXcdc+bM6XOfp9vbOXfePG5euZIda2vJBAFhLNVKkqQ4GWBJGi6fohRkaeC+D1wWdxFbkgBqk0m+u3hx3KWIUpixYT6yP61Zw5uefJIXtrAS4Kmnnsrjjz/ORz/6UWpqauIuHYDTTjuNhx56iK997WsbV7rb3OdeeolPv/giEzMZxqRSFEdxiBUB6SBgh5oafrpsGW976qktTtT+zne+k3nz5nHJJZfEXfZGF154IfPmzePDH/5wn6/nwpB/e/ZZ/mvRImbV1FCbSBhiSZI0yhhgSRpOVwCfj7uIKnU18O64i9iSCJiWyXBvSwv32fsqdhtinJ1ra/ntqlW85amnWNdHmJFKpfjhD3/Ir3/96yGf92igLrvsMh555BEOO+ywPl//0ZIlfOi55xiXTjN2lIZYG8KrWTU1/PeiRXzk+ef73G/KlCn8+te/5vvf/35sPey2Jp1O8+Uvf5l77rlni38fP/vSS3xxwQKmZ7PUJhKudCpJ0ihigCVpuH2SUm8sle9bwLviLmJrAqAmmeR79r6qGDvX1nLH6tVc8vTTfYY6e+65Jw8//DAXX3xx3KVu0957781f//pX3vve9/b5+g0rVnDZs88yPp2mMZUaVT1zIiBJafGE7y9ezJUvvdTnfsceeyyPPvoop556atwlb9Nxxx3HI488wmmnndbn699YuJAvLVjAtGyWdBAYYkmSNEoYYEmKw+eAD8RdRJW4Erg07iK2JgKmZrP8ac0a/mTvq9iFUcTsmhr+2trKO59+us99TjzxRB566CH23XffuMvtl+9+97t8+9vf7vO1m1au5OMvvMCUTIbsKAs1ZtfW8ssVK7hy/vw+X3/Xu97FH/7wB6ZMmRJ3qWVramri9ttv54orrujz9W8sXMjVixczs6ZmxE/oLkmSSlJxFyBp1Po2sBi4HqiMSXcqz7spzXtV0QIgGwR8395XsStGEdOzWV7s7OTtTz1FoY+eVxdccAE//elPB3yNtWvX0tbWRi6Xo1gskkqlyGazNDY2DsuwtPe///1MnjyZc889t9dr1y1bxrRslg/MnMn8zs4RH2IVo4gdamq4d80aPvzcc33u8+lPf5orr7xyQOfv6OigtbWVrq4u8vk8iUSCTCZDXV0d48ePJwiGPjr60pe+xJQpU/jQhz7U67Ur589ncibDqRMm8FJnJ4lhqEeSJMXHAEtSnG4GjgZuAGbHXUwFWQlcCPxv3IWUY3Imw5/XruVee1/FKgLGpVLkwpB3Pf00rX3MefW2t72Na665puxzvvDCCzz++OP85S9/YeHChbz44ossXLiQtWvXksvlNu5XU1NDc3Mzs2fPZocddmD27NkcddRR7LXXXsyePfj/tM855xxuv/12Xv/61/d67QsLFrBzbS2vaW5mQVfXiA01wihicibDglyOf3vmmT6HTX7+85/n4x//eFnna2lp4YknnuCBBx7gmWeeYdGiRbz44ousXLmSjo4Oop4wNJVK0dTUxLRp09hll12YMmUKhx56KHPnzmXvvfcekrZefvnl1NbW9jmE9LLnnmOHmhp2qatjWS43Yu+3JEmCIBqFk51KGpgH5s4dqlNPBa4DToi7jRXgT8BbgAVxF1Kumdksb33qKf64Zk3cpfTHtcBFW9thTCrFbfvuy5hUivZiMe56tykZBMzMZvm3Z5/llpUre71+9tlnc+ONN27zPM888ww333wzd911F/fddx/F7Wh7TU0NRx99NCeffDJveMMb2GGHHQa1zbfccgtnnnlmr+3jUilu3W8/JqbTrMrnR9x8CRGlFT/HJpOcO28ej6xf32ufj33sY1x11VVbPc/atWv53e9+x6233sqf//xnli9fvl11HXjggRx99NGce+65W5x0f3t89atf7XOVwt3q6rhpn33IRxFtxeKIGFK4Y20tlz/3HL/c9j3pBqYDq+KuWQLw2VLSUDLAklS2IQywNvgy8OHtPkv1+jLw71Adc1BHlHpf/X3dOi548sm4y+mvERVghcCONTX8YvlyruhjBbojjzyS+++/f6vnuOOOO/jBD37A7bffvl2h1ZbU19dzzjnncMkll3DEEUcM2nm/973v9dkz51Vjx/LjPfZgTaFAd1gV/6T6ZaeaGq5asIDvLFrU67WLLrqIa6+9dovHPv/881x99dX8/Oc/Z1Efxw+Gww47jIsvvpgLL7yQbDY7aOe97LLL+MY3vtFr+wVTpvCFnXfm5a6uETF01ABL1cpnS0lDaaT9UlJSdbsCOA9YG3chw+wF4DTgI1RJeAWlua8yQcCPlyyJu5RRLQKaUyle6uri832sQDd58mRuv/32LR5/zz33cPzxx3PKKadwyy23DEl4BdDe3s5PfvITjjzySM4++2weeeSRQTnve97zHt7znvf02n7/2rVct2wZUzIZwhH0QBVGEVOzWf66bl2f4dXcuXO3GF4tXLiQSy+9lH333Zcvf/nLQxZeATz44INccskl7LvvvvzgBz8YtPN+/etf5/jjj++1/fply7irpYVp2Wz1fBOVJEn9YoAlqdL8EjgcuDfuQobJ14EDgd/EXUh/RMCkdJr7W1v5fXUNHRxxkkFAYyrFFxcsYG0f817dfPPNNDc399q+cOFC3v72t3PCCSfwhz/8YVhrvummmzjooIO49NJLWTMIf3/+67/+iwMOOKDX9m8uXMizHR00p9MjolfOhqGDYRTxn32sOFhbW8vNN9/c57Ff+cpX2HffffnWt75FZ2fnsNX87LPP8s53vpNjjjmGf/zjH4Nyzl/96ldMnDix1/bPzp9PW7FIQyIxIu63JEnalAGWpEr0NHAscBkjd1jEH4FXAZcD6+Iupr8CIJtI8OOlS+MuZVSLgMnpNPe0tPCbVb3/qXz605/uc7jez372M/bee29+/OMfx1r/t771LQ488EDuvvvu7T7XTTfdRCKx6ceadYUC31q4kMZUamR84IkipmWzXL9sGU+0tfV6+ZprrmHmzJmbbHvuuec44YQTuOKKK1gb40ILf/rTnzj44IP5j//4j+0+19ixY7n++ut7bX+pq4sfLVnClEEcsihJkirHiPg8J2nE+gZwAPAdSvN8VLs8cAdwFnAc8EDcBQ3Ehrmv7m9t5Z6WlrjLGdUyQUAhivjmwoW9Xtt999258sore23/4Ac/yAUXXMC6dZWRm7700ku85jWv4fOf//x2nWfHHXfka1/7Wq/tt69axV/WrmVSJlPVQ8sioDGVYmlXF9/uY+jfaaedxnnnnbfJtltuuYX999+fe+65J+7yN/rMZz7DySefzKpV2/e7iRNPPJG3v/3tvbZfvWQJz3d0MC6VsheWJEkjjAGWpEq3CPg3YH/gu0Br3AVtTTIIqEsmSQfBKx+eHqI0Ofu+wCnAzQM7e2XY0PvqR/a+ilUURUzKZPjd6tU83kdvnJ/85Ceb/Lmrq4vXvOY1fPOb34y79D598pOf5K1vfet2nePSSy9ljz326LX9v5csIRkEpILqXp9uYjrNT5cvZ3U+v8n2VCrFD3/4w022feUrX+HMM8+ko6Mj7rJ7ufPOOznkkEN45plntus83/zmN2lqatpkW0exyDVLl9KcTo+I1QglSdL/McCSVC2eAt4P7AN8AvgnlHolJIOA2kSCZAwPp8kgIJtIMDaVYlo2y7ieFevSicTjDcnkVWEUvRo4FPgipaGRVS0CpmQy3L92LX+w91Ws0okEXWHY5zDOM888k0MPPXTjn9etW8fhhx8+KEP1htK1117LKaecsl3n+P73v99r25/WrOGvra1MqOK5sBqSSRblcly3bFmv1z7xiU8wadKkTf58xRVXxF3yVs2fP5+DDz6Yxx57bODvSUMDX/jCF3pt//ny5TzT0cEYe2FJkjSiGGBJqjYLgasoDS18TQD/nQqCF/JRRHMqxdRMhrGpFDWJBOkgGLRvcgGQCgIyiQT1ySQT0mmmZbM0p9Mkg4BnOzu5ccUKPvXii7zlX/9a9o2XXz6+NpH4xIyamvuAEfMQFQA1iQQ/tPdVrCJgQjrNn9eu5Z999L565VC6rq4ujjrqqO0KCobTHXfcsV0h1lFHHcUxxxzTa/svly8nk0hUba+cCek0v161ipbNel+NHTuWj33sYxv//KlPfYqrrroq7nLLsn79eo488kieeuqpAZ/jPe95DzvuuOMm23JhyM0rVtCcSlXt/ZYkSb2l4i5AkgYijKIwnUjcvV9Dw90/XLJkl/9avPixgxob6/dtaGCn2lpmZbPUJZNkEglSQBEoRBH5MKQQRUT0HSoFlJL9DcONUkFAsmc4YHcYko8iWvJ5Hu3qYnEux7/a23myvZ35nZ2sLxY3nKbjxc7O9Q+uW8f/23lnDmpsZG2hQGuhEEsvsUF7z4Hp2Sz32fuqIiSCgFtWruy1/fzzz2f27Nkb/3zyySfzz3/+M+5y++WOO+7gggsu6HOi7nJcddVVvSavv2P1ap5pb2dqNsu6PlZrrGTpIKC1UOCmPu73Rz7yEbI9k5Z/+9vf5nOf+1zc5fZLR0cHRx55JPPmzWPatGkDOsfHP/5xLrnkkk22/WrFCt42dSo1PT0VJUlS9QuiaKT0C5A01B6YOzfuEoBSEDUtkyEZBHx38WJ+uGRJ07pC4UVgPJSG2szIZpmSzTKnro4Z2Sz1iQRj0mmmZDI0pVKkg2BjWAVsDLQ2BFVtxSKr83lW5/N0FIusKRR4obOTBV1drOzuZmEut7USFwAHAi0AH5w5k3dPn05tMsnCri4iqMpeAQGwQ20tFzz5JPeuWRN3OdvrWuCire0wJpXitn33ZUzPsNBK0pRMsjiX44wnnuj1cD5v3jz22msvAN7xjnfwox/9KO5yB+yzn/0sn/zkJwd07KGHHspDDz20ybbLZ83ispkzeamrq6r+DU7OZLhv7VrevllPpdraWpYtW0ZTUxO///3vOfHEE+MudcD2339/HnnkEYIBhPyFQoFp06axcrOA7xtz5vCGCRNYlMtV1f0G2LG2lsufe45fLl++rV27gemM3BV7VWV8tpQ0lOyBJalqFKKIcakUM2tq+NPatXx5wQL+0toK0MgrhkS3FYs83dHB0x0dmwQtySBgSiZDczpNTSJR6l1FKZgJKYVX+Siio1iktVCgpVCgYxCCi28sXMgdLS38v5122tgba22V9cYKgRmZDH9es2YkhFdVLQKaUil+vnx5r/DqiCOO2BheXXfddVUdXkFpONyrXvWqPocEbsv73/9+Lrpo04zy9y0tXDJtGpkgIF9FD1mZIOhzxc83vvGNNDU1sXr1as4666y4y9wujz32GO9617u4+uqr+31sKpXi4osv7jUf1u9bWjh9wgSSUNUrUEqSpBLnwJJU8TZM1D6nro51xSKfnT+fNz/55IbwqmzFKGJxLscTbW38fd06/trayv2trdzX2soDra38pbWVv69bx5Pt7SzK5QYlvNrgmfZ2znziCd7zzDOsKxbZva6OumSyah6qkkBtMsn3lyyJu5RRLxkEdIUhf1q7ttdr73jHOwBYtGgRb3/72+MudVCcd955tLe39/u4M844g+bm5k22/bOtjSfa2mhMVc/v77KJBEu7u/lzH9/vPvjBDwLw5je/mXXr1sVd6nb7wQ9+wK233jqgY9/ylrf02nbf2rW81NVFbTIZd9MkSdIgMMCSVLE2BFcze1b3+82qVZz9xBN8feHCihvSVa7frV7N+fPm8Z1FiwijiNnZLBN7lnuv1B5ZITAtm+XetWvtfVUBGpJJ5nd18dhmk7fX1dVt7IXztre9jWKV/hvZ3PLly7n88sv7/z41NHDqqaf22v7QunU0JpNVs7DC2FSKJ9rbWdjVtcn2HXbYgf3224/f/OY33HnnnXGXOWje9a530dbHwgTbsvvuu3PwwQdvsq21UODRtjbGVlFgKUmStswAS1JF2TA/VOoVwdVvV6/mLf/6F+98+mmWd3fHXeJ2W5TL8dmXXuKsJ57g8uee4+H16xmfTlOXSDAtm2VWTQ3jelbPSgdB7F81QUB9Msl/L14c91snoDaRYF5bW68egq9+9atpamrirrvu4ve//33cZQ6qq6++mscff7zfx5122mm9tj28fj25MCRVoYHxK234XvjP9et7vXbxxRcD/9frbqRYsWIFV1555YCOPf3003tte3T9eoKeOQ8lSVJ181dSkmKzYUn7QhQxPp2mNpHYODyqvVjkd6tX8z/LlvHXfg4VrABbWuRwEwu6uljQ1cVNK1dyYGMj3WHIKRMmMCmdZnpNDQc2NtJWAaulTcpk+O2qVfzJ3lexiyj9u3m8jx4qG3pfve9974u7zCHxoQ99qN/B3FFHHUVDQ8MmPXrmtbWxNJejoQIn599c0PP98Ik+7veFF17IjTfeyPJtT/Jddb7+9a9z6aWXMmPGjH4dd/zxx/OJT3xik21PtLXRms+TDAIKVTTvmSRJ6s0AS1LZdqipGZTzJIKAYhSxtLubYhTRkEzyhzVrWNTVRUMyyfOdnfx57Vqe7eiIu8kDFdDPhQYf6elhMa9nrp9UELBnff2gzsM1ULXJJM9V770YUdJBQFuh0Oe/jfPPP5+HHnqI559/Pu4yh8Q999zDgw8+yGGHHVb2MZMnT2b//ffn/vvv37htZT7PS7kcczOZig+wMkHAqnye5zo7N9k+depUstnsgIZWVoNiscj/+3//j+9+97v9Ou6ggw5i4sSJm6xG+HxHB8u6u5mUyVCo8PstSZK2zgBLUtm+uXDhoJwnk0jQUSxy66pVFKKImkRipAUk2z1apRBF/HMA88BoZKtJJFjW3c38zQKNWbNmUV9fz7//+7/HXeKQ+vKXv8xNN93Ur2MOPvjgTQIsKIUaR40dC/l83E3aqvpEgmc7Oli62dDp173udfzud79j0aJFcZc4ZK655ho++9nP9pqIf2tSqRQHH3wwv/vd7zZuW18ssqCrix1raio+sJQkSVtngCWpbF9++eW4S5BGtUwiwcp8npWbBS8nnngizz33HH/84x/jLnFI3XbbbSxcuJCZM2eWfcx+++3Xa9uCri7SVTAHVjaZZEl3N+FmQ9/GjRvHbbfdFnd5Q6qrq4vrrrtu40qL5dpvv/02CbAAFuZy1CSTFR9YSpKkrTPAkqTB50QrGhKpIGBZHwsZ7L777vz617/ernMfccQRHHbYYdTW1rJmzRruu+8+nnjiibibvIliscgvf/lLPvzhD5d9zC677NJr29LubjqLRZI9w5krVQQszeU22RYEAc8++yx/+ctfBnzeRCLB8ccfzwEHHEA6nWbZsmXce++9vPDCC3E3eRPXXnttvwOs3Xffvde2pd3dFKKIAL85S5JUzQywJEmqEskgYNlmgQaUgp3f/OY3AzrnmWeeyac+9Sn233//Xq/dc889fPrTn96usGSw3XLLLf0KsKZNm0ZNTQ1dXV0bt63s7mZ9sUiqggOsACiEISs2CyzHjRvH888/z6pVqwZ03ksuuYSPfvSj7Lzzzptsj6KIW2+9lSuuuKJigqzHHnuMZ599ljlz5pR9TF+981bkcuTCcOP8i5IkqTol4i5AkiSVJwGs3Wxlykwmw4svvsgjjzzS7/NdddVV3HTTTX2GV1Ba1e2BBx7gggsuiLvpG/3tb39jYT/m4xs/fjwTJkzYZNvaQoGuMKz4D0EhsGaz+93Z2cnixYsHdL7rr7+eq6++uld4BaWeXWeccQaPPPJIvybKH2r9DWYnT57ca9uaQsEVCCVJGgEq/bObJFUrn5Y06BJBwPrNAo2amhqef/551vesZFmud73rXXzsYx8ra9+f/vSnFRNqFItFHnjggbL3b2pqoqmpaZNtbcXixh45lSoAwijqdb87OztZu3Ztv8/3ta99jTe96U1lvV/33nsv06dPj/stAOg1Af+2NDc3U7PZirltxSLFniGEkiSpehlgSdLQ8FlJgy4AcmG4ybbOzk6eeuqpfp1n0qRJfOtb3+rXMT/60Y/ibv5Gf//73/u1fzab3eTP3WFYNYFGbhB6Du2///5cdtllZe+fzWb59re/HXfTAXjkkUeI+vEe1NXV9brfuTAkLPsMkiSpUhlgSdLQsAeWBl0AbL6OWj6fZ+nSpf06z4UXXkgmk+nXMXvuuSfHHHNM3G8BQL8Du1Rq0yk/u6OoKgKsCMiH2x+9vP/97+/3MWeccQazZs2K+y1gwYIF/RoymkwmSSQ2/XjbHYZEVXC/JUnS1hlgSZJURQbjB/fRRx89oONOOOGEuJsPwMsvv9yvXjnhZiFQguroIhnAoAxzPPLIIwd03ED/ngy25557rux9oyjq9XcjEQQQBP5WQZKkKmeAJUmDL6A6no9VZSIgPQiBRl8TXZdj6tSpcb8FACxfvpyWlpay9y9sPvF9IkEykaiKYWXbe79TqdSA7/eUKVPibj5Avyatz+fzFIvFTbZlEgm/IUuSNAIYYEmSVCXCKKIumdzu83R2dg7ouI6OjrjfAgDWrFlDa2trWfsWCoVe7a1NJEhXQY+cIAioTWzfR7UwDAd8vwd63GBbuXJl2fuuX7++z/u9/f9qJElS3AywJGnwVUPHDlWhCGjabD6ngZg3b96Ajnv88cfjfguA0kqE5YYra9as6dVbqzGZJBsEhIMwQfpQiSh9SBuznfc7DEP+9a9/DejYxx57LO63AYC2tray9121alWvHndNySSpKggsJUnS1hlgSdLgc7SKhkQxihg/CAHWL37xi34fE4Yht9xyS9xvwf+9F5sNE9uSlStX9gqwmtNpapNJyjtDfBJBwPh0ervP8/Of/7zfxyxatIgHHngg7rcAKA0LLFdfCxqMz2RIJRIGWJIkVTkDLEmSqkQRmJLNbvd57r//fu68885+HXPllVeyevXquN+CjRJlDq17+eWXe03iPimToSmVojgIK/wNlQhIBQFT+rlaZF9+8pOf8OKLL/brmMsvv7xfE+UPpWQ/hs321c4pmQw1QVAx7ZEkSQNjgCVJUpXIRxGTM5lBmcj9TW96Ey+99FJZ+95555185jOfibv5GwVBQLbMIO+pp57qtW1GNksqCCp+rG8YRUwdhMAyDENOPvnksoddfve73+XGG2+Mu/kb1dfXl71vX8Mlp2UyRGAPLEmSqpwBliRJVSJXLDI5nWZmTc12n2vNmjUceuih3HXXXVvd75prruHkk0+Ou+mbGDNmDE1NTWXt+8gjj/TatmNtLZ0V3Ptqg45ikWnZ7HZP5A7w7LPPcuihh/L3v/99q/t95jOf4f3vf3/cTd/E+PHjy9734Ycf7rVtZk0NHVVwvyVJ0tZt/0QakhS/AOed0ijQFYZMyWTYsbaWFwdhhbgVK1bw2te+lte//vWceeaZHHHEEdTW1rJmzRruvfdebrjhBu6///64m93LpEmTygo1oijqFdgkgF1qa+kqcw6tOHWEITOzWWbX1PD0IKwA+cQTT3DIIYdwwQUXcMYZZ3DggQeSTqdZunQpf/jDH/jZz37GP//5z7ib3cu0adPK2m/VqlW9FhqY2vP+dVTB/ZYkSVtngCVpJHB0iEaFEEgGAXvV13PPZhOTb4/bb7+d22+/Pe7mlW3mzJmkypjM/sknn+SZZ57ZZNvOtbXMyGbpqoIeORsm7d+jvn5QAqwNrr/+eq6//vq4m1e2XXbZpaz97rvvPrq7uzfZtkddHRPSadZstjKhJEmqPg4hlCSpSgRALgzZr6Eh7lJiNWfOnLL2u/vuu3tt26+xkUmZDLkqCLAiIJ1IsO8ovt+TJk1ixx13LGvf//3f/+21bb/GRuqTSYpO4C5JUtUzwJIkqYq0FYvsWV/P9EGY3LtazZ07t6z9br755l7bDmlqohBFFT+B+wZtxSL7NzYOysT91eiAAw4oq7ddoVDg1ltv7bX9oMZG2qsgrJQkSdtmgCVJUhXp7JkH67AxY+IuJTZHHHHENvd59tlne83f1ZRKMbexkdZCoWomzVtfLDKntnbU9ror515DqffV8uXLN9m2a20te9XXs87hg5IkjQgGWJI0+Krl2VhVqhBFHD12bNxlxGLvvfdm99133+Z+P/7xj3ttO2LMGHaqraW9iib0LkYRjckkxzY3x11KLE466aSy9vv+97/fa9uxzc1MTKfJ2wNLkqQRwQBLkgafk61oSK0tFDisqYmZo3AY4WmnnbbNfbq6uvjRj37Ua/trm5sJoWqGD26wrljkmHHjyCZG18e2HXfckUMOOWSb+82fP59f//rXvbafMG4c64vFqrvfkiSpb6Prk5AkDQ9XRdSQ6gxDpmSzvG7ChLhLGXbnn3/+Nve55pprWLly5SbbZmSzvHrsWFry+arrItlaKLBXXR3HjhsXdynD6k1velNZ+33xi1/ste3QpiYOamxkbRUNF5UkSVtngCVJgy/AYYQaQglKocbrJ0wYVb1yjjrqKPbZZ5+t7hOGIVdeeWWv7edMmsSkTIbOKhxOFlIaSnjOpElxlzKs3v72t29zn0WLFvXZ2+68yZNJJhIUXH1QkqQRY/R86pUkaQRZWyiwV0MDp44fH3cpw+bDH/7wNve56qqrWLFixSbbmlIpzpg0idVV2PsKSmn4ynyeo8eO5cDGxrjLGRann346O+200zb3u+KKKyhsNkn7TrW1nDR+PCu6u6vyfkuSpL4ZYEmSVIUCoL1Y5K3TppEMRv5j+p577snrX//6re6zcuVKPvOZz/TafsHkyexUU8O6Kpq8fXP5KCIVBLxr2rS4SxkW//mf/7nNff7617/yi1/8otf290yfTmMySa4Ke9tJkqQtM8CSJKlKrc7n2b+hgTeOgqFlX/3qV7e5z1ve8hby+fwm25pTKS6cOpVV+XxVf+gJgGXd3Zw0fjyHNjXFXc6QOuuss9hvv/22ud/b3va2Xtv2qK/n9IkTWWLvK0mSRpxq/iwnSdKot7ZQ4L0zZtCYTMZdypA54YQTOOmkk7a6z7XXXssdd9zRa/v7Z85kZjbLus2GmVWj7iiiAHxk9uy4SxkyqVSKb37zm9vc70Mf+hDPPPNMr+1XzJpFOgjosveVJEkjjgGWJElVKgDWFArsUFPDh2bNirucIZFMJrnmmmu2us/zzz/f54TfBzQ28qbJk1may5EYAcMsE8DSXI4jxozhoqlT4y5nSHzpS19i+vTpW93njjvu4Gtf+1qv7adNmMBrmptZnMv5AVeSpBHIn++SNPiq/0lZVSMAlnR3c9HUqRw2AoeW/fd//zczZ87c4uu5XI6TTz6ZcLMeN8kg4JM77EByhPXGiYAV+TwfnjWL6dls3OUMqmOOOYbLLrtsq/ssWLCAs846q9f28ek0H99hB9YWClTvTGeSJGlrDLAkafC5bruGTQB0hSH5KOKqnXemYQQNJbzgggt4xzvesdV9Xv/61/P888/32v7BmTM5pKmJZd3dI6L31QYB0JrP05RM8sVddom7nEEzceJEbrjhhq3u09bWxmtf+1o6Ozt7vfaZHXdkWjZLS5XPdSZJkrbMn/GSJFW5BLC8u5s5dXVcudNOcZczKA455BD+53/+Z6v7vPnNb+auu+7qtf2YceN47/TpLOvujrsZQyIRBCzK5Thu3Dg+MGNG3OUMiltvvZWJEydu8fViscgpp5zS57xXF02ZwhsmTmRRV9eICislSdKmDLAkSRoBAmBhVxfnTZ7M26t8fqQ5c+Zw5513EmwljHjrW9/K9ddf32v7rJoavrzzzuTCkM4wHLHjeSNgcS7HB2fN4oTm5rjL2S433XQTRxxxxBZfz+VyvPa1r+W+++7r9drBTU18bIcdWJHPM3IGikqSpL4YYEmSNAIEQAFYlsvxqR135DVVGmrsuuuu/PGPf2TcuHF9vh6GIeeeey7XXnttr9fqk0m+t9tuNKfTrBrhQ8kCoLNYpL1Y5Gu77so+DQ1xlzQgP/vZzzjzzDO3+HpLSwvHHXcc99xzT6/Xdqqt5Ttz5hABbYXCiA0rJUlSyUj+bCdJ0qgSAO3FIm3FIt+eM4eDq2xS94MPPpgHHniAadOm9fn6smXLOPbYY7nxxht7vZYIAv57t93Yt6GBxSNs3qstSQQBLfk82Z62z6ypibuksqVSKW699VbOP//8Le4zb948Dj30UP7yl7/0eq05nea/d9uN8ek0q0bJ/ZYkabQzwJIkaQTZEGqEwA933539q6Rnzhvf+EYefPDBLc6DdO+99zJ37lz+/Oc/93otAL6/224c39zMS11do+rDTTIIWNbdzeRMhh/vsQdTq2Blwh122IH77ruPN7zhDVvc52c/+xkHHHBAnxP0N6VS/GSPPdi1ro4lhleSJI0ao+kzniQNJ1ciVGySQcCK7m6yiQQ/2XNPDh0zJu6SturrX/86v/jFL0gk+v5Y8qlPfYpjjz2WxYsX93otnUjwoz324NQJE3ixj9XpRoNkELA4l2On2lqu33NPZlVwT6zTTz+dRx99lMMOO6zP19etW8fFF1/MBRdcQKFQ6PX6xHSan+21F/s3NrIwl/ODrCRJo4g/9yVp8BleKXbJIGB5T4j14z324HXjx8ddUi/HHHMMDz/8MB/84Af7fP2Pf/wjBx98MJ/73Of6fH1CT5hx0vjxvNDZSQSjdh6kZBCwsKuL2TU13LD33uzf2Bh3SZuYNGkS1157Lbfccgtjx47tc5+bbrqJfffdl2uuuabP13etq+PGffZhn4YGXurs9EOsJEmjjD/7JUkaoTb0xCpGEd/ebTfeM3163CUBpYnar7vuOv74xz9y4IEH9nr9scce47zzzuO4447jH//4R5/n2KehgRv23ptDm5pGfXi1wYaeWM09wd7pWxiOOdze+973Mm/ePC666KI+X//Tn/7Ea1/7Ws4++2wWLFjQ5z7HNzdz4957M7OmhgWdnQ4blCRpFErFXYAkjUABPkurQiSDgDX5PN1RxCd33JHd6ur4j/nzae1jeNZQO+CAA3j3u9/NxRdfTDKZ7PX6X//6V77zne/ws5/9bKvnOW/yZD61ww5kEwnmd3aSNMzYKBEELO0Jsb41Zw5719fzuZdeGvY6mpqauOiii3jve9/LHnvs0ec+//u//8t3vvMdfvOb32z1XJfNnMmls2bRUSyyqKvL+y1J0ihlgCVJ0giXCAI6ikUWdHVx9uTJ7FVfz+cXLODeNWuG/NozZszgNa95Deeccw4nnXRSr9eXLl3Kr3/9a375y1/yhz/8YavnmphO8/EdduCsSZNYk8+zKpczzOjDhtCyMwx534wZ7NfYyOfmz+fxtrYhvW59fT2HHnoob3zjGznzzDOZMGFCr33mz5/PTTfdxA033MDf//73rZ5vTl0dn9xhB05obmZJLkdHsej9liRpFDPAkiRpFAiAYhTxYmcns2pq+OHuu/OL5cv5+sKFrM7n+3WuDZOth2FIIpEgm83S1NTElClTmDp1KrNmzeJVr3oVBxxwAHvvvfcmx65du5YXXniBe++9l/vuu4/f//73tLe3b/OaZ02axL/NmMFONTUszuUoRJFhxlYkgoBcGPJ8ZycHNTby07324kdLlvDfixfTFYb9O1ciQRiGBEFAJpOhrq6OCRMmMGPGDCZNmsTBBx/MwQcfzKtf/epex65YsYLnn3+eu+++m7/85S/cfffdRNHWpwlMBQFvnzqVd02fTnM6zYs9Q0QdNihJ0uhmgCVJ0iixYWzr8nyemkSCt0ybxlFjx/KTZcv45fLldBSL5Z2nJ0hIpVLssssu7L777syZM4e9996bOXPm0NDQQH19PW1tbdx888288MILPP300yxatIgnnniCpUuXll3zEWPG8M5p0zhm3Djai0Ve6ll5zihj2za8R4u6umhIpfjwrFmc0NzMNUuWcMvKlf1ebaK2tpY99tiDPffck7333psDDjiAyZMn09jYSDqd5v7772f+/PnMnz+fF154gZdffpl//vOftLS0lH2NU8aP5x3TpnFwUxOr83kWdnWRCALvtyRJItjWb8EkaYOgcn/7PR14AhgXdyE9FgAHAuU/tWm4XQtctLUdxqRS3LbvvoxJpWgvM9ipJlHP17hUiqZUiifa2vjl8uXcvmpV2fNjBUFAKpUimUwShiHd3d2DVt9hY8Zw/uTJnNjcTLZnRcUiBlcDteHT3oR0mkwiwd9aW/nF8uXcuXo13WV+FtxwvwEKhcI2e1KVKwBeM348502axJFjxxJGEavy+VE9Mf+OtbVc/txz/HL58m3t2k3pZ+CquGuWgEH7viBJfbEHliRJo9CG3lhrCwVaCwV2qq3lMzvtxJsmT+bOlhZ+t3o1z3V0bPUcURSRz+fJ93MI4paMSaU4Ztw4Xjd+PEeOGUNdMsmK7m5WRZG9rrbThvduVT5PAjioqYmDm5q4cOpU7ly9mrtaWljY1bXVc2y434NlaibD8c3NnDJ+PAc1NZEAVubzFKPIlTAkSVIvBliSJI1iG0KCDfNgzaip4bKZM7lgyhQebG3l/rVreXj9el7o7ByS649JpdinoYHjxo3j8DFj2LW2lqinnpZCgQBIxP0mjSABpd5YK7q7SQB71dczt7GRt02dyoOtrfxxzRoea2tjcS43JNefnMmwX8/9PmzMGGbX1JALQ1a/ooedwZUkSeqLAZYkDT6fv1R1NvylbS0UWFsoUJNIcMr48Zw6YQIrurt5sr2deW1tPNHezoKuLhZ0dpY99OyVJmcy7Fxby861tRzQ2Mge9fXsWFNDJpGgrVhkWXf3xqFj/kMaOhuCrJaeoXr1ySRnTJrEGZMmsbiri3+1t/NYWxtPd3Qwv7OThbkc4QDu98yaGnasqWG3ujr277nfs7JZgiBgXaHAolxu4332fkuSpK0xwJKkwecEEKpqAZALw41hUm0iwavGjOG4ceMIo4jl+XxpaF93N4u7u1mdz7OuUKCjWCQfRYRAOgjIJhI0JZOMSaWYms0yOZNhYjrNlEyGhmSSXBTRFYa05PObzG9lkDG8AqCjWKS9WCQAGlMpjm1u5qTx4+mOIpblcqzM51nZ3c2S7m5a8nnWFYt09txvKN3vmkSCplSKcakU07JZJqbTTMxkmJLJUJNI0B1FdBhSSpKkATLAkiRJWxQAXWFIVxgSURrOV5NIsEttLbvX1ZEKApI9q8QlehZ62NC7JwLCnkCrGEUUoojuMGR9sbhxeOArr6N4bbgH7T1hVgQkgYZUivHpNHvX15Psud8JSpO6bzhmk/sdRRQo3fNcGNJSKGyc12rza0mSJJXLAEuSJJVlQzDVGYZ0huF2n0uVLQBCSr2zOgbhXJIkSdvDeVElaWg4jFCSJEmSBokBliQNPqd2kSRJkqRBZIAlSYNvw3QwkiRJkqRBYIAlSZIkSZKkimaAJUlDwyGEkiRJkjRIDLAkafAZXkmSJEnSIDLAkqTB5/xXkiRJkjSIDLAkSZIkSZJU0QywJEmSJEmSVNEMsCRJkiRJklTRDLAkafA5ibskSZIkDSIDLEmSJEmSJFU0AyxJGnyuQihJkiRJg8gAS5IkSZIkSRXNAEuSJEmSJEkVzQBLkiRJkiRJFc0AS5IGn6sQSpIkSdIgMsCSpMHnJO6SJEmSNIgMsCRJkiRJklTRDLAkSZIkSZJU0QywJEmSJEmSVNEMsCRJkiRJklTRDLAkSZIkSZJU0QywJGnwBXEXIEmSJEkjiQGWJA2+KO4CJEmSJGkkScVdgCRJUn8FQDqRIBUEBEAYReSjiEJkfrxBAkgGpQ6hRUrvkSRJUrUywJIkSVUhohRc1SeT1CYStBeLtOTzdEcRDYkE49JpahIJ1hWLdBSLo24sb0QptKpLJqlPJgmjiK4wJAJqesK+tmKR9mJx43spSZJULQywJElSxYuAVBAwJpViWS7HDS0tPLhuHQtzOXLFInXJJLvU1XHEmDEcO24c07JZ1uTzdIbhiA9qNgRXY1MpahIJFnR1ccfq1TzZ3s6yXI4iMCGVYu+GBo4eO5bpNTWs6Qn+Rvp7I0mSRg4DLEkafD4TSoMoAtJBQFMqxb1r1vCthQt5uqOj137PdHTw21Wr2K2ujjdNmcLrxo9nWibDmkKBrjCMuxlD8r5sCPUyQcBT7e3ctmoVd6xezeJcrtf+v1q5ktk1Nbxj2jTOmjSJjmJxVAR8kiRpZDDAkqTB50Qz0iBKAE3JJHeuXs3HX3hhm2HUMx0d/MeLL3LLihWcN3kyx44bx9RMhvU9w+dCqj9lziYSjEmlKEYRT7S18evVq/n1ypWsLRS2etyCri4+9eKLLOnu5v3Tp1OMIntiSZKkqmCAJUmSKlpjMsnTHR18/qWX+tWT6rG2Nh5ra2OfhgZeP2ECx40bx+yaGvJRxPpike4q65WVDALqk0kakkla8nl+39LC71av5p6WFjr72ZbvLVrE9EyGsydNYlU+H3fTJEmStskAS5IkVaxkEEAQcMOKFaweYNDyRFsbT7S1cc2SJZzY3MyJzc3s1dDAhGyWjmKRjjAk3zPZeSUJetpfm0jQkEySiyJe7OzkvrVruaulhUfXr9+u839/yRIOHTOGCek07cVi3M2VJEnaKgMsSZJUsWoSCZbkcjywdu12n2tpdzfXLVvGT5ct46CmJo4aM4Yjxo5ll9paJmazdIUhnWFIdxhSjKJhD7QCIBEEZIKAmkSC2mSSjmKRRbkcj6xfz/1r13L/2rWsG6SwaWFXF39pbeXcSZMMsCRJUsUzwJIkSRUrHQQsyuVY2t09aOcMgb+vW8ff163ju4sXc2BjIwf1fO1UW8vkTIZsIkEuDOmOIrrDkEIUUYxKkdZgBFsbwqpUEJAOAjKJBDWJBMUoYlU+z3Pt7Ty6fj2Prl/P39evZ80QDfN7sq2NwsSJJIKAMKq0PmiSJEn/xwBLkgaf8yFLgyQA2otFCkMUruTCkL+2tvLX1lYAZmaz7NvQwK719exRV8eMbJYJ6TTjUikyiQQhUIii0lcYElIKtKI+emxt+EYQBAFJSsMBNwRWiSCgGEWsKxZZkc+zJJfj6fZ2nu3o4F/t7TzX2bkxMBtK63rmAktQCvYkSZIqlQGWJA0+uzFIgyQC6pJJkj2Bz1BbmMuxMJeD1asBaEgmmV1Tw+yaGqZls0zOZJiSyTAhnaYpnaYukSAdBCSDgASlXlWvDLSKPT23OsOQ1mKRlnyeld3dLO3pVbYwl2N+Z+eA5/faXqmeMA17X0mSpApngCVJkipWPoqY3hMcLcnlhv36bcUiT7a382R7+ybbE0FAY8+KgDU9IVaqJ8iKgDCKCIF8GJKLItqLRdYVi+QrbOXDGdks2USCDufAkiRJFc4AS5IkVaxcGDIzm+WwpiZuXrky7nI2CqOI1kKB1kIh7lIGLAAOaWoq9RiLuxhJkqRtSMRdgCRJ0pYUoogAOHfyZLIJP7YMphObm5nb2EhbFYdwkiRp9PCToCRJqmjrCgX2b2jgilmz4i5lxJiUyfDBmTNJJBJ0O/+VJEmqAgZYkjQ0fCKUBkmRUoh1wZQpfGz2bJf53E6za2r4zpw57FJXx5p83vdTkiRVBefAkjQSBFBxz2CVVo9UtQIgF0VQLPL2adPYpa6Oby9cyGNtbXGXVnXeMHEi/zZjBrNqaljR3R13OZIkSWUzwJI0EjgHsTTCBZQmdF/Z3c1RY8eyT309t65axU+XLuXlGFYnrDbHjBvHBZMnc9TYsRSiiOXd3RWZ/EuSJG2JAZYkSaoKARACy7u7qUskuGTaNE5qbuaWVav41fLlLDTI2kQyCDi+uZmzJ07kiDFjyCQStOTz5HsmxpckSaomBliSRgI7EkijSAB0hiGLcjmaUik+MGMGZ06cyB2rV3PrypX8q7097hJjNTGd5jXjx3PK+PEc0NhIKghYk8+zplDwm6UkSapaBliSRgKHEEqjUACsLxZZXyzSkExyybRpnDlxIvetXcsdq1fz57Vr6QrDuMscNgc0NvKa5maOGzeOnWtrKUQRawoFCj09rgyuJElSNTPAkiRJVWtDKNNeLNJWLFKbSPD6CRM4ZcIEnmxr4961a/nDmjXMG6ETvu9QU8Mx48ZxzLhx7N/QwJhUivXFIsu7uwmxe6okSRo5DLAkSdKIEABdYciS7m7SQcDu9fUc2NjIW6ZO5Z/r1/PXdev4S2srT7a1VXWXzdk1NRw2ZgyvGjOGgxobmZrNko8iWgsFFr9iHjCDK0mSNJIYYEmSpBElAApRxOp8nhagJpHgyLFjOXbcOFoKBZ7p6ODhdev4x/r1zGtrY1U+H3fJW1WXSLB7fT0HNTUxt7GRferrmZLNArC2UGBJLrext5UkSdJIZYAlSUOjmjt4SCPChkCnKwzp7O4mAWQSCQ5oaOCIMWNoLxZZksvxdEcH/2pr46mODp7t6GBpdzdhFN8/4YmZDDvV1LBXfT271deze10ds2tqGJtKUYgi1hUKLMvlKL6ijYZXkiRppDPAkqTB57QzUoUJKKXKuTAkF4aQz5MKAiak05zU3Myp48fTViyyOp9nUS7H/M5OFuZyLOzqYnEux4rubtYWi3QWi4NSTyaRoDGZZEI6zcyaGmZks8ysqWHHmhpm19QwIZ2mKVX6mNZWLNIZhizO5TZJxv0mI0mSRhMDLEkafPa+kqpAIYpo65n8PQCSQUBjKsUBmQyHjxkDlHpvtReLtBYKrCkUaMnnaS0UNn6tKxRYXyzSHYbko4gQiKKIRBCQCgKyiQT1ySRNySRjUimaUinGpFKMS6UYl04zNpWiMZmkJpEgEQR0hyGdYUhXGNK2WWAlSZI0mhlgSZKkUS+iFGgVikU6enpZBUAiCEgGAc3pNJMzGVI9wVSi55hiFFEEwigijKKNgVMQBP93PKVwLBEERFFEMYrI93xtCNHWFQqEcb8JkiRJFcwAS5IkqQ8bA6ooonuz1zbOPdUTVAVbOUdEqVfWhj9LkiSp/wywJEmS+mlDEBXFONm7JEnSaJKIuwBJGqF8qpUkSZKkQWKAJUlDwwXCJEmSJGmQGGBJkiRJkiSpohlgSZIkSZIkqaIZYEmSJEmSJKmiGWBJkiRJkiSpohlgSZIkSZIkqaIZYEnS4HMFQkmSJEkaRAZYkiRJkiRJqmgGWJI0+KK4C5AkSZKkkcQAS5IkSZIkSRXNAEuSJEmSJEkVzQBLkiRJkiRJFc0AS5IkSZIkSRXNAEuSBl8QdwGSJEmSNJIYYEnS4HMVQkmSJEkaRAZYkiRJkiRJqmgGWJI0+BxCKEmSJEmDyABLkiRJkiRJFc0AS5IGn3NgSZIkSdIgMsCSJEmSJElSRTPAkiRJkiRJUkUzwJKkwRcBYdxFSJIkSdJIYYAlSYMvAXTEXYQkSZIkjRQGWJI0+KYCx8RdhCRJkiSNFAZYkjT40sBPgIlxFyJJkiRJI4EBliQNjanAr+IuQpIkSZJGAgMsSRo6rwa+E3cRkiRJklTtDLAkaWi9D3hL3EVIkiRJUjUzwJKkofcT4MC4i5AkSZKkamWAJUnD4zfAuLiLkCRJkqRqZIAlScPDSd0lSZIkaYAMsCRp+BwHfD3uIiRJkiSp2hhgSRoJgp6vavBBnNRdkiRJkvrFAEvSSBD1fFWLHwNz4y5CkiRJkqqFAZYkDb8AuAlojrsQSZIkSaoGBliSFI9ZwC/jLkKSJEmSqoEBliTF5wTgq3EXIUmSJEmVzgBLkuJ1OXBB3EVIkiRJUiUzwJKk+F0L7B93EZIkSZJUqQywJCl+SeB2oCHuQiRJkiSpEhlgSVJlmAncGHcRkiRJklSJDLAkqXKcBHwh7iIkSZIkqdIYYElSZfkocG7cRUiSJElSJTHAkqTKcz2wV9xFjHZBz5ckDbd+fP/xW5UkadQwwJI0EgSMrO9nKUqTujfGXcgIts2/L1HPTlHclUoaVTZ8zykzlQp7viRJGvFG0gOfpNGryMj7DfROwM/jLmIE69jWDm2FAivyeeoTCUMsScMmHQR0Fou83NVVzu7tQGfcNUuSNBwMsCSNBKuBJXEXMQReB1wVdxEj1MJt7VAEfr1qFRMzGVJBYIglaciFUcSMbJbH29p4aN26cg5ZShmBvCRJI0Eq7gIkaRB0A9cxMsOejwGPAL+Ku5AR5vFydrp26VLmNjVx/uTJrOzuZn2xSMTI6+4nKT4bwvFMEDAlk2FxLsd/zJ9PPiorNn867volSRouQVTeD0dJIggq+rE9A/wFOCjuQoZADpgLzIu7kBFkHKVeWPXl7Pyu6dM5dcIEJqXTBEFA6M9OSYMkCAISQHuxyGNtbXxz4ULmd5Y9KvDfgO/E3QZpA58tJQ0lAyxJZavwAAtgJvAkI3Py8xeAvYGyJkVRWW4Ezi5353QQMCWbJcCJ3SUNng3LCLYVi6zO5/t7+FRgWdxtkDbw2VLSUDLAklS2KgiwAI4Hfh93EUPkduANcRcxghwJ3B93EZI0QD8FLoy7COmVfLaUNJScxF3SSHMP8OG4ixgirwf+M+4iRpAHgLvjLkKSBugTcRcgSdJwsgeWpLJVSQ+sDX4GnB93EUPkNOA3cRcxQsyiNDzTRU0kVZMrgK/EXYS0OZ8tJQ0lAyxJZauyACsJPEZp3qiRpqOnXfPjLmSEOJvSfFiSVA0cTq6K5bOlpKHkEEJJI1UROAVYF3chQ6AOuA17DQ2WX1FayUuSKt29wJlxFyFJUhwMsCSNZAuB8+IuYojsA/xP3EWMIN+hNBlyv5cAk6Rh8j/AcZR+QSNJ0qhjgCVppLsD+FjcRQyR84CPx13ECPJTSsHgr+MuRJJeYSlwMXAR4PgsSdKo5RxYkspWZXNgbe7njNzeWE7qPvhOAd4JvBaoibsYSaPS45R+dv0QWB13MVI5fLaUNJQMsCSVrcoDrCzwD0bupO77A8/FXcgItCtwIDCX0oqFDXEXNArVA0fHXYQA+DuwMu4iRrA8sAL4J/Ao8MBwXTgIAoIgIAzDuN8DVTmfLSUNJQMsSWWr8gALYBfgEaAx7kKGwJOUQqxC3IVIg2wssCbuIgTA4cCDcRehwZdIJAiCgGLR6bW0fXy2lDSUnANL0mjyPHB+3EUMkb2AX8RdxHDZ0FtAo8LEuAvQRuPiLkCSJI1eBliSRpvfMnInPj8L+FTcRUiDzKSycngvJElSbAywJI1G/w+4Ke4ihshngFPjLkKSJEmSBpMBlqTR6k3A03EXMUR+SWm+L0mSJEkaEQywJI1W3cBpQFfchQyBOuB2IB13IZIkSZI0GAywJI1mzwPnxV3EENkDuC7uIiRJkiRpMBhgSRrtbgM+G3cRQ+Q84ENxFyFJkiRJ28sAS5Lg08Dv4i5iiHwFOC7uIiRJkiRpexhgSVLJuZSGFI5ENwAz4i5CkiRJkgbKAEuSStqBM4Fi3IUMgfHAjXEXIUmSJEkDZYAlSf/nCeDCuIsYIocBV8ddhCRJkiQNhAGWJG3q58Dn4y5iiFwCvDfuIiRJkiSpvwywJKm3TwK/jbuIIfJd4NVxFyFJkiRJ/WGAJUl9eyPwQtxFDJGbgUlxFyGV6bm4C9BGC+IuQJIkjV6puAuQpArVDrwOeBzIxl3MIBtPqYfZwXEXUkHqgVmUVmscD4yhdN+TcRcmJsZdgDa6FHgq7iJGqRDoBtqAFmApMB9YE3dhkiQNlyCKorhrkFQlgiCIu4Q4nM3IXcHvOuAtcRcxEBv+Lm7Hz7DdgeOBvSgFeTsD4+JulyT1w3pgCfAw8E/gAeAhSkFXvyQSCYIgoFgciQvxajj5bClpKBlgSSrbKA2wAD5LaV6skeiDwDfjLqK/BhhgHQacCZxCKbiSpJFmKfA7Sr1sfwPkyznIAEuDxWdLSUPJAEtS2UZxgAWlB4HXxV3EEDkO+GPcRfRHPwKseuBtwIXAIXHXLUnDaAGllXWvYxtDPw2wNFh8tpQ0lAywJJVtlAdYdcATwE5xFzIE1lPqkbQw7kLKVUaANQZ4P/A+YGrc9UpSzH4KfBV4rK8XDbA0WHy2lDSUDLAklW2UB1gA+1CaayQddyFD4O/AoUBV/FDYSoAVAB8APorBlSRt7r+A/wRWvnKjAZYGi8+WkoZSIu4CJKmKPEGVTnpehoOBH8ZdxHY6gdKqkd/A8EqS+vJe4ElKPVQlSaoqBliS1D8/pzQMYyR6O6Uhd9UmCXwRuJtSLzlJ0pZNBL5NabL3mXEXI0lSuRxCKKlsDiHcxL3A0XEXMQQi4Ejgr3EXsjWvGEK4I3A9cHjcNUlSFWoBLk4kErc6hFCDwWdLSUPJHliSNDBnA0viLmIIBMCvKP2GvtK9htKExIZXkjQwzcAtlOYNlCSpotkDS1LZ7IHVy6HAg3EXMUTuBY6Nu4iteAvwk8E4UX19PXvssQczZsxgxowZTJ48mTFjxlBTU0MymfS3yZJiFQQBYRjS3d3N+vXrWbVqFYsXL2bRokU8++yzLF++fLCu819RFFXjMHJVEH9mShpKBliSymaA1ad3AD+Iu4gh8k3gg3EX0Yf3UFpJa8CmTp3KYYcdxpFHHsmcOXOYPn06TU1NFItFisUiURT5IVxSRQmCgCAISCQSpFIpurq6WLZsGfPnz+dvf/sbDz74IE8++eT2XuZ64M1xt1XVy5+dkoaSAZakshlgbdF3Ka3sNBK9Fbg27iJe4RLg6oEefMghh3DGGWdw+OGHM3PmTLq7u+no6KCjo4N8Pu/fcUlVIYoikskktbW11NXVUVdXR0tLCw8//DC33nord9xxx/ac3hBLA+azpaShZIAlqWw+3G/Vn4Gj4i5iiMwFHo67COAM4OYBNWDuXN7+9rdz9NFHU1NTw+rVq2lvbyeKIv9eS6p6URSRzWYZP3486XSahx9+mOuuu47f/OY3Az3lt4BL426Xqo/PlpKGkgGWpLL5oL9VY4GngClxFzIElgJ7AK0x1rA38Dj9XHxkzJgxXH755Zx99tlks1mWLVtGLpcjkXANE0kjTxRFJBIJJk6cSG1tLX/4wx/4xje+wbx58wZyukspBVlS2Xy2lDSUDLAklc0Aa5vmAg9RWslvpLmX+CZ1bwCeBab256DDDz+cK6+8kt12243FixfT2dlpcCVpVNgwxHDatGl0dHTwjW98gx//+Mf9Pk8QBK+Ooui+uNuj6uGzpaShZIAlqWwGWGUZtNXxKtC3gQ/EcN3bgdP6c8C73/1uPvCBDxCGIcuXL984+bEkjSZhGNLU1MTEiRO57bbb+NjHPkZHR0fZxwdBsCaKotnA+rjbourgs6WkoWSAJalsBgBl+xpwWdxFDJG3MbwBXb9Xefz85z/Pm9/8ZpYuXUp7e7u9riSNalEUkUqlmD17No888gjve9/7WLJkSX9OcQtwZtztUHXw2VLSUDLAklQ2A6x+uQc4Lu4ihsihlIZKDrWpwItATbkHfOMb3+D000/n5ZdfplAo+HdWkiiFClEUMXv2bF566SUuvvhiFixY0J9TnMUAF9HQ6OKzpaShZIAlqWyGAf0ygdLKfbPiLmQILAX2A1YO8XVuAM4pd+evfvWrnHXWWbz00kuEYejfV0naTBiGzJw5kwULFnDhhReybNmycg9dCcwAuuNugyqbz5aShpLjKiRpaKyi9BvrkWgqcOMQX+Mw+hFeffSjH+Xss89mwYIFhleStAWJRIKFCxey00478a1vfYtsNlvuoROBT8ZdvyRpdDPAkqSh8w/gkriLGCJHM7TLq3+53B1PP/103v3ud7Nw4UKKxaLhlSRtRSKRYMGCBRxyyCFceeWV/Tn0I8D4uOuXJI1eDiGUVDaDgQH7HvDuuIsYIhcCP33Fn3cF9gAmATsC04BxPV/1QLpnvzzQDqzp+VoCzAde6jnm2nIuvtNOO3HTTTcRhiGtra3+HZWkMkRRRDKZZPbs2XzoQx/ipptuKvfQLwL/Hnf9qlw+W0oaSgZYkspmOLBdHqQ0+flI00Fp1cXdgQMpzZGSGa6L//jHP+ZVr3oVL7/8sqsNSlI/RFFEY2MjYRhy5plnsnjx4nIOW09pGHl73PWrMvlsKWko+WlfkobH6UBr3EUMgTpK86KcDezEMIZXZ555JscffzyLFy82vJKkfgqCgNbWViZMmMBll11W7mGNlHreSpI07PzEL0nDYxmlEEuDoLa2lve+972sWbOGMAzjLkeSqlIymWTx4sW87nWvY+7cueUe9s6465YkjU4GWJI0fO4F/i3uIkaC888/nzlz5rB69WqHtkrSdsjn8wRBwMUXX1zuIQcA+8ZdtyRp9DHAkqTh9R3gf+Iuoppls1nOOussWlpa4i5FkqpeIpFgxYoVHHnkkey///7lHnZG3HVLkkYfAyxJGn5vBf4RdxHV6rjjjmOPPfZg7dq19r6SpEFQKBSoq6vj9NNPL/eQ18ZdsyRp9DHAkqThF1KaD8suRAPw2te+lnw+79xXkjRIgiCgpaWFI444grFjx5ZzyIHA9LjrliSNLgZYkhSPxcA5cRdRbSZNmsQBBxxg7ytJGmTt7e3MmDGDww47rJzds8BBcdcsSRpdUnEXIEmj2B+AS4Fvxl3IUKmpqaGuro5MJkM6nSaRKP3eJAxD8vk8uVyOjo4OcrlcWec76KCDmDZtGosXL467aZI04qRSKebOncudd95Zzu4HArfHXbMkafQwwJKkeH2L0mpOZS//VKmam5uZNGkSU6ZMYdKkSYwZM4a6urqNAVYqlSKZTAJQLBYpFArkcjmy2Sx33303f/nLX7Z5jX322YcoigjD0B5YkjTIOjs72W233UgmkxSLxW3tvkfPf7PAVGAs/H/27js+srre//jrzJn0bJLtu9kCu0svggKLNBG4AiLVhgiiggJe+1UsV73XigWv18ZPBS5IURQLHRFEwIJ0pIOUZXtLNr3PnPP7Y7IryEImu0nOlNfz8ZgHZb9nzuecZDMz73y/ny/1QDVQAQRABhgEeoAOckvnW5K+TklScTLAkqTknQHsBuybdCGjNX/+fLbffnu22WYbZs+eTWNj46ZZVnEcMzQ0RDabJYoiMpkMmUxm07GpVIr6+npmzpxJZWVlXufbYYcdGBgYMLySpHHQ3d3Ntttuy+zZs1mxYsVIw48A/gQ0AzOASSOMHwDagbXAOuBR4CHgOeDu4T+XJOllGWBJUvIicluSPwJMTbqYkUyePJnddtuNXXfdlfnz51NTU0Mmk6G/v5+urq78LzqKiOOY1tZW1q5dO+L4SZMmMXPmzLyXG0qSRieTydDY2Mj8+fPzCbAagYNG8fRVwMzhB8C/veDPlgJPAb8D7gTuSfpeSJIKjwGWJBWG1cBbgduSLuTlzJo1i/3224/ddtuNqVOnMjQ0RE9PD729vVs8IyoIAgYHB/MKvjbO8BoaGkr6VkhSyQrDkObm5ok+7TbDj8OH//sh4GrgquF/lyTJAEuSCsjtwEfI9cUqGJMnT+bQQw/lNa95DZMmTaKzs5OWlpZNodXWLOdLpVIMDQ3R19c34timpibq6+vp6elJ+pZIUkmK45iKigqmTJmSdCl7DD/+G7gZuAj4ZdJFSZKSlUq6AEnSi/wA+FnSRWz0+te/no9+9KO8/vWvJ4oi1q1bN+Y9qKIoYnBwcMRxtbW1VFdXE0VR0rdFkkpSHMek02nq6+uTLuWFDgd+ATwOfBB/AS9JZcsAS5IKz6nk+mElZu7cuXzwgx/kLW95C5WVlaxdu5bBwcExb54eBAFRFOWz2xUVFRWEYWiAJUnjKAiCvDfWmGA7Az8EngDen3QxkqSJZ4AlSYUnAt4EdCdx8oMOOogPfvCDbLfddqxbt26relyNpVQqtWmHQ0nS+Cnwn7XbAecD9wHHJl2MJGniFPSrkySVseXA2ybyhGEYctJJJ/G2t72NKIpobW0Ftq7H1ViK45g4jpMuQ5JKXpH8rN0LuAa4DJiedDGSpPFngCVJhesm4LMTcaKGhgY+8IEPsN9++9Ha2kpfX1/BBFeSJL2CU8jtVHhi0oVIksaXTRAlqbB9A3g18PbxOsG0adM4/fTTmT17NuvWrSMIAsMrSdKIGhsbmTp1Ko2NjdTX11NbW0tVVRVhGAK5TTo27jTb29tLR0fHpkdvb+9YljKbXKP3g8jt5muzREkqQQZYklT4TgF2JLel+JiaPn06Z555JlOmTKGlpcXgSpKUt2OPPZbXvva1dHd3b+pT+MJfgmxc+h3HMVEUbdp1tr29nQ0bNrBmzRqef/55Vq5cSVdX11iU9EFyv/Q5CViW9P2RJI0tAyxJKnxDwFuBB4BJY/WkjY2NvP/972fKlCls2LDB8EqSNCrpdJqhoSF6enqAl++d9cLXl1QqxbRp05gzZw6777472WyWDRs2sGTJEp588kmefvrprZ2dtT+5Bu9vBv6S9D2SJI0dAyxJKg7PACcD147Fk1VUVHD66aczY8YMZ15JkrZIJpMhm82O2PT9hX+ezWbp6+ujr69v0/+bNGkS++67L/vssw/r1q3j8ccf57777mPNmjVbWtp04HZyy+9/m/R9kiSNDZu4S1LxuA74z7F4olNOOYUFCxYYXkmSEtff309bWxsdHR00NTVx2GGH8aEPfYi3v/3tzJkzZ0ufNgR+A7wr6euTJI0NZ2BJUnH5OrA3uaURW+QNb3gDe+2116aG7ZIkFYqNDd8rKyvZf//92XPPPbn33nv54x//SEdHx5Y85aVAMPxPSVIRcwaWJBWfdwKPb8mBixYt4qijjmLDhg1EkZs0SZIKTxAEDA0N0dLSQiaT4ZBDDuGjH/0o++2335Y+5SXAW5K+LknS1jHAkqTiMwAcA/SN5qDKykpOPPFEhoaGGBgYcPaVJKmgbQyy1q1bR21tLe985zt5z3veQ1NT05Y83a+BLU7AJEnJM8CSpOL0HHA8owix3vjGNzJ79mw6OztJpfzxL0kqDkEQ0N3dzfr169lrr7342Mc+xo477rglT/V7YIubakmSkuUnGEkqXrcAg/kMnDt3LgceeCAbNmxw5pUkqegEQUAcx6xdu5ba2lrOOussXv/614/2aSaRC7EkSUXIAEuSitdHgMZ8Bh5xxBGEYcjQ0FDSNUuStMWCIKCjo4Oenh7e/OY3c/zxx4/2KXYl1xNLklRkDLAkqXidlc+gHXfckV122YX29nZnX0mSil4qlaK/v58NGzZw2GGH8fa3v320T3EqcErS1yFJGh0DLEkqTgcAO+Uz8KCDDgJw10FJUskIgoBMJkNLSwsHHXQQJ5544mif4gKgOenrkCTlzwBLkorTO/IZtHDhQnbYYQc6OzudfSVJKilBEJDNZmlpaeGAAw7ghBNOGM3h1cD5SV+DJCl/6aQLkFQ8DEAKRkUcx8fmM3DvvfemoqKCbDbr10+SVHI2hlgbNmzgkEMOoa2tjdtvvz3fw99Ebkffq5O+DknSyJyBJUnFZ19g/kiDGhoa2HHHHenu7ja8kiSVrI3LCdvb2zn22GPZaae8Vthv9H38TCRJRcEf1pLyFsexj8J4/Fs+X69ddtmFKVOmMDg4mPS3jiRJ4yoIAgYHBxkcHOSkk06iqakp30PnAZ9Kun5J0sgMsCSp+ByYz6Add9zRxu2SpLIRBAHd3d00Njby1re+dTSHfg6YlHT9kqRXZoAlKW9BEPhI/tEE7DHS16q+vp558+bR29ub9LeNJEkTJggCNmzYwJ577sl+++2X72H1wH8kXbsk6ZXZxF1S3uI4TroEwe7AtJEGLViwgMbGRrq6upKuV5KkCRVFEZ2dnRx11FE89thjdHZ25nPYfwBfB1x3L0kFyhlYklRcdstn0Lx586ioqDB0lCSVnSAI6O3tpampiSOPPDLfwxqA9yZduyTp5RlgSVJx2SWfQTNnziSTySRdqyRJidi4lHDx4sXMmTMn38M+mnTdkqSXZ4AlScVlu5EGVFdXM336dPr7+5OuVZKkxAwNDVFRUcFhhx2W7yE7A4uTrluStHkGWJJUXGaNNKCxsZH6+nqy2WzStUqSlJggCGhvb2f33XcfzSys05KuW5K0eQZYklQ8GoCpIw2aPHmy/a8kSSI3C6uyspLXvva1+R7yZtzoSpIKkgGWJBWPRqBppEGTJk0iDEMDLElS2QuCgK6uLnbbbTcmTZqUzyHTgYOTrluS9FIGWJJUPCYNP15RTU2NAZYkScMGBgaYMmUKu+2W10a+AG9MumZJ0ksZYElS8ajKa1BVFWEYJl2rJEkFY2hoiJ133jnf4Xl3fZckTRwDLEkqHlOVnzIAAIAASURBVHn15Ein0wRB4AwsSZKG9fb2Mn/+fKZMmZLP8FcBzUnXLEl6MQMsSSoeeQVYQRAQBEHStUqSVDCGhoZobGxk4cKF+QxPAXl3fZckTQx32JCUN0ORxMX5zKqKosjZV5Ik/Ysoithmm22477778hm+G/DbpGuWJP2TM7AkqXgM5DMok8kQRZGBoyRJL5DJZJg9e3a+r4+7Jl2vJOnFnIElKW/O6klcLxAxwi8fBgYGiKIo6VolSSoog4ODNDU1MXnyZDZs2DDS8F2SrleS9GIGWJJUPLqADmDyKw3q6ekhm83ayF3ShAuCgHQ6TRiGmx6pVOolvfniON70yGazZLNZoigik8mQzWaTvgyVqKGhIRoaGpg6dWo+AdYcoAboS7puSVKOAZYkFY82oJ0RAqyOjg4ymYxLCCWNiziOSafTVFdXU11dvSmkCsOQbDZLd3c3/f39dHV10dfXx8DAANlslkwmA+RCrhcGXFVVVdTW1lJdXU1DQwO1tbWbgq0oihgaGqK/v5+BgQFDeW2VOI4Jw5DJkyfnM7wJ2AZ4Mum6JUk5BliSVDz6gPXAglca1N7ezuDgoAGWpDFTVVVFXV0dFRUVhGFIb28va9asYd26daxdu5bly5ezZs0aWltb6ejooLu7e9Ojr6+PoaGhF4VPGwOvdDpNbW0tkyZNoq6ujoaGBpqampg+fTrNzc3MmzeP6dOnM2PGDKZPn74pJOvv798021QajTiOaWhoyGdoAEzHAEuSCoYBliQVl5UjDejo6KC9vZ0ZM2ZsmvEgSaORSqVoaGigurqaOI5paWnhoYceYsmSJTzyyCMsXbqUZcuWsXbt2i16/iiKNs2u6uvro7W19WXHVlZWMm/ePObMmcNOO+3EzjvvzIIFC5g3b96m2VpdXV309vYmfdtUJOrr6/Md2pR0rZKkfzLAkqTi8o+RBmQyGdavX8/8+fPp67N1h6T8hGFIU1MTVVVV9PT08PTTT/Poo49y77338swzz/D0008nUtfg4CDPPvsszz77LH/6058AaGhoYNGiRbzqVa9ijz32YPfdd6e5uZl0Ok1HRwc9PT1J304VsOrq6nyH5jVVS5I0MQywJKm4PJbPoNWrV7uEUNKIgiBg0qRJNDQ00NXVxSOPPMK9997Ln/70Jx5//HH6+/uTLnGzOjs7efDBB3nwwQcBmDNnDnvssQf77bcf++67L/PmzSMIAjZs2EB/f78/D7VJHMdUVlbmOzzvgZKk8WeAJUnF5ZF8Bi1btoyBgQF3IpT0EnEcU1FRwdSpUwmCgGeffZZf/OIX3HbbbTzwwANEUZR0iaO2cuVKVq5cyY033siMGTPYf//9ef3rX8/ixYvZZptt6OjooKOjgziODbNEGIb5DjXAkqQCYoAlKW+jeMOn8fNEFEXPx3G87SsNWrZsGa2trUyePNllhJKAXHBVU1PDtGnT6O7u5s9//jM33XQTt956K52dnUmXN2bWrVvH1VdfzdVXX82iRYt44xvfyBFHHMFOO+3EwMAAra2tZLNZgyxJkoqMAZakvJ111llJl1DWgiCgqqpq4Be/+MWDK1eu3PaVxg4ODvL888/T3NxsgCWVuTiOqa2tZfr06bS0tPCrX/2Kq6++mnvuuSfp0sbds88+yw9/+EMuuugijj76aI4//nj22msvstks69evN8gqU6PYvXIw6VolSf9kgCUpb1dddVXSJZS9VCrF+vXrbwdOGGnsE088wWtf+9qkS5aUkCiKqKmpYdasWbS0tHDppZdyxRVX8I9/jLgXRMnp7e3lyiuv5Morr+SNb3wj73jHO9h///0ZGhpi7dq1Li0sI0EQMDiYdy41kHS9kqR/MsCSlLdVq1YlXYJybsln0FNPPcWaNWuYMmWK28tLZSSOY8IwZO7cufT19XHFFVdwySWXlGVwtTm/+93v+N3vfseRRx7Je97zHvbdd1/a29vZsGEDQRAYZJWBUbwmtiddqyTpnwywJOUtlUolXYJynoii6O/Anq80aGhoiEceeYQ3vvGN9PT0+KFMKnEbN2yYNm0adXV1/OEPf+D888/n/vvvn7AaJjfA9GkBzdNh+uSAGVOhtgau/F3M0pUv3lBix4UBxx0W0NIG6zfErGuFlWtj2jqgZwJWPt90003cdNNNnHLKKZx22mksWrSIVatW0dfX5+tdievu7s53aHvStUqS/skAS1LeinFnqhL2G0YIsADuvfdeDjjgACorKxkaGkq6Zknj5IXLBR9//HF+9KMfccMNN4zb+RrqYcH8gMW7Bey0MGDRNrDd3ID5zQGTGoAqoBpoCiALjx4+xNKVL36Oxa+Cb56fhl6gM4Z+yPRBa1vMc8vhyaUxzz0f8/enYh59Cp5fOT47ql5++eXcdNNNnHHGGZx00klMmTKF1atXu6ywBMVxTCqVoqOjI5/hWWBt0jVLkv7JAEuSitMVwFdGGtTa2sojjzzC/vvvT0tLix/GpBKzcdbVrFmziKKI888/n/POO4+urq4xPU9tNeyxa8AR+6XYYzfYb/cUM+cADQHUk2t13RvnOgZlgCFy/94fQy/09L/0Obu7gdVx7tgMkIJ0LcxsDJi5U8B+deQihK6YuB0eezbm3odi/vr3mNvvinl22dgFWi0tLZxzzjnceOONnH322ey3336sX7+e7u5uZ2OVkFQqxdDQEO3t7fkM3wAsT7pmSdI/GWBJUnF6FrgNOGSkgXfccQd77rknFRUVZDKZpOuWNEaiKKKqqorm5mbuu+8+vv3tb4/pzoKNk+D1+wUcf0iKg/cPWLAoyM2oCoD23Iwp1sdk17z8c4QhxOQOeYkAiIAMZP+1p3ZHLpxKBRCkIaiC3RYH7HZYivf2Qbw25i8Px9x2Z8zVN0c8+PjYhFl///vfOfnkkznrrLN43/vex+zZs1mzJneB/gKg+FVWVtLR0UFra2s+w1fgLoSSVFAMsCSpeJ1HHgHW2rVrueeeezjkkENYv369H8KkEhBFEVOnTqWiooIf/ehHfP/732dgYGw2THvD/ilOPCbgiNcHzN0ugPogFyh1QdQVE48mKwrIJVhbep0xudlcQ0AfsD4mTEFQCQcdnuKgo+C/Ppribw/GXPfHiCuvHZuZWT/+8Y/5y1/+wuc+9zkWL17M6tWrGRgYcDZWkausrGTFihX5zsB6LOl6JUkv5quwJBWv3wLL8hl46623smHDBmprazctOZJUfDb+/Z0/fz5tbW189KMf5dxzz93q8GrWdPjkWSH3X5fm5t+EnP6xkLnbBtAK2SUx2Q2QHWJ04dULRGP4YycbQbYfsqtiomUxZGG/QwLO+UbIozen+eUP0hx9yNa/xX300Uc59dRTueCCC5g2bRpNTU32gixy6XR6NDsqG2BJUoExwJKk4hUD385nYFdXFzfddBP19fXOIJCKVBRFVFZWsmDBAv7yl79w8skn84c//GGrnnOHhQHnfiHkoZsqOPfbIa85IIAuyD4Xk23LhUWFLCa3/DC7GqKlUF0Dbz89xXW/DLn3t2nef2KKqootf/6hoSG+8Y1v8KlPfYrBwUGam5sNsYrcsmV5/d4H4OGka5UkvZifYiSpuJ0PrMtn4N13383DDz/MlClT/AAmFZkoipg0aRLNzc1ceOGFvPe97x3NTJKX2G7bgB9+NeThm9J88rMhM2ZBtDTXzyqb4WWaVm2B4QZYqQlYuRwHkO3JzRijDfY+JMX5F6R5+HcVnHVSaqve9F577bWcdtpp/OMf/2DBggW58zmbtahUVVXR1tbGc889l8/wQeDupGuWJL2YAZYkFbcB4Iv5Dv71r39NV1cXDQ0NfviSisTGfleNjY3813/9F1/96le3+LlmTg747n+HPHJLmg9+IqSqani2VUcuABovE/rTJoBsdniJ4YqYHfaEH52f5qHfp3nncVv+1veJJ57YNOtt0aJFpNNpf44WiTiOqampYenSpXR2duZzyP1AXp3eJUkTxwBLkorfj4Cl+Qxsb2/nF7/4BTU1NVRVVfnhSypw2WyWWbNmEUURH/jAB7j88su3+Lk+9O4Uj/4hzUf/M6S6CrLPxmR7GN93g6/QxH3cf/oEw0sM10K0Ima3xQE/uzzNTT8PWfyqLUvruru7OeOMM7jsssvYZpttqK6udkZrEQiCgHQ6zWOP5d3W6taka5YkvZQBliSVhrPyHfjYY49xzTXXMHXqVMIwNMSSClQ2m2Xu3Lm0tbVx6qmn8sc//nGLnmffVwX86ao0P7ggzbR5kH06JtvFxLwLHF5CGLzcn02EINd8PrsSWBVzxPEhd9+c5n+/EFIVbtlTfu5zn+M73/kOzc3N1NXVGWIVuJqaGtauXcujjz6a7yHXJ12zJOmlDLAkqTTcBFyb7+Bbb72V22+/nZkzZ5JKpQyxpAITRRHz5s1j1apVnHLKKaP54P0iX/9MyF23pDnoiBQ8G5NdR+7d3wT0pBrJhJeQyi0tzDwXwwB87L9DHrq9gsMP2LK3w9/73vf40pe+xIwZM6ivrzfEKlBxHFNfX8/DDz+c726dy7D/lSQVJAMsSSod7ybXEysvV155Jffee++mEEtSYdg482rZsmWccsopPP/886N+jj13CLjnujSf+VoIA5B5NiYbM/Hv/IaXEG42I08oRAtSkO2G6KmYHfcI+P2NIed+bsumYl188cV8/vOfZ9q0aYZYBaqyspKenh7+9re/5XvIL5OuWZK0eX5ikaTS0Q6cOpoDfvrTn3L//fczY8YMgiBwJpaUsGw2y5w5c1i+fDnvfve7t2inwbPekeL+WyrY57AU8VO55YLBFi6VG0+JTgILck3rM0tzOxZ+8ssh91yXZpcFo6/q5z//OV/4wheYPn06tbW1hlgFJI5jmpqaeOCBB2htzbsn+8VJ1y1J2jwDLEkqLVcCeXd5juOYiy66iLvuuosZM2a4q5aUoI0N29evX8/pp5++ReHV+d9I86OL06QqYzLPxkRQEMsFN1dDIfykCULI9kD8VMw+/5bi3lvSvO2I0b89/vnPf85XvvIVZsyY4QYZBaSqqoqenp7R9I+7C3gi6bolSZtngCVJpee9wFOjOeDyyy/n5ptvpqmpiZqaGj98SRMsiiKmTZtGb28vZ555JkuX5rWx6CZzpsGdV6V5/ydSsDIm21qYs65eqGB+zAQQAdlnYmob4cpfpfnSh0d/8y6++GJ+8IMfMGfOHDfIKAAbZ1/9+c9/Hs3sq/9Num5J0stLJ12AJGnMZYCjgYeA2nwPuvbaa1m3bh3HHHMMTU1NtLe3EwSFMHVjYsRxTBAE1NfXU19fn3Q5JSGbzdLR0cHAwEBZfS+NVhRFNDQ0UFlZyVlnncUTT4xuAsjhB6a4+H9CmncPiJ+JiSIK51eUr7ALYcF9S4SQXQvhpJj/OjfF/Hnw3k9lR/UU3/3ud5k2bRrvfOc7t6h3mcZGHMdMmjSJNWvWjGb21Qpys5glSQXKAEuSStMzwPHAzaM56K677mLlypW8+c1vZtGiRbS3tzM4OFjy4UM2m6W+vp6mpiaeeuopnn322aRLKgnV1dXsuuuuzJ49m7Vr1xJFUcl/L41WHMdUV1czZcoUPvnJT3LXXXeN+jk+dHKK5sUBPBmTjQosGBpu4r65tlAFOUFpuMF7OAjv+UjIDgsD3vnRLEtX5l/s5z//eWbNmsXBBx/MsmXL3CQjAel0murqai6//HL6+/vzPezrSdctSXplBliSVLpuIbcz4SWjOWj58uWcd955HH744Rx00EHU19fT3t5esuFDFEU0NTURxzHf+MY3uO6660az3EQj2H777TnjjDM45phjWLduHZlMpiS/j7ZUKpVi7ty5fPe73+Wqq67aoud43+czXFGb5tC3BIQrIcpQGH2vXiDaTP4TRRRGI6x/FUB2AMIe2P+AgDkzYOnK0T3F2WefzS9/+UvmzJnDmjVrDLEmUBzHTJkyhb/+9a888sgj+R62Cjg/6dolSa/MV1NJKm2XAh8e7UGZTIYbb7yRH//4xzzxxBM0NTXR1NRUkjsVVldXk06n+fSnP81Pf/pTw6sx9vTTT3P22Wfzm9/8hlmzZhlevUAURcyfP58bbriB//3f0bXeef9bU7znuNy9XNcKR5+R4ZZfxwRzIZWmcIKhLAS1UF/30q9746QAqoYbUBWSGMJZ0Lcm5pBjMtz54OhvZltbGx/72MeIoojGxkZ3JpwgG38hsXLlSq655prRHPo5csvvJUkFzABLkkrfD4GPbcmBS5cu5YILLuCyyy5jyZIlNDU1MWXKFNLp0pnAO2XKFH7729+Opk+KtsCXv/xlnn/+eerq6pIupSBEUcSsWbN47rnn+OxnPzuqY9/2hoDzr0hz8flp3nhALhjqG4Bjz8xw85URwVwICyTEijNALbz5DS8NsN56eACpmGh0babGVwThTBhYD298d4bb78vdxNnTAn58bsisqfk/1eOPP85//dd/MXXqVCorK0su/C80cRxTV1dHJpMZ7dLBR4CfJl2/JGlkBliSVB6+B5y1pQc/+OCDnHfeeVxyySU8/vjjpNNppk+fTl1dHWFY4FudvYJUKsXAwAC33HJL0qWUvIGBAe644w4mT56cdCmJi+OY+vp6UqkUZ599Nh0dHXkf+8b9A668Ig0tMcRw7aVpjhgOsfoH4Ngzsvz+lxEMh1hJZyZRBHTBGe9Mcfb7QmZOC5g3O+DcT4Uce3SKuC35Gv9ZbG7m1UArHHlqhjuGw6u6avjtj0LO/GTI7y6toGIUP/KuuuoqLr/8crbZZhsDrHEUxzFVVVXU1dXxy1/+kpUrR7Xm89+Trl+SlJ/S+RW6JGkkPwHWAb9mC3+B8dBDD/HQQw8xb948dtttN3bccUdmzZpFbW0tg4ODDAwMkMlkyGazRfFhLQgCBgcHXTY4QVpbW6msrEy6jMQFQcCsWbP42te+xoMPPpj3cXvtFHD9ryogiMmuB1KQngnXXxpy9Luy/P7OmIEhOOb9Wa4P4PB3pEgvg0wm2cbu2V4Ia+FbX0zx4XelqKqAGdsCvRANUBi/To0gnA1DbfDGUzLcfm/u51d9DdxyaZrXHhUQPRmz55EBN1yU5vB357/a7Gtf+xp7770322yzDatXr7Yf1hiL45iKigqampr4zW9+M6q/U8BFwF+SvgZJUn4MsCSpvFwF7Etuq/AFW/oky5cvZ/ny5fz+979n22233fSYOXMm9fX1NDY2kkqlGBoaIooioigijuNNoVYQBARBQG1tLZWVlYl+oAuCoKhnkRWTVCpVFMHmeIqiiHnz5nHbbbdx/vn594yeMx1u+U2aVD1kl7HpHVx2LaRnBlx3aZo3vSvDLX+LGcrC0e/LclM64NC3BYRLIZtkiJWCTB+kszBve3I9r7pyNRVSeJXtgjeenOG24fCqthpuuiTNa9+UIl4aE2ch+kfMG05NcfGqkPd+Nr+1j/39/Xz605/myiuvpLa2lr6+PnvBjZGN4dXUqVO59tpruf3220dz+IPAmUlfgyQpfwZYklR+7gP2Ai4HjtqaJ4qiiOeee47nnnsOgJqaGmbOnMnMmTNpbGyksbGRuro6ampqqKio2NQ7K5PJMDQ0RCaToaWlhYGBgURviB8mJ0a53+c4jpk0aRI9PT186Utfyvu4dAh/+FmayQsDss/E8MK8NZULsSpmwnWXpDn61Ax/uCsXYr3xvRluDtMc/OYU4fPDvaYS+hIEAWSHgPYX/s/xOBEEqZg4E+T3/MPhVdwT8KZ3Zrj17lx4VVMFv7sozQFHB8TL4txSyBTEEfBMzHs+E/LkP2K+eXF+zdkffvhhzjvvPM4++2yeeeaZcb3X5WLjssGmpiauvfZabr755tE+xZPYuF2SiooBliSVpzbgTcCngG+O1ZP29fXx/PPP8/zzz7/kzzbOugJeNBtLKhdBEDB9+nTOOecclixZkvdxv/ifkJ0OTZF96l/Cq42GQ6yqWXDD5WmOHp6JNZiBI96d4eYgzetOSBE8n5tFlFSINa7i3H0IJ2XIdub59na451XcDUefnOH3d+bCqJqqgBsvCnnd8QEs58XBXwCZAUgvj/nG99P8/ckhfv+3/H6WnXfeeRx66KHsuOOOLiXcSlEUUV9fT3V1Nb/+9a+54447tuRpTgLuAr6f9PVIkvLjK6cklbdvAXsDfxrvE8Vx/KLlhIWk0OopVeV8n+M4Zvr06dx9991ceOGFeR/3H6emeMu/h8TPjXDvUpBdA5VNuRDr8P1yicvAUC7E+svVEamZyfbCGjcRpCpjwjlDrL1pGi1/ayJsHGFiTQxhEwx2wDGnZLnxLxvDK7jxopDXn5ALrzIZXhL4BSnIdgCDcNXFaebMyO+mRlHEV7/6VVKpFFVVVUnftaIVxzFTp04liiJ++tOfbml4tdH3gMOSviZJUn4MsCRJ9wMHA2cDnUkXM9E2Bmsaf+V8nysqKgiCgG9/+9t5B3mLdwv4n2+FsDYmGmTkmVMblxM2BtxweZo3DIdY/YO55YSP3hmTKrVNIKOAcFKWYHqGFf83mye+sZCamYMQvvI9Dqtz4dTpH8lyw59z35fVlXD9hWlef0JAvHyEvmEhZFfF1GwT8Osf5N9D7/777+fKK69k1qxZZf33YUvEcUw6nWbWrFksX76cH/zgBzz00ENj8dS/BuYmfX2SpJEZYEmSNvo2sBvwQ2Ao6WImQhzHVFdXM2PGjKRLKQszZ85kcHAw6TImXBRFzJo1i2uvvZb77rsvr2Oqq+AXP0xDdUC2nfzfsQWQXRuTboTfXZ7myINyCUx3H9xxVww1UDIr12IIZwxCAM98bVse/syONOzcTcOencTdI4RK1dC1Bq68ORci1dXADRelOfQtw8sGNzPz6iVCiJ6Pee2bU/z3v+d/U8877zzWrFnDpEmTkr6DRaWpqYna2lpuvvlmfvCDH7BmzZoxe2rgN0lfnyRpZKXyFkaSNDaWAx8GXgX8GOhLuqDxFEUR6XSao47aql72ykNDQwOHHHIIbW1tSZcy4erq6mhpaeG8887L+5j//XTIgv0DopUv0/fqlQS55YThJLjh/DQfOiXFqcenOO6wFLRD0U/8iSFVGRHOHaL36Voe/OhOPH/ZHNL1Gabs0wmTYqKhV36LG/dA01T4n8+EvPWIgN9dmObQY/458yrfPmFxBKyK+eIXQl69S34HrV27lp/+9KdMnTq1rJfV5iOOY2pra5k6dSrLly/nwgsv5NprryWTGfPe64uBi5O+XknSKzPAkiRtzpPAB8gFWd8kF2yVpNbWVt70pjdx/PHHJ11KSfvqV7/K7Nmz6enpSbqUCRVFEdOnT+eKK65gxYoVeR1zwGsCzvpoClbGbHG8kYLsOkjVwA++FXLJ90PmzoNsMd/+GAggnD5EUJ9l1c9m8uCHdmbDfY1UzxygcsoQ9Qt7IY9JftEQkIUPvS/Fr36S5qBDAqJVec68eqEAsp1AbcDl5+afNP785z/nySefZPLkyYZYL6O2tpZp06bR1dXF1VdfzXnnncdTTz01nqd8D/CxpK9bkvTyDLAkSa/kGeAz5IKsdwHXA/1JFzWWBgcH6evr40tf+hIf/ehHWbBgQdIllYwwDNl77705//zzOfzww1m1atWmnSjLRUNDA8uWLeOyyy7La3wQwCXfCCEMcmHT1tyuFGR7gW5gALIDW/l8SYlz9yWcMkTYPET3o/U88qkdeeKchQz1pKmZNUicDahoyFC7TR8M5HGRwfDugv3AEETtEMdbeH9CiFbG7PJvKT5/Rn5vrXt7e7nkkkuYNGlS2f2deCVhGNLQ0MCUKVNob2/n+uuv53vf+x633377eMy62pz/BV6f9H2QJG1envsMS5LKXDtw+fBjG3K7Nh0BHAg0J13c1kilUnR3dzM0NMS///u/c9xxx7FkyRJnRYyB2tpadthhB2pqali1ahVAWX1Yj6KIadOmceGFF+a9dPLzZ6ZYdEiK+Ol4zH7NmJ2Qz/1jLAZSEFZF0JQFoO/JGlZeO5NV101nqL2CqhmDBGFMHEF2MEXNvH6qJg/BUJ7fYwFks0B2DMqNgfUx//WpkMuuj1m6auSfH1dffTUnnXQSCxYsYMOGDWX1d2OjIAgIw5Camhqqqqro6enh2Wef5ZFHHuGBBx6gry+RVey/BvYAViZ9fyRJL2aAJUkaraXARcOPBmAHcrsY7grsBOwCNCZd5GikUimGhoZYuXIltbW1LF68OOmSSkI2m6Wrq4uOjg5SJdM5PH8NDQ0sXbqUK664Iq/xs6bBFz4RwvqYaEtnA5WKEOKhgP6OSnruraHlr02sv2MK/WuqqJw6RE1zP3EUsHGNZTSQonraIGF9lngoge+1IDeLq2JRwHc/k+KEj4ycig0ODnLFFVdwzjnnsGHDhomveQxUVVVRVVVFOp1+0Y6uL/wFQBAEmx6pVIpUKkVlZSVVVVVks1m6u7tZunQpTz/9NE8++STLli1L+rKmAlcD+yRdiCTpxQywJElboxO4b/ix0ZThxwJg1vC/TwYqgarhMQPkOtWsB7qA75HbCSpRQRDQ19eX1G/9S1Y5hlcbZ19dfvnldHZ25nXMdz8dUrFtQPTU2M2+Klap6iyD7VU886N5rP5dbsZVWJ8hXR1t6oX1QtFgQOW0QZgUEa0bbdf7sRGngJUxx58cst9FEX/7+8izsK699lre/e53M3v2bDo6OhKpe2t0dHTQ19dHGIZUVFRQUVFBGIabAqsoioiiiEwmQyaTYXBwkO7ublpbW1m3bh1r1qxhyZIlrFu3LulL+Vd7A/8HnJ50IZKkfzLAkiSNtQ3Dj2dGccy5SRctjaXa2lrWrVvHlVdemdf43XYIOPG9KVgRE5fzzKthUW9IxZQhtv/gMuYcs57+9ZVkOtOkpw3S+0wdK6+dDnFAkI4JK7MEIVROGcoFfxGJzV7L9kNYDd/5VMh+7xx57WZ/fz/XXHMNn/nMZ2hrayu6sPeqq67illtuoampifr6+k1LATeGWFEUMTg4SH9/Pz09PXR2dtLR0UF/f1G0UjyN3C9nfpR0IZKkHAMsSVLSKin7+SYqJXEcb9p5cPXq1Xkd8+3/CGFSQHaNs68AiCHOBFRNG6Jqfj9UAPVAJTz5oQYGN1RQ0zxAEMZk+1Ok0hHpumyun1WSAeDwLKzXvinFYfsF3Pq3/HphnXrqqdTV1RXd7M9MJkN7ezvt7e1JlzJe/h/wMPDXpAuRJPkWSZIkaUyl02kymQzXXHNNXuNfvUvAEW8LYIXh1SbDIVS2P0V2QwXZtRUwBCu+3cyyX84iVRGz0yeWMPOwVgbWVxKEManKeFNPrCRlh4AQvvmx/JYyrlu3jltvvZWpU6e6eURhuopcXyxJUsJ8myRJkjRG4jhm8uTJPPDAA9x33315HfPfHxiefVVck28mTgTh9CH6/l7LkkvmEA2EzDqslanv2MDMQzYQ1kZkB8KCCK+AXPi2OmavI1IctHd+b7Wvu+46BgYGSKddHFGApgO/SboISZIBliRJ0pgJgoC6ujp+//vf5zV+0byA444PYJWzrzYrhqAmggie+dF8upfWMGn7XhaesRxaA+r37KL5jevpW11FlAkKZufG7CBQBf/5/vy+qPfddx8PPfQQjY1FtYFrOTkY+G7SRUhSufOtkiRJ0hiprq5m9erV3HTTTXmN/8i7UjAzIOpJuvLClZqRZc2vZ7L2D1OpqM2y4D0rqN61j+zaNAymWPSBZTTs3E33M7W5XlmFYHgW1pFHBey0ML9U7Y9//COTJk1yGWHh+ijwnqSLkKRyZoAlSZI0BuI4ZsqUKdxzzz2sXbt2xPH1tXDqCSlodefBzYohnDbEwJPVPHvRXIZ6QmYcsoHmt64lbgkhgGx7mvT0IXb/ytPUNA8Qd4QFMwsr6gNmBnzgpPzebt922220trZSXV2ddOl6eRcB+yZdhCSVKwMsSZKkMZBKpQjDkD/96U95jX/z4SmadgmI25OuvADFEFTGkIbnfjKPrn/UUbdNH9uduRwqYqK+4aAqFZNdX8HkvTqZ99Y1ZDsKpxdWHAAbYk45OkV11cjjn3vuOR566CEaGhqSLl0vLyDXD2ta0oVIUjkywJIkSRoD1dXVrFq1ijvvvDOv8e85LoAsRFHSlRem1MwM66+bxsobp5OqiNn2lFXU7tVNdn0FBC9IqQLI9uR2/AvCAkmvhsUdMOVVAccemt9b7jvvvJO6urqky9Yrm4NN3SUpEQZYkiRJY6ChoYHHHnssr+WD82cHvO6AFLTFBbPkrWDEEE7OMLS0kmfPn8dQR5ppB7Qx75TVxBtSm59hFUOcLbwbGWWAAE56U3613XPPPbS3t1NZWZl06fn6I3A98CSwFiiXvTRfB/wo6SIkqdwYYEmSJI2B6upqHnjggbzGvvnwgHBuQLY76aoLT5COoSZmyYVzaX90EjWzBtj+35cS1EVE3YXT4yq/iwE2xBx5YIqmPFYGPv744zz77LPU1NQkXXm+PgwcA+wO7ARsDywEdgB2BBYBP0y6yHFyFnB60kVIUjkxwJIkSdpKFRUVtLe3c8899+Q1/oR/S8Fg0lUXoCggNStD2y2TWXH1TIIgZpuTVjPpwC6itRVF+c417obq7QOOPmTk4qMo4sEHH6SxsbFYdiOcOfzPDNAOrASWAE8D/wCeIxdy3ZZ0oePkQuC1SRchSeWiCN8GSJIkFZbq6mqWL1/O448/PuLY2dMD9nt1AJ0uH3yRGFKNGaK1aZ7+yXwGWiqYsk8H25y2EtpTxEXaKyybBVJw9MH5fbEffPBBoigiDMOkS89Hvt/BbwHWJF3sOLkOmJJ0EZJUDgywJEmStlJDQwNPPfUUQ0NDI459/b4BFfMCIpcPvkiQgmBSxJKfzqHt/gaqpg2x3QeWkZqaJduRLtqwLwiA9phD90lRUTHy+EceeYS1a9cWUx+sfLQBxyddxDiZBlyddBGSVA4MsCRJkrZCEASkUimefPLJvMa/Yf8AUhAVxQqxCRIFpGYM0fmXRpb/ajbEMO/Na5j8b+1Eq9OQKvKb1QPTtw947R4jp3DLly9n2bJlVFdXJ131WLsbOC3pIsbJQZRury9JKhgGWJIkSVshDEM6Ozt57LHH8hq/ePcABuLczBzllg7WZYg7Q575yVz611TStEcXC963AroD4kzx36jsADCZvAIsgKeeeor6+vqkyx4PFwM/SbqIcfJB4D1JFyFJpcwAS5IkaSuk02k6OjpYsmTJiGO3mx+ww8IAupKuurAEkyOW/3w2LX9roqJpiIXvW0F67hDZtuJs3P7SCwT6Yd898wuwnnvuOdLpNEFpppxnAX9Luohx8n/Aa5IuQpJKVSm8JZAkSUpMTU0NK1asoKWlZcSxr9k1oGJ2QNyfdNUFIoJw+hA999fz/BWziTMpmt+0nulHtRCtLYGlgy/UH7P3rikq0iMPXbZsGV1dXcXSyH1LvBkY+S9M8UkBvwEaky5EkkqRAZYkSdJWqK2tZfny5UTRyNvkvWbXAEL7XwG5pYM1EQwFPPOTefQur6Zhxx4Wnr4CBgPiwRKbfdQH85phu21Gvq4lS5bQ0dFBOp1H2lWc1gBvT7qIcbItcEXSRUhSKTLAkiRJ2kIbl3itWLEir/G7bldioUwewjSETRDOCQi3CQjnB4SzIKyDYHqWlVfOYt2fppCuy7LgPSup2r6fbFu65N6lxv2QmgE7bDvy2FWrVtHS0lJqOxH+q9uAjyZdxDh5I/CVpIuQpFJTsr/WkSRJGm9BEDAwMMDKlStHHBumYMFcYDDpqidABGE9MC2A9phlT8U88WxMR3dMmIJZ0wP23jdL1dON9P5yW+K+kFnHrmXW8euIWtK5nlElJspCWBmwy6KAa2595Sl4mUyGVatWsd122yVd9nj7PvBqSrP5+eeBh4FfJV2IJJUKAyxJkqQtFAQBg4ODrF69esSxzTMD5s0MoK+E1w/GuYlTwTxgA1xyXpZLroq4/9GYzu4XD912ASyuDDisrZej96+i+ZMrII6J+4OSm30F5EK5DOywIL90bu3atVRXVydd9UR4L7ALsDjpQsbBZcDjQH5blEqSXpEBliRJ0hZKpVIMDAzk1cC9eQY0zABKtYF7DKkUBAsCHrw54gNfyHL3Qy8f1j2/BJ6nnStp5/TeWi6cOQDpCijhfI8IFs7LL8BqbW0t5R5Y/+o4ciHPlKQLGWNVwDXAbpTu33xJmjCl+PstSZKkCVFRUUFHRwddXV0jjm2eAdRCnE266vERkAuvrr40y2uOzbxiePWv/u+OXl57eETXeghnB1Ci94gMzJoGQR4ZVmtrK0NDQ6RSZfF2fQ25EKsULQJ+m3QRklQKyubXOpIkjSSOY6qqqqiurt7UnFtbLpvN0tfXRyaTKdn7mU6n6ezspLu7e8SxzTMCCALiUpxiFEFqQcBdN0accMaWpU93PxzzhrdnuOumCsJGyHZRer2whmImNwRMmxywfsMrfx+0tbXR399fsn93NuMvwL8D/y/pQsbBG4FvAJ9JuhBJKmYGWJKkshdFEel0mtmzZ9PR0cGKFSuI4xIMGSZYdXU18+fPJ5PJsH79eoIgKLkP4+l0mu7ubvr6+kYcO2NKifZ2iiFshME1MW85I7NVT3X3IzGf/2KGr34/TdBVglFfBhrrYUoTrN/wykM7Ozs3zcDKZkt1StpL/Ah4DfC+pAsZB58GHgCuTLoQSSpWBliSpLIWxzHV1dVMmTKFK6+8kt/+9rc8+uijRFGUdGlFb9KkSey77768//3vZ9ddd2XlypUlF2CFYUhvb29eY+c3A5MDUv2vEMvEvHjW0cahm7ttQ0AfZLMkOlMpCIAZAf/7mQyrRm4FNqKvXRBxxskx83cKyG4osQgrA5V10FQ/8tDu7u6Snr34Ct5PrmfUa5MuZBz8nFxT90eTLkSSipEBliSprIVhyOTJk/nOd77DBRdckHQ5JaWtrY2bbrqJP//5z/zkJz9hr732YvXq1SX1gTwMQ/r78+vN3NEV0/FERPuazcwsGg6uAl7cwzx4wR9v/O8ozv1zxrSA2lkBYXdMto/EZnelaiG7LOb7Pxu7sOnHP89yzvfS0MqEh3NhFbnW2ynGvqF8GpgETY0jDy315bcjOB54BJiedCFjLARuJBfQdSZdjCQVGwMsSVJZmzZtGrfeeqvh1Tjq6enhk5/8JFdffTU1NTV5Bz7FIJVKMTQ0lNfYL/4g4jsXRPRng81OtApgU4L1ov8GNq5o3RRgBTBjKrznhBSfPDNFqgaigYRuQkPAPTdFrFo3dmnPLXfGnLM+JqyC7OAEXMPwPU01AT2w8jkYGIwJgrHNz1IpqGuCwTyuaWBggGw2S0VFxQTcgIKzFngbcHvShYyDeeSWER6ZdCGSVGwMsCRJZSuVShFFEVdddVXSpZS8NWvWcOutt/KWt7yF1atXJ13OmBlNgNXelXuM1bSe9Rvg7G9lqa+Fsz6QIjUEiax8rYH7Hh/bqUpPLYlZtxRmbAdMQICVCiBognv+GvP5/83y6DMwOBxgwYt3DXxhe7zgBQHj5v79hccEw+FkRQpaR960kkwmU+69+O4APgJ8P+lCxsER2NRdkkbNAEuSVLaCIKC/v5+VK1cmXUpZWLFiBdXV1UmXMeaS7pf265tizno3BBVAErOw0rB6/dgGLV09sKErZkZ6YpbPBY25WVdv/lCWlWsLIzTKZDKJf28VgB8AewOnJl3IOPg08CDwy6QLkaRiUYp74UiSNCpl2mNmwnmfx8c2c4BKoGw2qhtbQQDUBvz57rhgwqtcXaW3a+cWeh+5oKcUXQrsmnQRklQsDLAkSWUvlfLlcCKU6ofxJL9/9tgp4LNnpSCGKJNQERmYNX1sv7Z1tTC5PoAJuKY4zl3DvNnjf67RqKys9GdTzhDwVqA76ULGQSXwG6A26UIkqRi4hFCSJGkLRVGUd5Pttx+V4oC9Ato7XvA/X7i94L/8a/yCMZv6KwHZCMIA5s6CE96QYvIciDrGfsO8vPXB3juPbYC147YBM+cDvRN0De0xB+wf8OkzQr55fmFMZauoqCCVSpV7H6yNngNOBG5IupBxsCNwGfCWpAuRpEJngCVJKnt+QJwYpXifRxNgvevYgKPPTEPrGN2HAOiJyXbAS7Y1nEidMYsXB8yeHoxZL6wjDwxgRkB2STwh15UdgDCEb/xnijfsBw88Dn39uV0DNxluwr41whDSafjxFVmeW/7KY9PpdMnOWtxCNwL/CZyTdCHj4M3A54CvJV2IJBUyAyxJUlmL45hstjBmXJS6bDZbch/Is9ls3o3pl64CumJojRmLLC+OX7AjXoK3NeqF9KKAj5wc8Nnvjk2AdeZJIXRN4HWlINsHYSUcdnTIYcfBmHyR/lVV7lzX3xbx3PJXfv7q6mrCMPTn04t9nVxT9zcnXcg4+CrwMHBd0oVIUqEywJIklbWKigoaGhqSLqMsNDY2MjQ0lHQZYyqbzVJbm1/7mpY2IANRND7ZSFLiGFgX8/EPhXz/sojVrVv3fJ99X4r5+wZEz0/wTQogOwSsjxmv1lNBHQx1wLo87lF9fT0VFRVkMkk1NytYJwF/B3ZOupBx8AtgN2BJ0oVIUiGyM6QkqWxls1lqamo4+OCDky6lLBx44IG0t7cnXcaYymQy1NfXU1NTM+LY9a0xRElXPA4CyHZA1eyA3/xk6343unjXgK99MQ0tYzNLbUtF0fg8SEF7J7S2j1xDQ0MDFRUVRFEpftNslUHgKKAv6ULGQS1wDU4ykKTNMsCSJJW1trY23vGOd/CqV70q6VJK2ic+8Ql22WUXurq6ki5lTGUyGRoaGqirqxtx7Mp1uTV/pbWIclgKoqUx+x2d4lc/CrfoKRbvFnDLr9ME1blArCRvVEVAW2dMS9vI6dzkyZOprq4uyd5xY+B5cjsTlqLdgZ8nXYQkFSIDLElSWevt7aWiooLzzjuPo446ijDcsg/f2rwpU6bw6U9/mve///2sWbOm5D6MDw0N0djYmNcy1NXrgR4ISvRbLI4hfj7mre8NuffqNPvsnn8CdebJKe68Lk3DTMiujqFE7xFpWLM+vyWkU6dOdQbWK7sR+EzSRYyTt5XwtUnSFnN6qiSprKVSKVpaWpg8eTLnnnsuJ554Ik8++WTSZZWEmpoa9tprL7bffnvWrl3L4OAgqfFqLpSQKIqoqalh2rRpPPfcc684dtU66FwPDTOB7qQrHwcBRFlIPRez96EB97wqzcW/jLjkqogHHovp6nnx8HmzA/7twIAz35Fi38MD6ILsSko3vAJIwXMr8gtxp06dav+rkX0T2INcX6xS83XgIeB3SRciSYXCAEuSVPbCMKSjo4Pu7m722GMPDjzwwKRLKgnZbJb29nZWrFgBUHLhFeR2saysrGT27Nkjjl21Nmb52phdt01Bd2nNRNskGG7ztQzCenjvh0Pee0qK5/8R8+RzMZ09kApg5rSAV+8cUL8tEASwMiabpbTDqxhIw1NL8vvaz5w5k/7+/qSrLgbvAnYhF2SVml8DrwKeTboQSSoEBliSJAFBEBBFEW1tbbS1tSVdTkkJglJsZpQTxzFVVVXMmTNnxLHZCJasgF0PSrrqCZCCbC+wLCZMw7Y7B2y7T+qfAdUA0BXDWshuXE9Xut8muVsSAoMxTzw7coCVTqdpbm5mcHAw6bKLQRY4AXgAaEq6mDFWC1wNvAYorS1cJWkLlN6vQiVJkibIxp5e8+bNy2v8Y0+X6MyrV5DNQLYdsitiskuHH2tisj2QLaPbEVRDtA7+8fzIY2fNmsXUqVMZGjKzyNMS4OSkixgnu2FTd0kCDLAkSZK2Sm9vL3Pnzs1rA4AHHo8hm1tGpzJTA8tXwdNLR07tttlmGxoaGuyBNTql3NT9rcDnky5CkpJmgCVJkrQV+vr6mDt3LlOnTh1x7P2PxQytjgmqk65aE6464P5HI/LJpBYsWGCAtWW+Cfwq6SLGyVeAw5MuQpKSZIAlSZK0FTKZDI2NjSxcuHDEsc8ui/nHczFMSrpqTagYqIa7HspvzeR2221HNpvdtERVo3IqUKpbyV4GNCZdhCQlxQBLkiRpK2SzWRoaGth1113zGn/3IzFUBZhNlI+wCmiDu/6e3xd9hx12oLu7O+myi1U/cDy5rQJKzQzgzUkXIUlJMcCSJEnaCnEcE0URO+64Y17j//DXGCL7YJWVOlj/dMxdD48cYM2bN4/58+fT39+fdNXF7CngnUkXMU52T7oASUqKAZYkSdJW6uzsZMcdd6SiomLEsbffEzO4LCZVn3TVmghxDDQF3HpvRD6bCu6+++7MnDmTwcHBpEsvdr8Fvp50EePAz2+SypY/ACVJkrZSf38/8+bNy2sZ4er1MX97MIaGINcbSSUtDIEIbrwjvy/2q1/9alKpFNlsNunSS8F/AjclXcQYi5IuQJKSYoAlSZK0lYaGhmhqamKfffbJa/xVf4igMumqNRGCOhh8NuaG20fOHVKpFK9+9avp6OggCFxjOkbeAixJuogx5DeGpLJlgCVJkjQG+vv72WuvvfIae9UtMdkVMaHLCEtbDEwN+P1fIjZ0jDx8l112YbvttqOvry/pyktJL3AckMcCzqLgvE1JZcsAS5IkaQx0dnayyy67MHPmzBHHLlsdc8dfIpjsMsJSlkoDMVx+XX5f5MWLF9PY2Gj/q7H3CHBK0kVIkraOAZYkSdIY6O/vp7m5mf333z+v8T+9NoYQUr4bK1lBI7Q+HHPtrfm1Ldp///3p6elJuuxSdSXwjaSLkCRtOd8ySZIkjYEoishms7zuda/La/xvfx/R/lhM0JR05RoPQQxMCfjZ9RH9eUyoWrhwIXvssQednZ1Jl17KPgvcmHQRkqQtY4AlSZI0BoIgYMOGDSxevDivZYQ9fXDp1RFMDXJhh0pKqhZYG/OjK/KbfXXIIYcwdepU+vv7ky691J0IPJN0EZKk0TPAkiRJGiMblxEeeeSReY3//mURrI1J1SVducZUDMwK+N0NEU8+l186eeihh9LV1eXug+OvGziW0mnqLkllwwBLkiRpjMRxTHd3d94B1rPLY66+KobmAPKbqKMiEFYC/THnXJDfF3WfffZhjz32oKMjj60KNRaeAE5OughJ0ugYYEmSJI2RIAhoa2vj1a9+NXvvvXdex3zpR1nojAlrkq5eYyIGZgfcf3PMX+7Pb/bV0UcfTVVVFZlMJunqy8mvgK8lXYQkKX8GWJIkSWMok8lQUVHBCSeckNf4vz8Rc9OvYpjrLKxSEFYAGfjU/2bzGj9jxgwOO+wwWltbXT448T4P/C7pIiRJ+THAkiRJGkNBELBu3TqOOOII5s6dm9cxZ//v8CysOnIzeFScImBOwN9uiPjjXfl9IY8//niam5vp6elJuvpy9XZgedJFSJJGZoAlSZI0xnp7e5k6dSonnnhiXuMf/UfMFRdFMNcdCYtZWA30w3+cm9/sq+rqao477jja2tpIpXxbnpBu4Dic/yhJBc9XSkmSpDGWSqVYv349xxxzDI2NjXkd8/Fzsww9H5OawtjNwoohTA83FdeLxRCGY3dvggiYG3DV5Vnu+nt+X8DjjjuOnXbayebtyXsQeFfSRUiSXlk66QIkSSoEURQxadIk6uvr7UMzRuI4Jo5jNmzYwODgYNnNMOnu7mbbbbflpJNO4sc//vGI49e2wFe+neXLP0yTao+3fjpIBOEkcu/2hiBMQdQLcXl9GTYvhlQaqM79e1gHURvEMbAlf/1jSDXB0IqYj38zv69cZWUlJ510El1dXUnfDeX8HFgMfDTpQiRJm2eAJUkqe3EcM3v2bJYtW8bll1/OQw89lHRJJaGuro7999+fN73pTURRRFtbG2EYJl3WhAmCgNbWVk488UR++ctf0tbWNuIxXz0/4tS3RGy3bwqWx1s+Vz6CcCYMrYOPfCXLulb4xidDtt8JsrZaIlUFURa++d2IP98X8ZkzQg4+NiBeA1GGUYdYQQBMC/jShzMsXZXf7KsTTjiB3XbbjeXLlxuaF46PAbsDhyZdyCvwm0VS2TLAkiSVtSiKmD17NnfeeSf/+Z//ybp165IuqaTceOON3HrrrZxzzjlMnjyZjo6Osvqw3tnZybbbbsu73vUuvv/97484Po7h3Z/O8tdbAsI6yPYy+o+rMYSzINMOx56Z4aa/5AKV1+4ZcPa+KVJ9EJV5t5+gDtY/A58b3inwtrsz3HBhmsPemiK1PB5diJWF1PyAx2+J+NoF+d3Y2tpaTj31VLq6uojjuKz+ThSBtwF/B+YlXcjLsEuepLLlJHJJUlmbPHkyzz77LB/5yEcMr8bJbbfdxuc//3lqampIp8vrd2cbe2GddNJJee9IeOeDMT/6XgRzgtFPtYhzM68ybfCmd/0zvJpUC4e/LoA+iCc6vIohrICwEcKGXE+upD+Cx70wdS6886jcHR4YhDe9L8Mffh0RzA1yywvzqTHOXRO9MSefnV/jdoCTTz6ZnXbaiba2NsOrwrMBeHPSRUiSXsoAS5JUtoIgoKamhp///Of09vYmXU5Ju/XWW/nrX/9KU1NT0qVMuJ6eHqZNm8aHPvShvI/5+DezLPlrRGpuAPnmIsMzr4Y2wBGnZLj5b7kEpqYKbrwozR4HpHJ9niby4iMIa4AqeP4pWPEsUDe8W1+Cs8CifqiogEt+kObYg/8ZYh29McSaF+QVtAUpYFbA5/87y9+fzO/Ozpw5k3e/+920trYaXhWu+4DTki5CkvRiBliSpLKVSqXo6enhkUceSbqUsvDwww8zadKkpMuYcKlUijVr1nDssceyzz775HXMwCCc+KEs9MWETYwc9gyHVwMtcOQpWf54dy5Mqa2GWy9Lc+CxKaJ1ca5J+UReew3EWfjUlyIWvzXDvm/L8PX/iSCd60OVmACy7ZCeBNdcmub4Q3JviQcG4Zj3Z/jDr7Iwb4TZYllILQj4628ivnZ+/mnchz70IWbNmmXz9sJ3MfC9pIvYDJcQSipbBliSpLIWRRFDQ0NJl1EWhoaGym4nwhdeexRFfPKTn8z7Htz7WMwnPpWFmQGpSl7+Y+tww/a+dXDEyRn+eE8uTKmtglsuSbPfMSmiZTFxlglt/5wKIGgIOP/nEef+X5b1G2JWrYv5z+9kueramGBqQKITkFKQXQfUwFWXhBz7+tzXpX8Qjnlflj/8KoLhmVgvCf6yEDYH9D0f87aP5r90cO+99+Ztb3sba9asKdu/C0XmY8DtSRfxL/zGkVS2/AEoSSprQRCU1c54SQrDkHiipwAViCAIWLduHYsXL+Z973tf3sd959KIX52XJVj4MklPBOFs6FsPh78zwx335e5vXTX84bI0+x+TIlo68eEVQFAB9MZcc+tLZyf9+uYIsjGppP/qbQyxquGaS18QYg3B0e/LcsuVWZgXkH5BiBVH5GbFVcIJ782wen1+39OpVIrPfe5zZLNZBgYGEr5wjcIvki7gX5TnD1FJwgBLkiRpwqxbt45///d/Z+HChXkfc9Insjxxa0S48F/6YQ2HV73rcuHVXx7857LBWy7NzbyKE5h5tUkK6IXevpf+UVcPMEhhvBN9wUysay4JedPrhntiDYdYf/hVBPOHQ6wI0lXAnIBPfyTD7/+Wf5bwwQ9+kL322ou1a9c6+6q4JLnYdXNsnCapbPnqKUmSNAGCIKC7u5uamhq++MUv5n1cNoJ/OzlD27Mx4fzhEOsFM6+OfEF4VVcDN12cZr+jU8RLY6KkwqtNF81mZ1kVXH6TguxaoBauuSTNkQfkbtpgBt50eoZbfxXBXAirgO0CLv5Glm9dnH/fq913350PfvCDrFy5Mukr1egV2tapCW5/IEnJKrS3D5IkTag4jslm8+9hoy2XzWbLfte1VCrFqlWrOPjggznzzDPzPm5VC7zhrRmi7ly/q3AGDLTCESdl+fNweDWpFn53cQUHHZubeZV4eDUsyPP/JW44xArr4frL0hyx/z9DrKNOy/DH30QE26W4/WcRp/1n/j8zKisr+cY3vkEcx/T29pb934EiVGhL9vwGklS2DLAkSWUtlUqRThfaL9hLUzqdJoqcPBDHMatXr+bjH/84r3nNa/I+7v4nY970tiGYFEAER52c5c8P5u7npFq48aIKDjomIF4eky2Q8OrlFGyGszHEmgTXX5rmDfv9M8R6+4ezfO+/Mxx7RmZUT/n5z3+e3XbbjVWrVrl0UJKkreCrqCSpbEVRRF1dHbvuumvSpZSF3Xffne7u7qTLSFwQBPT09JDJZDj33HNpbGzM+9ib7ow569QMn/hUlj/emwuv6mvg+v9Lc+BweBVlCysgCvL+nwViuCdWuhGuvyTNYa/NvV1u7YCPfTlLV2/+T3Xcccdx6qmnsmzZMmdeFS+/cJJUIAywJEllK45j+vv7Ofnkk6mqKrQ+vaXlda97HQcddBBtbW1Jl1IQUqkUa9euZcGCBXzjG98Y1bE/+VXEdy7NhVdzZsINF6R53bGpTeFVoX3cjvP+nwUkyM3EqpwMf7gu5HX7jP4t80477cSXv/xlWlpaGBwcNMCSJGkrGWBJkspaW1sb22+/Pd/97neZMmVK0uWUpAMOOIBzzjmH/v5+MpnRLb8qZalUimXLlnHUUUfxiU98YtTHT6qD636c5nUn5xq2F/qywaISDzefnwQP3Ruzat3oErempia+973vkU6n6ejocOlgcSu0uLXQ6pGkCWPTD0lS2Vu7di0HH3wwl156KTfccAMPPfSQvZrGwKRJk9h///055phjSKVSbNiwgTAMt/6JS0gURaxYsYIPfvCDLFmyhN/+9rd5H9vTC/9zUcT5uwXUzglILY+JiyTAigv5I3gMYSUwP+CmX0Qcf3qGgVHkrkEQ8D//8z8sXLiQZcuWGV4Vv0L7W1Vo9UjShDHAkiSVtY3LelavXs2sWbP40Ic+ZHg1hsIwpK2tjf7+fsOrzQiCgP7+flpaWvjKV77CmjVruPPOO/M6NorhZ9dFPPF0zDWXpJn7qoD4+ZgoouA/4hbsaroo18CdmXDRd7Oc/unR71D61a9+lUMOOYSlS5caXkmSNIYMsCRJIrecq6uri66uLnvVjKF4eKqNH+Rf3sbvvYqKCn7wgx9w6qmn8thjj+V9/ANPxux71BC/vjDNfkenCJfGZPuxUcRoZSGcBVQEfPGTWb70w9GHVx/72Mc46aSTWL58OXEc+7OkNBTyfEFJKiu+tZEk6V/EcexjjB7KTyqVorW1laqqKn784x+zzTbbjOr4Va2w/wkZLvpuBHMDwqkQjz5/KU9x7g1xuH1A1wZ481szWxRenXbaaXz4wx9m1apVZLNZwyuNF3+wSipbBliSJEkFIAxD1qxZw7Rp07joootobm4e9XOcfnaGD7w3Q2YgIL0oyL3R8+Puy4qzENZBsGPAPbdE7HN4hqv+MPolxCeffDKf+9znWLduHQMDA4ZXpaXQ/gb5zSWpbBlgSZIkFYgwDFm5ciVz5szh0ksvZd68eaN+jh9fEbH34UPc84eIYMeAsCHB2VjBKP//RIkhiCG9TQCT4dwvZNn3mAxPLR19VvGud72LL3/5y7S0tNDb2+ty2dKT9HerJGmYr7CSJEkFJAxDVqxYwdy5c7n88stZtGjRqJ/joX/E7Htshq9/NgsVkN4uIAyAQtmfIME5LXEEYT2kdgx48sGYw9+Y5VPnbFnCd8YZZ/CVr3yFlpYWuru7Da8kSRpHvspKkiQVmI0h1owZM7jsssvYbbfdtuh5/vNbWfZ9Q4Y//S6ChQHhTHLh0UQFSIW0+CqCMIT0wgCq4DtfzLLHIUPccueWpXof//jH+dznPseaNWsMr0qbM7AkqUD4SitJklSANi4nbGho4NJLL+Xggw/eoue555GYg9+c4YPvy7BuGYTb5ZYVFsxsrPEWQyqAcA7QHPD7q7IsfkOGT3w1y+AW3oOvfe1rfOxjH2PFihX09PQYXmkiFVIsLEkTyldbSZKkArWxsXsqleInP/kJJ5988hY/1/+7LGK3wzL871ey9PdBuCggrGPcg6zEPm3HEAQQzoRgbsDDd8ec9M4MR56c5d5HtqyqSZMmccEFF/Cud72LpUuXMjAwYHilieaMMElly1dcSZKkAhaGIa2trXR2dvKVr3yFL3zhC1v8XOvbY/7jq1l2f0OGH347S38/hAsDwsZcU/PxMOGftuPcUsGwOSA1J+CpB+HM92fY88gMv7huy9O6nXfemZ/97GcceuihPPvss2QyGXcblCRpAhlgSZIkFbhUKkVXVxerVq3i9NNP56c//Slz5szZ4ud7ZmnMh7+Q5VVHZjj3a1nWrobUNrkeWWHI2E2bCiYuwApiCGsh3Da3s+Ddf4x43+kZXvXGIc7/RbRVl3Tsscdy8cUXs/322/P888/nzmd4VS4Kbcme33iSypYBliRJUhFIpVIMDg6yZMkSDjjgAC6//HLe8IY3bNVzPr0k5lNfy7LHkUN88hNZ/n5XDI0QLggImyDc2neK8fh++g+AsBLC2ZDaBgYG4FcXR7zp7Rle+5YM//eriMHMlj9/ZWUln/3sZ/nWt75FRUUFq1atcslg+Sm0wKjQAjVJmjDppAuQJElSfjbO+lm6dClTp07lu9/9Lpdccgnf//736e/v3+LnXdsC//OTLP/zEzj8wBRvPyrgjYcGNG8XENYF0BlDJ8QZiBL++BymgCpgcpB7J9sSc9ftMdfeGvGr62KeWTo2Be6+++587nOfY5999mH16tX2uypfBkaSVCAMsCRJkopMGIZs2LCBqqoqzjrrLBYvXsy5557L3XffvdXPffNfIm7+C0xugIP3Czj24BQH7xewcLuAYHJAGADtMfQDGchmx+86UykIQnLvWCcB9QH0QbQm5i+/j7j9bzHX3hJx/2NjlzEEQcCZZ57J+973Pmpra1m6dOlwLYZXkiQlyQBLkiSpCG1cUvj888+z8847c+GFF/Lzn/+c8847j87Ozq1+/rZOuPr3MVf/PktNFeyxS8Dh+6fYczfYb/cUs+YA0wPCemAQ6AUGYsiQ29mwAnilcCsAUhCmc//c9KgAagKoHT6+KyZqg0cfjbn34Yi/Phhzx90xzy0f+4kxr371q/nUpz7Fvvvuy7p161i9erXBlQqNM8IklS0DLEmSpCK1cUnhmjVrqKmp4YwzzuDAAw/kRz/6Eddff/2YnadvAO56MOauB3OJ1KS6LNvOC1i8W8BOCwMWbQvbzwuY3xzQMAmoBpoAAmqrX/p8DfXA7ACGgK44F4D1Q6YH1m+IWbIi5smlMc8+H/P3J2Me/QcsWzV+n9unTZvGmWeeyUknnUQ6nWbp0qXEcWx4pUJUaD25JGnCGGBJkiQVuVQqRX9/P0uWLGHevHl873vf47jjjuPHP/4x999//5ifr6sHHnky5pEnXxwqTW6AaVMD5kyHmdMCmhrgkX+89Ph7H4n50keztHfEbOiADR0xa1tg1bqYtk7o7Zu4e3fqqafy3ve+l2233ZbVq1fT19dHKpVyl0FJkgqMAZYkSVIJ2Bi4tLS00NbWxutf/3r23XdfbrzxRi699FIef/zxca+hrRPaOmOeXgKvtNLp8Wdivvj9cWyelYejjz6ad73rXSxevJj29naee+45giBw1pX+lUmmJBUIAyxJkqQSEgQBURSxbNkyqqurefvb384b3vAGbrjhBq644gqeeOKJpEtM1FFHHcU73/lO9ttvP/r7+3n++eddLihJUhEwwJIkSSpBL2zyXlNTw8knn8yRRx7JHXfcwVVXXcWdd96ZdIkTpr6+nmOOOYbjjz+ePffck0wmw/Lly4miiCAIXC4oSVIRMMCSJEkqYUEQ0N/fz9KlS6murub444/n8MMP55577uGmm27iD3/4Ax0dHUmXOS623357jjzySI488kh22GEH+vv7WbNmDdls1uBK+YqSLkCSlGOAJUmSVAaCIGBgYIDly5dTUVHBAQccwEEHHcRpp53GHXfcwR133MGDDz7I4OBg0qVulebmZvbbbz9e97rXsXjxYmbMmEFHRwcrVqwgjmODK42W3yySVCAMsCRJkspIEARkMhnWrl0LwMyZM3n/+9/PSSedxNNPP83dd9/Nn/70J5544gm6u7uTLjcv8+fPZ4899mD//fdn8eLFNDc3A7BhwwaWLl26KbAyuFIJiLf+KSSpOBlgSZIklbGuri66urpIpVLssMMO7LHHHpxyyiksWbKERx99lHvuuYd//OMfPP3008RxYXx2bmxsZNGiRbzmNa9hjz32YNddd2XmzJmEYUhHRwdr1qzZNNbQSiXGb2hJZcsAS5IkSURRRFtbG21tbaRSKbbddlt23nln3vrWt9La2srSpUt57rnneOSRR1i6dCnLli17UVA0Xqqqqpg/fz7Nzc3stNNO7LzzzixYsIB58+ZRU1NDFEV0dXWxbt26pG+hJEkaRwZYkiRJepEoiujo6NjU3L2yspLdd9+d17zmNZx44on09vaydu1a1q1bx9q1a1m+fDlr166lpaWFjo4Ouru7Nz36+voYGhoiiv7ZCzsMQ9LpNOl0mtraWurr66mrq6OxsZHGxkZmzJjB7NmzmTt3LjNmzGDGjBlMnz6dIAiIooi+vj66urpKtvm8JEl6KQMsSZIkvaLBwUE2bNgAQBzHpNNppkyZQnNzM2EYkkqlCMOQKIro6emht7eX/v5++vr6GBgYIJPJEEURURRtGrvxUVVVRU1NDTU1NdTV1VFdXU0cx2SzWaIoYmhoiP7+/k09uyRJUnkywJIkSVLegiAgm83S09NDT0/PS/5sYzDV0NDA5MmTCcPwJTv/xXG86ZHNZjc92tvbyWazSV+iJEkqQAZYkiRJGhNxHJPJZMhkMkmXIpUqm7hLKluppAuQJEmSJEmSXokBliRJkiRtXqHNeIqTLkCSkmKAJUmSJEmbZ2AkSQXCAEuSJEmSJEkFzQBLkiRJkiRJBc0AS5IkSZKKg0saJZUtAyxJkiRJ2rxCa+JeaPVI0oQxwJIkSZKkzXPGkyQVCAMsSZIkSdq8QpvxZKAmqWwZYEmSJElScSi0QE2SJowBliRJkiRtnjOeJKlAGGBJkiRJ0uY540mSCoQBliRJkiQVB2eESSpbBliSJEmStHmFFhj5+U1S2fIHoCRJkiRtXqEtISy0QE2SJowBliRJkiRJkgqaAZYkSZIkbZ4zniSpQBhgSZIkSdLmFdoSQkkqWwZYkiRJkrR5zsCSpAJhgCVJkiRJxcFATVLZMsCSJEmSJElSQTPAkiRJkqTiYE8uSWXLAEuSJEmSNs/ASJIKhAGWJEmSJG2ePackqUAYYEmSJEnS5jkDS5IKhAGWJEmSJG2eM7AkqUAYYEmSJEmSJKmgGWBJkiRJkiSpoBlgSZIkSZIkqaAZYEmSJEnS5tnEXZIKhAGWJEmSJG2eTdwlqUAYYEmSJEmSJKmgGWBJkiRJkiSpoBlgSZIkSdLm2QNLkgqEAZYkSZIkbZ49sCSpQBhgSZIkSdLmOQNLkgqEAZYkSZIkSZIKmgGWJEmSJG2eSwglqUAYYEmSJEnS5hlgSVKBMMCSJEmSpM3z85IkFQh/IEuSJEnS5hXaDCybyksqWwZYkiRJkrR5BkaSVCAMsCRJkiRp8wptBlah1SNJE8YAS5IkSZIkSQXNAEuSJEmSNs8lhJJUIAywJEmSJGnzXLInSQXCAEuSJEmSJEkFzQBLkiRJkiRJBc0AS5IkSZIkSQXNAEuSJEmSNq/Qmrjbk0tS2TLAkiRJkqTNK7TAqNACNUmaMAZYkiRJkiRJKmgGWJIkSZK0eYU2A0uSypYBliRJkiRJkgqaAZYkSZIkbZ49pySpQBhgSZIkSZIkqaAZYEmSJEnS5jkDS5IKhAGWJEmSJG2eTdwlqUAYYEmSkhaQx2+4gyAgCPxFuCSNt1H8rPWHsiRpwhhgSZKSFg0/XlEqlSIIAuLYX4ZL0ngJgoAwDPMd7g9kSdKEMcCSJCVtCOgbadCGDRvo7+8nnU4nXa8klaw4jmlra8t3eH/S9UqSyocBliSpEKwbacDf//53nnzySWbNmkU2m026XkkqKXEcU1dXR09PD7fccks+h2SB1qTrngAuk5SkAmGAJUkqBI+PNGBgYIBvf/vbZLNZttlmG2diSdIYSaVSTJ06lebmZs477zyeeuqpfA5bDjyfdO0TwGWSklQgfPcvSSoEfwFOHWnQXXfdxamnnsonPvEJdtxxR2pqagDsiyVJWygIAoaGhli5ciXnnnsul19+eb6H3g8MJF2/JKl8GGBJkgrBdeQauY84M/jee+/lHe94B3vuuSeTJ08mjmMDLEnaQqlUir6+Ph577DG6urpGc+ivk65dklReDLAkSYVgDfAr4MR8D/j73/+edM2SVK7WAlcnXYQkqbzYA0uSVCi+kHQBkqS8fBF3IJQkTTADLElSoXga+ErSRUiSXtEDwI+TLkKSVH4MsCRJheS/gD8nXYQkabP6gbckXcQEs8miJBUIAyxJUqE5Gngk6SIkSS+SBQ4Dnk+6kAnm5yVJKhD+QJYkFZpO4ADg1qQLkSQBsBo4ELgz6ULkjDBJ5csAS5JUiLqAfwO+lHQhklTmrgZeDdyVdCECIEi6AElKigGWJKmQfRF4FfBToDfpYiSpjNwMHAWcAKxNupgEOeNJkgpEOukCJEkawSPAe4HPAG8C9iIXas0GqpIuboxMAWo39we1YUhjOk029jNUPkKgLZOhP4pebkgX0JF0neOoGpi2uT9IBQHTKioI8BN5PkKgL4poz2RebkiW3NK6UpAF1gNPAg8BvwMeS7ooSZJeyABLklQs1gIXDT9KzSXAqZv7gzdPn843Fy1iSX9/0jUWhXlVVZz51FPc1Nr6ckMuBP4j6TrH0VHADZv7g2kVFfx2992pTaXoffmAT8Oaq6q4Zv16Pv700y83ZDUwL+k6JUkqFwZYkiQl72WneKSDgJowpCblqv981IQhYfCKLWKGkq5xnL1s0hkANakU1amUM7DyUBOGVL7y3ztvY3mw55QkFQgDLEmSkveyr8eZOKY3m6XPGTN56c1mR1puWZF0jeOs+uX+IIZN30d+P42sN5tl8JXvk8FGeTColKQC4a9zJUmSJEmSVNAMsCRJkiRJklTQDLAkSZIkafNcKipJBcIAS5IkSZI2r9AaxhmoSSpbBliSJEmStHmFFhjZVF5S2TLAkiRJkqTNK7QAS5LKlgGWJEmSJG1eoS0hlKSyZYAlSZIkSZtXaDOwXEIoqWwZYEmSJEmSJKmgGWBJkiRJUnEotBlhkjRhDLAkSZIkafMMjCSpQBhgSZIkSZIkqaClky5AkiS9vElhyJzqaoZi+/bmY5vqamrDMOkyClIYBMypqqI2laI3cmO1kcytrmZqRUXSZSh5hfaXxRcDSWXLAEuSpAL2ZG8vl61ezdrBwaRLKQrTKipY2teXdBkFqS+b5dfr1lGZSjFogDWiKRUV3NXRkXQZSp4rViSpQBhgSZJUwG5ra+O2traky1AJaM9kOPuZZ5IuQ9LW2apA7dWTJjGrspLDJk9memUl/YbZkoqIAZYkSZIkbV6hLdkbdT17TZrEvg0NvG7yZHaqrWVqRQX9UUSMHeolFRcDLEmSJEkT5rTmZt45cybrJ2BpdGNFBfd0dHBnRwe3trWRHX0/wUILsPJSmUrxpqlT2a+xkROmT6cuDOnMZOjIZFjS10cqGJ/oarukL1xSSTPAkiRJkjQhTmtu5uuLFtGZyTCnqmrczxfFMbs1N/OuWbN4uq+P1QMD3N7ezu1tbSzt78/nKYpuktJ7Zs/mHTNnsmd9Pb1RxLrBQVYNDBAOh1bjFV5J0ngzwJIkSZI07k5rbubrCxeyrL+fviiasO7oGzKZTbtwbltdzdHTprGkr4/ftbZyd2cnN7a2vtLhRZP27N3QwPubmzlxxgxWDw7y9PCGFgFsCq8kqZgZYEmSJEkaV6c3N3POokUsn+DwCnIBThTHdGQyAKwbGqIuleKMOXN4X3Mzf+no4JLVq18uyCr4JYTpIODz227L6c3NADzU3U0qCIoneZOkPBlgSZIkSRo3p8+ezTkLF7K8v5/eCQ6vNicF9EURT/f1EQKLGxp4/eTJXN/SwueffZbVW9Gbqz4MqQ1DKoKAMAhIkUvAYnIhWiaO6Y0iurNZotH343qJxQ0NfG3RInaoqWHN4CB92ayzrSSVLAMsSZIkSePitNmzOWe77VhRIOHVC20Ml5YPDJAOAl7f1MQ1r3oV17a08NXnn3/Z48IgYEZFBXOrq9mupoZZlZVMSqeZXlHBzOF/f6UAqyebpT2TYf3QEK1DQ3RmMqweHOT5/n5WDQzQMjg44rSv+jDk4/Pnc0ZzM93ZLMsGBnLXZHglqYQZYEmSJEkac6c1N3POwoWs6O+np8DCqxdKkQuXVg0OUh+G/Mf8+SxubORbS5fyl/b29hSwXW0te9TXs1NdHdvX1DC3qoqGdJpJYUhFKkUMDEURQ3FMNo43hVYbBS/4ZyoISAfBppArBgaGZ2W1ZzKs7O/nuf5+lvT18XhPD8/29W1a/gj07N/YyH8vWMDOdXWsGRykP4pcLiipLBhgSZIkSRpTG3terejvpyebLYqZQQHQnc3ycHc3r66vr/j2dtu9/rqWllO3ra5ml7o6plZUUJFK0Z/NMjA8m2pDJrNpKeCWLAjceFfC4TBrekUFc6uqeN3kyWSH+3atHhzkqZ4e7u7sBFj05YULa4C+jbsoFv6dlaSxYYAlSZIkacycPnv2P8OrKCqK8GqjABakg+CU5/r63l4bhrud1txMfzZLXxS9KKwaKxufLTMciA0APdks8M+ZWttUVbFTbS1HTZtGXzZ7Ukcms2cmjm8N4BbgT0B70vdNkiaCAZYkSZKkMXHaC3Yb7C2SmVfDXg2cCbwTmBQGAQNRxOrh3lJJiOKYwThmEOgabs4eANk43jmAnYEPAUuAq4GrgD8nfRMlaTwV6lJ0SZIkSUXktOZmvr4xvCqemVc7Af8H3EsuwJqUdEEvJzs8S+tfLAA+Tm4m1l3Ap4CZSdcqSePBAEuSJEnSVjlt9my+sWgRywpwt8GXUQN8Efg7cBoQJl3QGNgX+CbwEHB2iVyTJG1SBK8tkiRJkgrVac3NfGPRIpb299NXHOHV68nNVvpvoCrpYsbBTOBbwN+ANyRdjCSNlSJ4fZEkSZJUiDYuG1w6MFAs4dXZwG3Aq5IuZALsA9wMnAfUJV2MJG2tIniNkSRJklRoTmtu5usLF7KsOGZeTQF+S25mUrn5d+Ae4MCkC5GkrVHgrzOSJEmSCs3pGxu2F8fMq33JNWk/IelCErQLuV0KP550IZK0pQr8tUaSJElSITl99mzOWbjwn7sNJl3QKzuFXC+ohUkXUiC+A1wMFMUWkZL0QgX+eiNJkiSpUJw2ezbnbLcdKwYGiiG8+i/gMgxr/tV7gD8B05MuRJJGo8BfcyRJkiQVgtOamzln0SJW9PfTU/jh1Y+ALyVdRAE7ELgT2CHpQiQpXwX+uiNJkiQpaRt7Xq0cGKAnmy30DxG/AM5KuogisB25vlh7JV2IJOWjwF97JKl4HX300Rx22GFJlyFJ0lY5ffbsF8+8Cgp6Rd5vgROTLqKIzAD+SK7RvSQVNAMsSRonO+ywAzfddBM77rhj0qVIkjRqTek0F+y8M5/ZdluW9/cX+syrALiW8t5pcEs1AL8H9k66EEl6JQX8GiRJxe25554jnU5z2223sf322yddjiRJeduvsZFLd9mFN0+fzvqhoVzD9sKeefUb4JikiyhijcBNwG5JFyJJL8cAS5LGSTqdBmD27Nn8+c9/NsSSJBW8ujDk7PnzuWLXXdm+tpZHuruJ4rjQPzRcjDOvxsJU4HdAc9KFSNLmFPhrkSQVvxUrVjBz5kz+8pe/sGjRoqTLkSRps17X1MTPdt2Vz267LasGB1k/OEi6sGddAXwHeE/SRZSQueRmYlUlXYgk/SsDLEkaZ2EYsmLFCmbMmMFdd93FggULki5JkqRNZlZWcsFOO3H5rruyS10dD2+cdVX44dWHgY8nXUQJ2h24MukiJOlfGWBJ0gQIw5Dly5czbdo07r33XhYuXJh0SZKkMje9spL/mDePq3bfnX+bMoWVAwOsGRgohllXAIcB30+6iBJ2LPDVpIuQpBcywJKkCZJOp1m+fDlTp07lnnvucTmhJCkRjek0H5s3j2te9SrO3mYbasOQFQMDZItj1hXAHODqpIsoA58Djk66CEnayABLkibQC0Osu+66i+222y7pkiRJZeZNU6fyvzvtRF0qxTN9fXRnsxRFbPVPVwH1SRdRJi4HpiVdhCSBAZYkTbiNIda0adO488472WGHHZIuSZJURl7X1MRz3d10Fl9wBfAVYJ+kiygjjcAlSRchSQDppAuQpHK0McSaN28ef/rTnzj44IN56qmnki5LBWj/xkbePmMGLUNDSZdSFKZUVPDT1at5uLs76VIKTkM6zUfmzqUylWIwipIup+A1VVTwYGcnP1u7NulSxtScqipe29jIhqGhYgyv9gc+n3QRZego4L3AxUkXIqm8GWBJUkLS6TQrVqxg7ty53HbbbRx66KE8+eSTSZelArPnpEl8dJttWNHXl3QpRWFudTV/7egwwNqMujDkzDlzqE2l6DXAGtHc6mp+vmZNyQVYBzY10VxVxVO9vcUWYIXA/yVdRB4ywD+AFcDTw4/O4f8fk1sBUwtsC+w8/M8dgaqkCx/B/wDXAS1JFyKpfBlgSVKCwjDcFGL98Y9/NMTSS3RmMqzs62Npf3/SpRSFbBzTk80mXUZBysYxS/v7qUml6DPAGtFgHLNucDDpMsbcNtXV9EdRsYVXAJ8Cdkq6iJexAvgjcAdwD/AkucAqXzsCBwCHAocD05O+oM2YTG5XwrOSLkRS+bIHliQlbGOINXv2bG699VZ23HHHpEuSJJWowyZPpj0zmmylIMwH/ivpIv5FDFwPnAK8Cng3cBHwKKMLrwCeGj5243N9CHgw6QvcjDOH65OkRBhgSVIB2BhiNTc3c9ttt7H99tsnXZIkqcQcOnkyi2pri3GW4leB6qSLeIHLgH2BY4CfAW1j+NxrgPOAvYBTgYeTvth/8Y2kC5BUvgywJKlAvHAm1p///GdDLEnSmJpXXU1jOs1QHCddymjsDrwr6SKG/QN4A7lg6d5xPldMLih7NfBJoCvpix/2RuDApIuQVJ4MsCSpgGwMsWbOnMkdd9zBrrvumnRJkqQScXBTE62Dg8X2AeDLSRcw7FZyuyD+YYLPG5FroL54uIZC8N9JFyCpPBXZ65cklb4XzsT62c9+lnQ5kqQSkAKaKysZKq4G/q8Gjk+6CODHwL8BrQnW8ORwDeckfTOG69gr6SIklR8DLEkqQGEYMjQ0REVFRdKlSJJKwBFTp7JjXR2dxdX/6iNJF0Bu98MPJF3EC3wOOD3pIoCPJ12ApPJjgCVJBayvry/pEiRJJSAL1IYhRTT/ai5wYsI1nA6cm/SN2IyLgDcBgwnWcCK5r5EkTRgDLEmSJKnE7d/QQFcmQ5B0Ifl7N1CT4PlPJRcUFaobyYVYmYTOnyZ3jyRpwhhgSZIkSSVuz/r6Ytp9MAWcnOD5P0BuB8BC9wfgLQme/yQopkxUUrEzwJIkSZJK2KQwJAgCssUTYL0O2Dmhc59Lrml7sbiW5HYF3A3YN+kbIKl8GGBJkiRJJex1kyfz6kmTaMsktdps1N6c0Hn/QK5pe7H5MnB3QudO6mslqQwZYEmSJEklLI5j4jgulrVeaeCIBM7bArwz6YvfCkntTHg4LiOUNEEMsCRJkqQS1pHNJl3CaLwG2CGB834IWJ/0xW+Fx4AfJnDeVwG7JH3xksqDAZYkSZJUwnapqyum/levT+Cc1wG/TPrCx8AXgbYJPmcAHJj0hUsqDwZYkiRJUgk7fMoUBosnwNpngs8XA59M+qLHSCvwnQTOe1DSFy6pPKSTLkCSJL28iiCgPgypC8OkSykK9WFIOrAdy+YEQF0YUpNKkfIejag+DKlOlcbvenuy2WJpUlQN7D3B57wY+EfSFz6GfgicDTRM4Dn3IPe5smh2CZBUnAywJEkqYANRRFsmQ0fx7B6WqPowLKaZJhMqBjoyGQZSKfqjKOlyCl5NGNJTXL2jXlZvNlsswe52wLYTeL4s8PWkL3qMtQOXkuvpNVF2BBZSWkGgpAJkgCVJUgH7zfr13LRhQzH1r0lUKgjoMezbrJbBQY57+GECcmGWXlkqCBgsgaBvm+pqdqytpbM4wrg9Jvh8VwPPJH3R4+BCJjbAqiAXPhpgSRpXBliSJBWwgShioAQ+RCt5ETiTrwztVl/PznV1/KO3txhmYe00wef7adIXPE4eAu4G9p3Ac+4G3Jj0hUsqbaWxsF+SJEnSS/Rks8W0hLB5As+1DLg56QseR1dN8Pl2T/qCJZU+AyxJkiRJhWDBBJ7rRmAw6QseR3+Y4PNNTfqCJZU+AyxJkiRJSWtgYgOsPyV9wePsIeDZCTxfTdIXLKn0GWBJkiRJStpkJm4WzwC5gKeUZYCHJ/B8DUBV0hctqbQZYEmSJElKWg0TF4AspTx2zHt6As81FZcRShpnBliSJEmSklbBxO2QvpbcDKVS99gEnmsS0Jj0BUsqbQZYkiRJkpKWZuI+m6xN+mInyPIJPFfl8EOSxo0BliRJkqSkTeTnkpakL3aC9E/guVJAmPQFSyptBliSJEmSkhZP4Lk6k77YCRJN4LmC4YckjRsDLEmSJElJm8iwpVw+A03kPY2Z2BBSUhkqlx/ekiRJkgpXxMQFLpOTvtgJMpFL+oaAwaQvWFJpM8CSJEmSlLQhIDtB55qR9MVOkKoJPFcv0J30BUsqbQZYkiRJkpI2wMTN4CmXAGvWBJ5rA+XTHF9SQgywJEmSJCWtY/gxEaYzsbOTkrLbBJ5rA87AkjTODLAkSZIkJW0DsHyCzjUf2CnpC54A20/gufqTvlhJpc8AS5IkSVLSYuCZCTpXGnhN0hc8zgJg1wk8n7OvJI07AyxJkiSpRNWkUlSnUmTjOOlS8rFmAs/12qQvdpztzMQGWBP5tZNUpgywJEmSpBK1YmCA1YOD1KSK4m3/sgk816FAZdIXPI4OJjcLa6I8nfQFSyp9RfFKJkmSJGn0Hunu5sGuLiZXVCRdSj7+PoHn2g7YP+kLHkdHT/D5nk36giWVPgMsSZIkqYRVplJExbGE8B9AzwSe74SkL3iczAQOmeBzrkj6oiWVPgMsSZIkqYRVBBO5kmyrrAEen8DzvQ2oTfqix8GpQM0Enm858FzSFy2p9BlgSZIkSSVsIIqSLmE07p/Ac80G3pz0BY+xAPj3CT7nE0B70hcuqfQZYEmSJEkl7JqWFiqLo4k7wH0TfL6PJH3BY+xkYNsJPufDSV+0pPJQNK9kkiRJkkavM5Mppjf9f53g8+0DHJn0RY+h/07gnH9L+qIllYciei2TJEmSNFoN6TTpIKBIFhI+CTw0wedMIvQZDx8nt7viROoD7kn6wiWVBwMsSZIkqYRtGBqiK5stpmbut0/w+V4LHJH0RW+l2cBXEjjv3bgDoaQJYoAlSZIklbA/t7fzQFcXTel00qXk65YEznlw0he9lY4A6hI4bxJfK0llygBLkiRJKgNFM/8K7gBWTfA5lyd90VupM6HzXpf0hUsqHwZYkiRJUomrTqWKpQcWQDdw4wSe73bgsqQveivdAFw1wef8G/BI0hcuqXwYYEmSJEkl7qYNG6hNFdVb/19NwDmeBj5Pbvldd9IXvJUGgLcAH2TidgW8JOmLllReimYhvCRJ5Wh+dTW719XRExXR3IkE1aZSPNDVxZrBwaRLKThVqRT7NTYSAtmkiykCNakUqwYGeKi72HONnHVDQ0xKp8n29xMWRzP328jtSLjTGD9vL/A74JfA9eR20SsVMfD/hh+vA94OnAA0j8O52sndQ0maMAZYkiQVsDdOncqPd9yRZ/tK6TPW+Nm2upq3PfooV61fn3QpBWdKRQUX7rQTtWFIb9YIayRzq6v55dq1vPvxx5MuZUws6+tjeX8/NakUg3GcdDn5GAIuBr45Rs/3OHAF8BvgiaQvbgL8afjx3+RCrBOBwxi7VmgXkwuxJGnCGGBJklTAerJZVg4MOKMoT+kgoM/ZapuVjWPWDA5Sk0p5j/IQBAEbhoaSLmPMPNDVxcqBAbatrmYwk0m6nHxdCvwXW767XoZcL63LgN9CMbUBGzOtwIXDj72BtwJvAxZuxXNmgP9J+sIklZ+iWggvSZIkacs80t1NVXH1wVpDbtbUaD0NfAV4NXAc8GvKM7z6V/cBnwF2BU4Gfr+Fz/NdYGXSFyOp/BTVK5gkSZKkLfO3zk4aKyooigWE//TdUYz9HbnZRbuSm7n1aNLFF6h+4OfAkcCewNfJhX75aAO+lPQFSCpPBliSJElSGUgBURyPWROkCfIYcPkr/PkS4FvkZlsdRW62Vems/Rx/DwH/SS70ezNwDa+8z8OHKf4dGyUVKQMsSZIkqQxc39LCvZ2dTK+sLLZZWB8FHvnXyyHXmHw34NPA35MussgNAVcBxwO7k2v+/q8z2H4A/CzpQiWVL5u4S5IkSWVgKI65cNUqfrLTTqwvro0hNgD7AqcDk8gtFfx70kWVsCeALwNfBd4AvIpcgHhT0oVJKm8GWJIkSVKZuLalhfd3dLBdbS3rhoaKaTlhH/DDpIsoMxG5Ru9b2uxdksaUSwglSZKkMhHFMResWkVTRUUxhVeSJBlgSZIkSeXk+tZW7uvsZEbx9cKSJJUxAyxJkiSpjGTimPNXrqQxbTcRSVLxMMCSJEmSysyNGzZwX2cnMysqnIUlSSoKBliSJElSmRmKIi5YtcpZWJKkomGAJUmSJJWhG1pbubery15YkqSiYIAlSZIklaGhKOKClSuZnE4Tx0ZYkqTCZoAlSZIklakb3JFQklQkDLAkSZKkMpWJY85ftYqmdNoAS5JU0AywJEmSpDJ2fUsL93V1Mb2iIulSJEl6WQZYkiRJUhnLxDEXDe9IGNkLS5JUoNw3V5KkAlYXhsypqqI/ipIupSjMraqiJuXv5zYnDAJmVVZSG4b0ZrNJl1Pw5lRVMaWMZiRd29LCe5ubWVRdzYZMJulyJEl6CQMsSZIK2O9aWzn6oYfoMcDKS20qxQNdXUmXUZA2DA3xviefJASMr0ZWk0qxamAg6TImzMZZWD/cYQdahoZIBUHSJUmS9CIGWJIkFbBl/f0s6+9PugyVgIEo4va2tqTLUAG7rqWF05yFJUkqUM6xlyRJkkQmjrl49epcL6yki5Ek6V8YYEmSJEkC4Jr163mwu5tp6TS2c5ckFRIDLEmSJEkAZIdnYTWVUQN7SVJxMMCSJEmStMlv163jwa4uplVUOAtLklQwDLAkSZIkbRID/7d6NZPT7vckSSocBliSJEmSXuS369Zxf1cX052FJUkqEAZYkiRJkl7iwlWrmFxRQZB0IZIkYYAlSZIkaTOuWr+e+zo7mV5Z6SwsSVLiDLAkSZIkbdYFq1bRlE47C0uSlDgDLEmSJEmbdW1LC/d1dNgLS5KUOAMsSZIkSZsVxXFuFpa9sCRJCTPAkiRJkvSyrm9t5b7OTmbYC0uSlCADLEmSJEkvKxPHnL9yJY3pdNKlSJLKmAGWJEmSpFd044YN3NfZyUx7YUmSEmKAJUmSJOkVDUURF6xa5SwsSVJiDLAkSZIkjeiG1lbu7eqyF5YkKREGWJIkSZJGNBRFXLByJZPTaeLYCEuSNLEMsCRJkiTl5QZ3JJQkJcQAS5IkSVJeMnHM+atW0ZROG2BJkiaUAZYkSZKkvF3f0sJ9XV1Mr6hIuhRJUhkxwJIkSZKUt0wcc9HwjoSRvbAkSRPEAEuSJEnSqFzb0sL9XV1McxaWJGmCGGBJkiRJGhVnYUmSJpoBliRJkqRRu66lhQe6u52FJUmaEAZYkiRJkkYtE8dcvHp1bhZW0sVIkkqeAZYkSZKkLXLN+vU82N3NtHQaFxJKksaTAZYkSZKkLZIdnoXV5DJCSdI4M8CSJEn/v737j667vu87/rq/JNky/omRf5ACoxC36YHRJM1CyzlhJ6fjGNbTk5asOUkPNKMpDJrsrOlSTLplZ+TkjPVsJT9IGkrTpjkNkECXADkk2RoWkoylJlBCAwGckdiSjC3JsizbsqR77/6wnSMc2xh8pe/3Oo/HOT5HupLufetrWdZ96vP9fAFesXt37Mhjh65IaBUWAPNFwAIAAF6xdpI7hoezol4vehQATmECFgAAcFLu3bEjj+7Zk9VWYQEwT/yaBABKrLdaTX+tlmbbU8ITUa1Usnd2NtOO10+oJjmtXk8lERhOQLVSyXSrlb3NZtGjdI0/HxrKJzZsyMjMTNGjAHAKErAAoMR+Y/XqfPDcc/PDqamiR+kK63t7c/0zz+Qro6NFj1I6p/f05O5f+IX0VauZarWKHqf01vT25v6dO/Pe554repSu8bc7d+aadevys4sXZ8f0dCpFDwTAKUXAAoAS661Ws6Jez7i9ZU7Iino9PRVPm4+mkmRZvZ5F1Wr2C1gvaUW9nv5aregxus7tQ0P5sw0bsnN6uuhRADjF+GkYAEpspt3OZLPpNKYTNNlsZtbpg0fVTrK32Uyr3RawTsBks2ml2ivwxZGR/O7u3QdXYc3MWIUFQMfYxB0AAOiIVrud24eGsrzREK8A6CgBCwAA6Jj7R0ezeWIiZ/T0uGAAAB0jYAEAAB0z227nk4ODWWbvPgA6SMACAAA66ktjY9k8MZGBRsMqLAA6QsACAAA6aqbVyu1DQ1ZhAdAxAhYAANBxD4yO5u/37LEXFgAdIWABAAAdN9Nq5fbBwayo19NuS1gAnBwBCwAAmBcPuCIhAB0iYAEAAPNitt3OJ4eGsrxeF7AAOCkCFgAAMG/uHxnJ5j17srrRKHoUALqYgAUAAMyb2XY7f3HoioQte2EB8AoJWAAAwLz64shIHt2zJ6dbhQXAKyRgAQAA88oqLABOloAFAADMu/tGRvKdyUmrsAB4RQQsAABg3s222/nU8PDBVVhFDwNA1xGwAACABfGFnTvz2ORkTq/X40RCAF4OAQsAAFgQzUOrsJY7jRCAl0nAAgAAFsy9O3bksUNXJLQKC4ATVS96AADg2JbX61m/eHGqlUrRo3SFtX19Oa1WK3qMUqpXKvknixalv1rN3pYdiF7K2r6+rO3pKXqMU1I7yR3Dw7nt/PMzMjNT9DgAdAkBCwBK7Bvj43nfM89k3JO8E7K0Xs/jk5NFj1FKu2dn84Ef/CD1SiWzbeteXsqSej1P791b9BinrHt37Mi/Xrs25y5alJ0zM5HoAXgpAhYAlNjjk5OCDB2xt9nMJ4eGih4DfuzPh4byiQ0brMIC4ITYAwsAAFhwf7tzZzZPTGR1T4+9sAB4SQIWAABQiNuHhrK8XncKIQAvScACAAAK8cWRkWzevTurXZEQgJcgYAEAAIVotdsHV2E1GlZhAXBcAhYAAFCY+0dHs3liImfYCwuA4xCwAACAwsy22/nk4GCW1V0gHYBjE7AAAIBCfWlsLJsnJjJgLywAjkHAAgAACjXTauX2oSGrsAA4JgELAAAo3AOjo/n7PXvshQXAUQlYAABA4WZardw+OJgV9XrabQkLgBcTsAAAgFJ4wBUJATgGAQsAACiF2XY7nxwayvJ6XcAC4EUELAAAoDTuHxnJ5j17srrRKHoUAEpEwAIAAEpjtt3OXxy6ImHLXlgAHCJgAQAApfLFkZE8umdPTrcKC4BDBCwAAKBUrMIC4EgCFgAAUDr3jYzkO5OTVmEBkETAAgAASmi23c6nhocPrsIqepiT0erq6QFKQ8ACAABK6Qs7d+axycmcXq+n204krNRqaU5MpLVvXyq1WtHjAHQ9AQsAACil5qFVWMu77DTCSq2W6a1b03fhhVn1u7+b5u7dRY8E0PUELAAAoLTu3bEjjx26ImE3rMI6HK8aa9bk7I99LItf//rMjo8XPRZA1xOwAACA0monuWN4OGf39aV66PWyqtTrmd66NfWBgZx9553pO+OMTD//vFMIATpAwAIAAErt3h078t+3bs3P9feXNmJV6vVM/+hHaQwM5Jy7707f+efnQCJeAXSIgAUAAJTepi1b8udDQ3lNf38WVatptsuTsQ7Hq/oZZ+Tsu+5K33nnZXrbtlSKHgzgFFIvegAAAIAT8e+fey4zrVbevmZN1vT2ZnBqKlOtVmqV4lLR3Hh1eOXV9LZtiZVXAB1lBRYAANA1bvrBD/LrTzyRe3bsyLJ6PWf29hZ2SuGL4tVddx2MV4OD4hXAPBCwAACArvL45GTe88wzue77388Pp6ZyVl9fVtTraS3gaYU/Ea9e/eocGBxMqp5iAcwH310BAICu9LVdu/IvHn88m7ZsyQ+mpnLOokXprVbnPWRVarWD8Wpg4EXxqiJeAcwb32EBAICuNdNu5zPbt+et3/1uPr19e3qr1aw9dFrhfGSsSq2W6a1b01izJufcead4BbBAfJcFAAC63v5WKzdt2ZK3fve7+dbu3dmweHFWNxqZ7eBqrLnx6qzPfla8AlhAvtMCAACnjKf37cvvPPVU/t2zz+b/TU3lF/r701etnvRqrMPxqr5mTc628gpgwdWLHgAAOLbLTz89//bMMzM4PV30KF1hoNHIzT/8Yb45Pl70KKWzstHIfzvvvPRVKplawI2uu9XqRiMP7dqV//qjHxU9Cq9Aq93OX2/fns/v3Jn/ePbZuWzVqgz09GTn9HRaSSov8/7mrrw6+84703f++TmwbVsqrjYIsGAELAAosfW9vbl0xYps2b+/6FG6wll9ffmzoaGixyilnmo1b1y6NItrtexrNosep/TW9/XlBeG46+1vNvNHW7bkjuHh/Odzzsk/X7kyu2ZmMjw9nXrlxDLWi04bFK8ACiNgAUCJ7Ws2s316OjtnZooepSv0VquZarWKHqOUWu12ds7MZFGzmf2O0UuqV6vZPTtb9Bh0yLP79uW3/vEfc+UZZ+Rd69bldUuX5ql9+zLbbh93T5VKvf7jqw2efeed6RWvAArjhG0AAOCnwud27MiVTz6ZPxsczKt6e3NmT08qSY6WdA/Hq8bAQM65++70nX9+psUrgMJYgQVQUtVqNS2rJACgo8ZnZ/NHW7bkf2zZkt9ZuzZvXLYs9UolM0fsDdfcvTs9Z52Vgb/8y/Sdd554BVAwAQugpGZnZ9NoNLJu3bqiR+Fl6OnpyfPPP1/0GHTQ2WefnekC9kLq6enJ8PBwDhw4UPQhoEPWrVvnlxMlMdtu55EDB/Jsu53f6OnJqnr9J06tbU5P59f/4A/ymle/OuPbtiXiFUChBCyAkhobG8vAwEAeffTRokfhZVi8eHG+9a1v5eGHH85tt92WcVfD60qrV6/ODTfckF/5lV/J6173uuzbt2/BZ1i8eHG2bNmSr3/96/mbv/mbfPvb3y76sPAKXXXVVXnTm96Uyy67LPV6PbP21iqN/c1mdszMZKbVSvWITd0r9XpWNxqZ3L5dvAIoAQELoKTa7Xaq1WoWLVpU9Ci8DLOzs7nsssty2WWX5V3velduv/32fPzjH8/Y2FjRo3ECBgYGcv311+eaa67J2rVrkxyMyUX8O5ydnc1rXvOaXHTRRbn22mvzuc99Lrfeems2b95c9GHiBF111VW57rrr8oY3vCFJsnv37rTb7TQajaJH45BFSVYe5+3T09OZmZlJ5QSvWAjA/BGwAEqqUqmk3W4XsvKDkzM0NJQkWbNmTW6++eZcffXVueGGG/LlL3+56NE4jre85S358Ic/nPXr12f//v0ZHBxMpVIp9InrgQMH0m6309fXl3e84x1529velve///259dZbs3///qIPGcdw7rnn5sMf/nA2btyYJNm+fXtarZYI0qX8vQGUg6sQAkCHHY4eo6OjGRoayqte9ao8+OCD+eAHP1j0aBzDxz/+8dxzzz1ZuXJlBgcHs2vXrlSr1VI8ca1UKjlw4ECGhoYyMTGRD33oQ3n44Ydz2mmnFT0aR7Fx48Y89dRT2bhxY1544YUMDQ2l3W6X4msJALqZgAUA82RuyBobG8umTZty8803Fz0WR7jtttty7bXXZufOnaUKV0eqVCqZmprK8PBwXvva1+ahhx7KkiVLih6LOS6//PI88MADabfbGRwctOoKADpIwAKAeXY4PIyMjOSmm24SsUrktttuy3XXXZcdO3Z01T43g4OD+cVf/MV8/etftxKrJK644orcd999mZqayo4dO1Kt+jEbADrJ/6wAsAAqlUqmp6dFrBKZG69mZ2e7Jl4lSbVazbZt23LRRRc5nbAEDserAwcOZGRkJDVXrAOAjrOJOwAskMN7GY2Ojuamm25Ku93OH//xHx/3YxqVSpbUaun3hPiELKnVUj+BEPWxj32sa+PVYbVaLdu2bcuFF16Yhx9+OJdcckn27NlzzPevJOmv1bKoWk21Cz/fhbakVkvfCayiuvzyy3+88kq8AoD5I2ABwAKqVquZmprK6Oho3v/+96dWq2XTpk3jx3r/fxgezv85cCA/nJoqevSusK23N0/s2nW8dxn5xCc+kd/7vd/r6nh1WK1Wy9atW3PhhRfmG9/4Rt70pjf9cNcxPv8Xpqfzf598Mn3VaqZaraJHL701vb159PhfSzO/9mu/li984QviFQAsAAELABZGNcmGJBdWq9U1U1NTi0ZHRys33nhjli5desmzzz571A/qrVbz7Wo1zaKn7xLbk7y12cxMu33Ut19wwQUb3/nOd1YOxatWpVLZd+jDHk/y/aLnfxnWJbkoyVn1ev20rVu31i+44ILcf//95999991H/YBqkqF6PZUk7ZfxQD+ttic5o93Oe5pH/9fX39+/8sYbb7xpTrw6kGQsydNJnkgyWfTnAACnEgELAObXa5NcleSKJOccvvHwSqzh4eFcf/31x72DZhLrOk5MKy+5wecvDw0N/XKSo628ejrJF5J8Osn3iv5cjqI/yTuTXJnkDUl6Dr+hXq9n69atef3rX5+LL774uHfSzsHTCTm+E/haWjY2Nnbz+Pj40VZe7UryYJLPJrmv6M8FAE4FAhYAzI91Sf5Lkncc6x0OX6VseHi46Fl/qhznlMENh/68L8knktyYZLzoeQ+5IcmmJGuP9Q71ej0jIyNFz/lT5xinDa5I8rZDf76V5D8k+V9FzwoA3cxVCAGg896S5B9ynHhF6V2b5LtJfrXgOdYl+d9JPpLjxCtK7eIk/zPJB4seBAC6mRVYANBZ705y69wbWq1W+vr6smrVqqJn4xharVZGR0czPT3945VxSc5M8uUkv53kMwWM9fNJvpqDEStJ0m63U6lUsnLlyvT29hZ92DiGiYmJ7NmzZ+7XUnJwBd15Sd5a9HwA0I0ELADonKszJ161Wq3U6/WsXbs2e/fuzZe+9KU88sgj+f73v599+/YVPStJTjvttGzYsCFvfOMbc8kll6Svry/bt29Pq9Wae6rhXyfZk4P7Yy2UM5M8lGR1cjBctdvtnHHGGWk0Gnn88cfz8MMP5zvf+U5GR0fTbtuWvWg9PT0588wz80u/9Eu59NJLs379+oyPj2dycnLuaYZXJrkzyW8VPS8AdBsBCwA644Iknzr8SrPZzNKlS7N06dLcc889+ZM/+ZM88sgjRc/IcVx66aV573vfm40bN2Z8fDx79+6du4Lmb5P8bJIfLNA492ZOvKrVahkYGMjTTz+dW265JXfffXf27t1b9CHjGM4999xcc801ec973pOlS5dmeHh47tfSv0rybJMrRAAACKZJREFUnSS3FD0nAHQTe2ABQGd89vALrVYrK1asSH9/f9797nfnN3/zN8WrLvC1r30tl19+eTZt2pTly5dnyZIlabVah99cSfKXCzTK+5K8PnlxvPr85z+fiy++OJ/61KfEq5LbsmVLbrzxxmzcuDGDg4NZv359ms3m3Hf5L0nOL3pOAOgmAhYAnLzfycH9itJut9PX15f+/v5cffXV+chHPlL0bLxMH/rQh/L7v//7WbZsWXp6eua+6ZIk/3KeH351kv8094aBgYHcddddufLKK7Nr166iDw8vw0MPPZQ3v/nN2b59ewYGBuYG0eRgxAIATpCABQAnb9PcV1atWpVbbrkln/lMEft+0wkf/ehHc8cdd2T16tVHRoeb5vmh/02S3uRgDF29enW+973v5aqrrir6kPAKPfPMM3n729+eRqORRYsWzX3Tr8cqLAA4YQIWAJycf5aDeyMlSVasWJHnnnsuH/jAB4qei5P0h3/4h9m+fXuWL18+9+Y3JPm5eXzYtx9+oVarpdFo5H3ve18OHDhQ9OHgJPzd3/1d/uqv/iorV648csP93y56NgDoFgIWAJycyw6/0G63s2jRotxxxx3Zv39/0XNxknbt2pVPf/rT6e/vPzI6/Oo8PeTPJznv8CurVq3KN7/5zdx///1FHwo64KMf/Wimp6ePPC31zUXPBQDdQsACgJNz0eEXent7s3fv3nz1q18teiY65MEHH8zs7OyR0eGfztPDvXbuK/V6PV/5yleKPgR0yObNm/PYY49l2bJlc2/ekGRV0bMBQDcQsADg5Jx1+IX+/v48//zzefbZZ4ueiQ556qmnMjQ0dOTeRefM08P9+H6r1WqazWaeeOKJog8BHfTkk0+m0WjMvWl5klcVPRcAdAMBCwBOzo+XUzQajUxMTGRiYqLomeiQsbGxTE5Oplarzb15xTw93PK5rzSbzYyMjBR9COigsbGxo9286OXeDwD8NBKwAODkvGg5RbPZLHoeOqjVaqXVaqVSqcy9ufJK7+8l/MT9+no6tRxxRUsA4GUQsADg5Lxod+8jQgddrlKpHO3vtP1K7usE/MT9Vqt+VDuVHOP7w3x9PQHAKcVPRQAAAACUmoAFAAAAQKkJWAAAAACUmoAFAAAAQKkJWAAAAACUmoAFAAAAQKkJWAAAAACUmoAFAAAAQKkJWAAAAACUmoAFAAAAQKkJWAAAAACUmoAFAAAAQKkJWAAAAACUmoAFAAAAQKkJWAAAAACUmoAFAAAAQKkJWAAAAACUmoAFAAAAQKkJWAAAAACUmoAFAAAAQKkJWAAAAACUmoAFAAAAQKkJWAAAAACUmoAFAAAAQKkJWAAAAACUmoAFAAAAQKkJWAAAAACUmoAFAAAAQKkJWAAAAACUmoAFAAAAQKkJWAAAAACUmoAFAAAAQKkJWAAAAACUmoAFAAAAQKkJWAAAAACUmoAFAAAAQKkJWAAAAACUmoAFAAAAQKkJWAAAAACUmoAFAAAAQKkJWAAAAACUmoAFAAAAQKkJWAAAAACUmoAFAAAAQKkJWAAAAACUmoAFAAAAQKkJWAAAAACUmoAFAAAAQKkJWAAAAACUmoAFAB3UbreLHoEOmp2dLfTxm81m0YeADmq1WkWPAABdS8ACgA6pVCoC1imm3W6n3W6nUqks+GNXKpVMTU0VfQjooKKDKAB0s3rRAwDAqWJsbCxnnnlm7rvvvqJHoUMqlUqWLVuW3bt3L+jjtlqtjI+P50//9E+zZ8+eog8DHfIzP/MzGR0dLXoMAOhKAhYAdMjU1FSWLFmSK664ouhR6KAXXngh09PTqVYXduH69PR0Lr744jQajaIPAR0yMTGRiYmJ1Gq1okcBgK4jYAFAh9RqtczOzmZ4eLjoUeiwhY5Xhx9zZGSk6E+dDhOvAOCVsQcWAJycZUUPwIJbOk/3u6joT4xC+IUyAJwA/2ECwMkZSrKu6CFYUNvn6X7Hk9jw6qfPgaIHAIBuUHG1JAAAAADKzCmEAAAAAJSagAUAAABAqQlYAAAAAJSagAUAAABAqQlYAAAAAJSagAUAAABAqQlYAAAAAJSagAUAAABAqQlYAAAAAJSagAUAAABAqQlYAAAAAJSagAUAAABAqQlYAAAAAJSagAUAAABAqQlYAAAAAJSagAUAAABAqQlYAAAAAJSagAUAAABAqQlYAAAAAJSagAUAAABAqQlYAAAAAJSagAUAAABAqQlYAAAAAJSagAUAAABAqQlYAAAAAJSagAUAAABAqQlYAAAAAJSagAUAAABAqQlYAAAAAJSagAUAAABAqQlYAAAAAJSagAUAAABAqQlYAAAAAJSagAUAAABAqQlYAAAAAJSagAUAAABAqQlYAAAAAJSagAUAAABAqQlYAAAAAJSagAUAAABAqQlYAAAAAJSagAUAAABAqQlYAAAAAJSagAUAAABAqQlYAAAAAJSagAUAAABAqQlYAAAAAJSagAUAAABAqQlYAAAAAJSagAUAAABAqQlYAAAAAJSagAUAAABAqQlYAAAAAJSagAUAAABAqQlYAAAAAJSagAUAAABAqQlYAAAAAJSagAUAAABAqQlYAAAAAJSagAUAAABAqQlYAAAAAJSagAUAAABAqQlYAAAAAJSagAUAAABAqQlYAAAAAJSagAUAAABAqQlYAAAAAJSagAUAAABAqQlYAAAAAJSagAUAAABAqQlYAAAAAJSagAUAAABAqQlYAAAAAJSagAUAAABAqQlYAAAAAJSagAUAAABAqQlYAAAAAJSagAUAAABAqQlYAAAAAJSagAUAAABAqQlYAAAAAJSagAUAAABAqQlYAAAAAJSagAUAAABAqQlYAAAAAJSagAUAAABAqQlYAAAAAJSagAUAAABAqQlYAAAAAJSagAUAAABAqQlYAAAAAJSagAUAAABAqQlYAAAAAJSagAUAAABAqQlYAAAAAJTa/wcV4plFlq2h5wAAACV0RVh0ZGF0ZTpjcmVhdGUAMjAyMC0xMi0xOVQxMzowNTo0MCswMDowMAU01t4AAAAldEVYdGRhdGU6bW9kaWZ5ADIwMjAtMTItMTlUMjA6MzQ6MTYrMDA6MDDo0hEWAAAAAElFTkSuQmCC;" vertex="1" parent="1">
          <mxGeometry x="270" y="235" width="110" height="110" as="geometry" />
        </mxCell>
        <mxCell id="nDjcoqbKYRmUomGfSdk0-7" value="" style="edgeStyle=orthogonalEdgeStyle;rounded=0;orthogonalLoop=1;jettySize=auto;html=1;" edge="1" parent="1" source="nDjcoqbKYRmUomGfSdk0-6" target="nDjcoqbKYRmUomGfSdk0-3">
          <mxGeometry relative="1" as="geometry" />
        </mxCell>
        <mxCell id="nDjcoqbKYRmUomGfSdk0-6" value="&lt;font style=&quot;font-size: 14px;&quot; color=&quot;#ffffff&quot;&gt;&lt;b&gt;AI Module&lt;/b&gt;&lt;/font&gt;" style="text;html=1;align=center;verticalAlign=middle;whiteSpace=wrap;rounded=0;" vertex="1" parent="1">
          <mxGeometry x="380" y="220" width="74" height="30" as="geometry" />
        </mxCell>
        <mxCell id="nDjcoqbKYRmUomGfSdk0-8" value="&lt;font style=&quot;font-size: 10px;&quot; color=&quot;#ffffff&quot;&gt;Recommendation Engine&lt;/font&gt;&lt;div&gt;&lt;div&gt;&lt;font style=&quot;font-size: 10px;&quot; color=&quot;#ffffff&quot;&gt;NLP Automation&lt;/font&gt;&lt;/div&gt;&lt;div&gt;&lt;font style=&quot;font-size: 10px;&quot; color=&quot;#ffffff&quot;&gt;ML Modules&lt;/font&gt;&lt;/div&gt;&lt;/div&gt;" style="whiteSpace=wrap;html=1;aspect=fixed;fillColor=none;strokeColor=#FFFFFF;dashed=1;dashPattern=8 8;" vertex="1" parent="1">
          <mxGeometry x="366" y="250" width="96" height="96" as="geometry" />
        </mxCell>
        <mxCell id="nDjcoqbKYRmUomGfSdk0-10" value="" style="strokeWidth=2;html=1;shape=mxgraph.flowchart.database;whiteSpace=wrap;" vertex="1" parent="1">
          <mxGeometry x="100" y="268" width="60" height="60" as="geometry" />
        </mxCell>
        <mxCell id="nDjcoqbKYRmUomGfSdk0-11" style="edgeStyle=orthogonalEdgeStyle;rounded=0;orthogonalLoop=1;jettySize=auto;html=1;entryX=1.167;entryY=0.367;entryDx=0;entryDy=0;entryPerimeter=0;" edge="1" parent="1" source="nDjcoqbKYRmUomGfSdk0-3" target="nDjcoqbKYRmUomGfSdk0-10">
          <mxGeometry relative="1" as="geometry" />
        </mxCell>
        <mxCell id="nDjcoqbKYRmUomGfSdk0-12" value="Database" style="text;html=1;align=center;verticalAlign=middle;whiteSpace=wrap;rounded=0;" vertex="1" parent="1">
          <mxGeometry x="100" y="340" width="60" height="30" as="geometry" />
        </mxCell>
        <mxCell id="nDjcoqbKYRmUomGfSdk0-18" style="edgeStyle=orthogonalEdgeStyle;rounded=0;orthogonalLoop=1;jettySize=auto;html=1;entryX=0;entryY=0.5;entryDx=0;entryDy=0;" edge="1" parent="1" source="nDjcoqbKYRmUomGfSdk0-13" target="nDjcoqbKYRmUomGfSdk0-17">
          <mxGeometry relative="1" as="geometry" />
        </mxCell>
        <mxCell id="nDjcoqbKYRmUomGfSdk0-13" value="" style="image;aspect=fixed;perimeter=ellipsePerimeter;html=1;align=center;shadow=0;dashed=0;fontColor=#4277BB;labelBackgroundColor=default;fontSize=12;spacingTop=3;image=img/lib/ibm/blockchain/blockchain.svg;" vertex="1" parent="1">
          <mxGeometry x="340" y="440" width="80" height="80" as="geometry" />
        </mxCell>
        <mxCell id="nDjcoqbKYRmUomGfSdk0-20" style="edgeStyle=orthogonalEdgeStyle;rounded=0;orthogonalLoop=1;jettySize=auto;html=1;entryX=0.5;entryY=0;entryDx=0;entryDy=0;" edge="1" parent="1" source="nDjcoqbKYRmUomGfSdk0-15" target="nDjcoqbKYRmUomGfSdk0-19">
          <mxGeometry relative="1" as="geometry" />
        </mxCell>
        <mxCell id="nDjcoqbKYRmUomGfSdk0-15" value="Cosmos SDK, Tendermint" style="text;html=1;align=center;verticalAlign=middle;whiteSpace=wrap;rounded=0;" vertex="1" parent="1">
          <mxGeometry x="300" y="530" width="160" height="30" as="geometry" />
        </mxCell>
        <mxCell id="nDjcoqbKYRmUomGfSdk0-17" value="&lt;b&gt;Interoperability Layer&lt;/b&gt;&lt;div&gt;&lt;b&gt;(IBC)&lt;/b&gt;&lt;/div&gt;" style="rounded=1;whiteSpace=wrap;html=1;" vertex="1" parent="1">
          <mxGeometry x="530" y="450" width="140" height="60" as="geometry" />
        </mxCell>
        <mxCell id="nDjcoqbKYRmUomGfSdk0-19" value="Smart Contracts&lt;div&gt;(Automated Transaction)&lt;/div&gt;" style="rounded=1;whiteSpace=wrap;html=1;" vertex="1" parent="1">
          <mxGeometry x="300" y="620" width="160" height="60" as="geometry" />
        </mxCell>
        <mxCell id="nDjcoqbKYRmUomGfSdk0-22" value="" style="shape=image;html=1;verticalAlign=top;verticalLabelPosition=bottom;labelBackgroundColor=#ffffff;imageAspect=0;aspect=fixed;image=https://cdn3.iconfinder.com/data/icons/marketing-outline-13/64/Review-128.png;imageBackground=#000000;" vertex="1" parent="1">
          <mxGeometry x="610" y="235" width="68" height="68" as="geometry" />
        </mxCell>
        <mxCell id="nDjcoqbKYRmUomGfSdk0-23" value="Feedback Module" style="text;html=1;align=center;verticalAlign=middle;whiteSpace=wrap;rounded=0;" vertex="1" parent="1">
          <mxGeometry x="610" y="319" width="60" height="30" as="geometry" />
        </mxCell>
        <mxCell id="nDjcoqbKYRmUomGfSdk0-25" style="edgeStyle=orthogonalEdgeStyle;rounded=0;orthogonalLoop=1;jettySize=auto;html=1;entryX=1.001;entryY=0.37;entryDx=0;entryDy=0;entryPerimeter=0;" edge="1" parent="1" source="nDjcoqbKYRmUomGfSdk0-22" target="nDjcoqbKYRmUomGfSdk0-5">
          <mxGeometry relative="1" as="geometry" />
        </mxCell>
      </root>
    </mxGraphModel>
  </diagram>
</mxfile>
